<svg xmlns="http://www.w3.org/2000/svg" xmlns:xlink="http://www.w3.org/1999/xlink" width="180.842" height="104.316" viewBox="0 0 180.842 104.316">
  <defs>
    <clipPath id="clip-path">
      <path id="Path_14548" data-name="Path 14548" d="M1370.118,1632.429c1.287,10.678,19.5,33.087,27.867,42.683,5.055,5.8,16.7,17.48,16.7,17.48a346.276,346.276,0,0,1,39.211-30.534c19.592-12.9,40.282-26.867,62.323-34.74,14.3-5.108,34.738-8.172,34.738-8.172s-10.477-9.123-15.325-13.282c-4.964-4.261-9.387-15.13-15.528-17.165-7.612-2.521-25.035,7-31.467,8.965-26.337,8.064-53.951,13.17-80.826,19.231C1396.376,1619.473,1375.883,1621.3,1370.118,1632.429Z" transform="translate(-1370.118 -1588.276)" fill="none"/>
    </clipPath>
  </defs>
  <g id="Group_705" data-name="Group 705" transform="translate(-1370.118 -1588.276)">
    <g id="Group_704" data-name="Group 704" transform="translate(1370.118 1588.276)" clip-path="url(#clip-path)">
      <path id="Path_14535" data-name="Path 14535" d="M1370.118,1632.429c1.287,10.678,19.5,33.087,27.867,42.683,5.055,5.8,16.7,17.48,16.7,17.48a346.276,346.276,0,0,1,39.211-30.534c19.592-12.9,40.282-26.867,62.323-34.74,14.3-5.108,34.738-8.172,34.738-8.172s-10.477-9.123-15.325-13.282c-4.964-4.261-9.387-15.13-15.528-17.165-7.612-2.521-25.035,7-31.467,8.965-26.337,8.064-53.951,13.17-80.826,19.231C1396.376,1619.473,1375.883,1621.3,1370.118,1632.429Z" transform="translate(-1370.118 -1588.276)" fill="#e2e2d3"/>
      <path id="Path_14536" data-name="Path 14536" d="M1428.731,1676.44c-18.758-15.063-32.37-30.03-44.138-48.523-.6-.941-1.248-1.94-1.932-2.993a151.878,151.878,0,0,1-8.644-14.521l3.527-1.765a147.114,147.114,0,0,0,8.423,14.136c.692,1.063,1.348,2.076,1.952,3.025,11.526,18.115,24.874,32.784,43.281,47.567Z" transform="translate(-1366.33 -1568.492)" fill="#434e54"/>
      <path id="Path_14537" data-name="Path 14537" d="M1433.338,1672.046c-17.184-13.894-31.321-26.132-43.787-46.376-2.208-3.586-7.009-12.2-9.5-17.537l3.573-1.668c2.4,5.13,7.175,13.712,9.284,17.139,12.141,19.71,26.023,31.721,42.91,45.376Z" transform="translate(-1360.467 -1570.604)" fill="#434e54"/>
      <path id="Path_14538" data-name="Path 14538" d="M1438.652,1665.694c-17.727-14.478-42-34.3-52.926-58.514l3.592-1.62c10.542,23.364,34.4,42.851,51.83,57.08Z" transform="translate(-1354.953 -1571.483)" fill="#434e54"/>
      <path id="Path_14539" data-name="Path 14539" d="M1441,1655.732l-4.227-3.149c-13.444-9.994-25.055-18.624-35.531-32.267l-.382-.5c-2.786-3.624-7.449-9.692-8.935-13.752l3.7-1.356c1.276,3.494,5.883,9.485,8.358,12.7l.382.5c10.142,13.206,21.548,21.686,34.753,31.5l4.239,3.158Z" transform="translate(-1348.928 -1572.307)" fill="#434e54"/>
      <path id="Path_14540" data-name="Path 14540" d="M1448.769,1652.264c-3.417-2.561-6.487-4.756-9.377-6.824-10.01-7.157-17.912-12.81-30.627-26.65a114.338,114.338,0,0,1-10.706-14.032l3.365-2.056a111.169,111.169,0,0,0,10.245,13.421c12.437,13.539,20.193,19.089,30.018,26.112,2.912,2.084,6,4.294,9.448,6.877Z" transform="translate(-1342.971 -1574.259)" fill="#434e54"/>
      <path id="Path_14541" data-name="Path 14541" d="M1451.991,1645.972a160.9,160.9,0,0,1-36.572-29.257c-4.008-4.3-8.383-9.257-10.444-13.488l3.545-1.725c2.078,4.269,7.283,9.844,9.783,12.522a156.927,156.927,0,0,0,35.674,28.541Z" transform="translate(-1336.25 -1575.425)" fill="#434e54"/>
      <path id="Path_14542" data-name="Path 14542" d="M1458.595,1643.768c-19.957-12.372-34.592-24.986-47.451-40.893l3.064-2.48c12.571,15.55,26.9,27.892,46.467,40.023Z" transform="translate(-1330.257 -1576.501)" fill="#434e54"/>
      <path id="Path_14543" data-name="Path 14543" d="M1462.589,1640.582c-14.793-10.422-34.586-25.726-44.872-39.442l3.153-2.364c9.978,13.3,29.428,28.324,43.99,38.582Z" transform="translate(-1323.871 -1578.074)" fill="#434e54"/>
      <path id="Path_14544" data-name="Path 14544" d="M1464.184,1635.087c-12.849-7.34-19.907-13.738-30.006-23.405-2.638-2.524-8.638-9.892-10.5-13.527l3.508-1.8c1.619,3.156,7.328,10.189,9.724,12.48,9.882,9.458,16.78,15.714,29.235,22.831Z" transform="translate(-1318.084 -1580.428)" fill="#434e54"/>
      <path id="Path_14545" data-name="Path 14545" d="M1470.391,1633.292c-13.4-9.225-28.644-20.393-39.866-36.25l3.219-2.275c10.846,15.327,25.757,26.246,38.88,35.276Z" transform="translate(-1311.426 -1581.969)" fill="#434e54"/>
      <path id="Path_14546" data-name="Path 14546" d="M1474.009,1628.715c-2.141-1.593-4.312-3.176-6.489-4.763-11.678-8.511-23.758-17.317-31.859-28.531l3.2-2.311c7.734,10.708,19.554,19.326,30.988,27.656,2.185,1.6,4.367,3.184,6.522,4.789Z" transform="translate(-1306.436 -1583.579)" fill="#434e54"/>
      <path id="Path_14547" data-name="Path 14547" d="M1477.578,1625.438q-1.907-1.358-3.853-2.719c-11.2-7.879-22.788-16.027-32.034-29.564l3.259-2.222c8.841,12.944,20.128,20.883,31.045,28.561q1.949,1.369,3.87,2.733Z" transform="translate(-1300.577 -1585.694)" fill="#434e54"/>
    </g>
  </g>
</svg>
