<svg xmlns="http://www.w3.org/2000/svg" xmlns:xlink="http://www.w3.org/1999/xlink" width="168.747" height="105.179" viewBox="0 0 168.747 105.179">
  <defs>
    <clipPath id="clip-path">
      <path id="Path_14534" data-name="Path 14534" d="M1365.879,1522.574c5.236-6.982,20.428-21.591,27.93-29.093,11.057-11.057,25.6-24.441,25.6-24.441s18.122,23.327,30.84,33.751c17.7,14.506,32.3,23.18,53.533,30.257,10.473,3.491,25.154,5.025,30.84,6.4-9.31,12.8-20.986,27.792-27.969,32.3-7.892,5.093-23.858.789-32.574.455-23.114-.883-42.823-6.094-64.484-13.612-12.525-4.346-32.007-6.661-40.27-18.269C1365.249,1534.584,1366.965,1527.984,1365.879,1522.574Z" transform="translate(-1365.879 -1469.041)" fill="none"/>
    </clipPath>
  </defs>
  <g id="Group_703" data-name="Group 703" transform="translate(-1365.879 -1469.041)">
    <g id="Group_702" data-name="Group 702" transform="translate(1365.879 1469.041)" clip-path="url(#clip-path)">
      <path id="Path_14520" data-name="Path 14520" d="M1365.879,1522.574c5.236-6.982,20.428-21.591,27.93-29.093,11.057-11.057,25.6-24.441,25.6-24.441s18.122,23.327,30.84,33.751c17.7,14.506,32.3,23.18,53.533,30.257,10.473,3.491,25.154,5.025,30.84,6.4-9.31,12.8-20.986,27.792-27.969,32.3-7.892,5.093-23.858.789-32.574.455-23.114-.883-42.823-6.094-64.484-13.612-12.525-4.346-32.007-6.661-40.27-18.269C1365.249,1534.584,1366.965,1527.984,1365.879,1522.574Z" transform="translate(-1365.879 -1469.041)" fill="#e2e2d3"/>
      <path id="Path_14521" data-name="Path 14521" d="M1370.9,1532.074l-2.376-2.82c1.368-1.15,5.091-5.238,8.375-8.845,2.527-2.774,4.914-5.4,6.145-6.591,20.391-19.824,35.223-33.2,54.726-49.34l2.35,2.84c-19.422,16.074-34.195,29.393-54.5,49.141-1.152,1.121-3.5,3.7-5.99,6.431C1376.1,1526.764,1372.454,1530.767,1370.9,1532.074Z" transform="translate(-1363.647 -1472.889)" fill="#434e54"/>
      <path id="Path_14522" data-name="Path 14522" d="M1376.454,1534.042l-2.7-2.512c20.73-22.24,44.015-45.608,73.753-65.852l2.074,3.049C1420.145,1488.764,1397.039,1511.96,1376.454,1534.042Z" transform="translate(-1359.235 -1471.877)" fill="#434e54"/>
      <path id="Path_14523" data-name="Path 14523" d="M1382.273,1534.513l-2.956-2.2c13.964-18.764,39.964-44.894,66.572-60.978l1.907,3.154C1421.616,1490.313,1396.023,1516.037,1382.273,1534.513Z" transform="translate(-1354.548 -1467.108)" fill="#434e54"/>
      <path id="Path_14524" data-name="Path 14524" d="M1396.851,1545.221l-3.087-2.011c6.6-10.145,12.574-18.107,17.744-23.665,16.283-17.508,33.231-29.1,50.61-40.394l2.009,3.091c-17.837,11.594-33.9,22.588-49.919,39.811C1409.181,1527.46,1403.341,1535.253,1396.851,1545.221Z" transform="translate(-1342.367 -1460.516)" fill="#434e54"/>
      <path id="Path_14525" data-name="Path 14525" d="M1402.563,1544.915l-3.074-2.037a203.207,203.207,0,0,1,17.033-21.571c13.123-13.678,24.116-21.324,38.03-31,3.427-2.384,7.013-4.879,10.832-7.605l2.142,3c-3.832,2.737-7.432,5.24-10.867,7.631-13.748,9.564-24.608,17.116-37.478,30.53A201.565,201.565,0,0,0,1402.563,1544.915Z" transform="translate(-1337.54 -1457.524)" fill="#434e54"/>
      <path id="Path_14526" data-name="Path 14526" d="M1409.181,1539.661l-3.447-1.314c1.344-3.515,7.159-9.942,11.419-14.471,11.332-12.06,21.79-20.756,33.9-30.825l3.509-2.92,2.361,2.833-3.511,2.922c-12.017,9.99-22.4,18.62-33.574,30.514C1412.051,1534.683,1409.743,1538.185,1409.181,1539.661Z" transform="translate(-1332.274 -1451.258)" fill="#434e54"/>
      <path id="Path_14527" data-name="Path 14527" d="M1414.547,1543.091l-3.3-1.641c2.024-4.07,6.5-8.593,10.1-12.23.833-.84,1.616-1.633,2.3-2.354,13.75-14.423,27.568-24.925,44.085-36.259l2.084,3.037c-16.327,11.2-29.972,21.575-43.5,35.767-.7.734-1.5,1.541-2.35,2.4C1420.552,1535.261,1416.307,1539.554,1414.547,1543.091Z" transform="translate(-1327.626 -1450.856)" fill="#434e54"/>
      <path id="Path_14528" data-name="Path 14528" d="M1421.608,1539.956l-3.04-2.088a104.557,104.557,0,0,1,9.841-11.5l1.37-1.45c10.075-10.755,19.886-18.491,31.248-27.449l4.046-3.2,2.289,2.89-4.053,3.2c-11.244,8.866-20.953,16.522-30.84,27.074l-1.381,1.466A101.493,101.493,0,0,0,1421.608,1539.956Z" transform="translate(-1321.452 -1447.764)" fill="#434e54"/>
      <path id="Path_14529" data-name="Path 14529" d="M1427.263,1540.457l-2.942-2.221c10.143-13.443,23.995-24.061,37.389-34.331,3.294-2.525,6.562-5.03,9.741-7.551l2.289,2.886c-3.194,2.534-6.479,5.054-9.787,7.592C1450.754,1516.95,1437.105,1527.412,1427.263,1540.457Z" transform="translate(-1316.602 -1446.012)" fill="#434e54"/>
      <path id="Path_14530" data-name="Path 14530" d="M1434.124,1539.5l-2.794-2.405c10.624-12.337,31.275-30.409,39.66-37.6l2.4,2.8C1465.07,1509.425,1444.584,1527.35,1434.124,1539.5Z" transform="translate(-1310.692 -1443.369)" fill="#434e54"/>
      <path id="Path_14531" data-name="Path 14531" d="M1440.642,1538.24l-2.746-2.459a293.613,293.613,0,0,1,35.269-33.2l2.289,2.888A294.1,294.1,0,0,0,1440.642,1538.24Z" transform="translate(-1305.155 -1440.761)" fill="#434e54"/>
      <path id="Path_14532" data-name="Path 14532" d="M1388,1532.347l-3.3-1.648c1.818-3.633,8.663-11.844,11.083-14.5,15.589-17.125,27.605-28.289,40.183-37.335l2.153,2.992c-12.357,8.888-24.2,19.9-39.612,36.825C1395.633,1521.837,1389.458,1529.422,1388,1532.347Z" transform="translate(-1350.01 -1460.758)" fill="#434e54"/>
      <path id="Path_14533" data-name="Path 14533" d="M1391.292,1536.6a1.783,1.783,0,0,1-1.1-.443l-1.418-1.113,1.113-1.489,1.052.789-.955-.892c.192-.216,1.333-1.6,2.912-3.519,3.443-4.18,8.644-10.5,11.158-13.378,12.248-14.073,24.454-24.7,42.128-36.692l2.07,3.048c-17.392,11.8-29.391,22.247-41.42,36.062-2.477,2.848-7.662,9.139-11.091,13.3l-2.151,2.608c-.251.3-.5.606-.763.874l.011.009-.011-.009,0,0,.011.007-.011-.007A2.267,2.267,0,0,1,1391.292,1536.6Z" transform="translate(-1346.575 -1459.912)" fill="#434e54"/>
    </g>
  </g>
</svg>
