<svg xmlns="http://www.w3.org/2000/svg" xmlns:xlink="http://www.w3.org/1999/xlink" width="238.119" height="121.158" viewBox="0 0 238.119 121.158">
  <defs>
    <clipPath id="clip-path">
      <path id="Path_14413" data-name="Path 14413" d="M1054.775,1350.267c5.28-19.356,10.691-28.3,21.84-53.176,6.173-13.768,19.467-32.759,19.467-32.759a15.113,15.113,0,0,0,10.919-2.375c6.92-4.4,9.5-8.546,12.82-12.344,30.386,21.366,41.6,36.415,69.792,56.974,42.233,30.8,64.9,30.608,102.729,39.407-2.931,2.459,7.918,15.838-15.838,16.716-54.16,2.007-81.813,13-134.638,5.437-21.291-3.047-42.845-5.8-64.224-8.075C1072.139,1359.486,1050.589,1358.7,1054.775,1350.267Z" transform="translate(-1054.24 -1249.613)" fill="none"/>
    </clipPath>
  </defs>
  <g id="Group_685" data-name="Group 685" transform="translate(-1054.24 -1249.613)">
    <g id="Group_684" data-name="Group 684" transform="translate(1054.24 1249.613)" clip-path="url(#clip-path)">
      <path id="Path_14398" data-name="Path 14398" d="M1054.775,1350.267c5.28-19.356,10.691-28.3,21.84-53.176,6.173-13.768,19.467-32.759,19.467-32.759a15.113,15.113,0,0,0,10.919-2.375c6.92-4.4,9.5-8.546,12.82-12.344,30.386,21.366,41.6,36.415,69.792,56.974,42.233,30.8,64.9,30.608,102.729,39.407-2.931,2.459,7.918,15.838-15.838,16.716-54.16,2.007-81.813,13-134.638,5.437-21.291-3.047-42.845-5.8-64.224-8.075C1072.139,1359.486,1050.589,1358.7,1054.775,1350.267Z" transform="translate(-1054.24 -1249.613)" fill="#e2e2d3"/>
      <path id="Path_14399" data-name="Path 14399" d="M1057.937,1364.2l-.318-2.443,1.8-.229-1.785-.106,0-.205a9.068,9.068,0,0,1,.065-1.175c1.545-8.37,5.5-16.941,9-24.5l1.044-2.267c8.617-18.772,15.5-33.309,25.66-49.47,8.46-13.465,17.685-27.1,26.608-40.293l5.068-7.5,4.122,2.781-5.073,7.505c-8.9,13.155-18.1,26.759-26.517,40.15-10,15.906-16.812,30.3-25.35,48.9l-1.049,2.275c-3.356,7.263-7.156,15.49-8.6,23.216,0,.111,0,.253,0,.375a2.512,2.512,0,0,1-2.338,2.84Zm2.151-2.756h0Zm.013,0,2.451-.31Z" transform="translate(-1052.019 -1258.555)" fill="#434e54"/>
      <path id="Path_14400" data-name="Path 14400" d="M1069.98,1358.152l-4.625-1.826c18.971-48.082,39.293-79.865,72.487-113.358l3.531,3.5C1108.273,1279.868,1088.924,1310.137,1069.98,1358.152Z" transform="translate(-1046.935 -1253.98)" fill="#434e54"/>
      <path id="Path_14401" data-name="Path 14401" d="M1080.477,1354.178l-4.529-2.055c.781-1.717,1.613-3.589,2.491-5.566,3.28-7.381,7.36-16.568,11.769-24.432,16.928-30.189,31.866-50.993,51.562-71.8l3.613,3.419c-19.4,20.491-34.125,41.009-50.837,70.815-4.3,7.663-8.326,16.733-11.564,24.019C1082.1,1350.567,1081.259,1352.45,1080.477,1354.178Z" transform="translate(-1039.973 -1249.148)" fill="#434e54"/>
      <path id="Path_14402" data-name="Path 14402" d="M1089.042,1358.418l-4.562-1.97c5.9-13.675,9.521-21.066,14.895-30.416,17.5-30.449,35.588-54.751,55.294-74.293l3.5,3.531c-19.386,19.223-37.209,43.181-54.485,73.241C1098.354,1337.786,1094.932,1344.775,1089.042,1358.418Z" transform="translate(-1034.366 -1248.216)" fill="#434e54"/>
      <path id="Path_14403" data-name="Path 14403" d="M1098.03,1351.027l-4.557-1.983c15.9-36.546,37.665-62.547,58.59-86.046l3.712,3.3C1135.12,1289.5,1113.644,1315.154,1098.03,1351.027Z" transform="translate(-1028.456 -1240.818)" fill="#434e54"/>
      <path id="Path_14404" data-name="Path 14404" d="M1107.389,1356.135l-4.441-2.234a358.677,358.677,0,0,1,70.518-95.653l3.47,3.561A353.738,353.738,0,0,0,1107.389,1356.135Z" transform="translate(-1022.229 -1243.938)" fill="#434e54"/>
      <path id="Path_14405" data-name="Path 14405" d="M1118.258,1349.8l-4.554-1.994a192.66,192.66,0,0,1,10.836-20.766,304.7,304.7,0,0,1,47.812-60.472l3.481,3.548A299.718,299.718,0,0,0,1128.8,1329.6,187.7,187.7,0,0,0,1118.258,1349.8Z" transform="translate(-1015.161 -1238.469)" fill="#434e54"/>
      <path id="Path_14406" data-name="Path 14406" d="M1126.271,1347.935l-4.441-2.239c2.488-4.933,8.245-15.2,10.725-19.261,11.62-19.041,23.083-31.517,37.6-47.308l1.985-2.161,3.661,3.363-1.985,2.161c-14.328,15.593-25.646,27.91-37.015,46.535C1134.415,1332.927,1128.666,1343.184,1126.271,1347.935Z" transform="translate(-1009.821 -1231.637)" fill="#434e54"/>
      <path id="Path_14407" data-name="Path 14407" d="M1137.5,1344.338l-4.516-2.082c9.719-21.1,23.552-37.043,38.2-53.926q2.372-2.729,4.75-5.484l3.767,3.243q-2.381,2.765-4.76,5.5C1160.529,1308.2,1146.92,1323.881,1137.5,1344.338Z" transform="translate(-1002.492 -1227.773)" fill="#434e54"/>
      <path id="Path_14408" data-name="Path 14408" d="M1147.935,1344.207l-4.507-2.093c8.558-18.413,21.383-33.288,34.963-49.036,2.575-2.988,5.182-6.01,7.8-9.1l3.8,3.21c-2.623,3.1-5.242,6.135-7.827,9.134C1168.808,1311.8,1156.2,1326.424,1147.935,1344.207Z" transform="translate(-995.627 -1227.028)" fill="#434e54"/>
      <path id="Path_14409" data-name="Path 14409" d="M1159.325,1337.988l-4.812-1.246a55.748,55.748,0,0,1,5.81-12.3,209.385,209.385,0,0,1,19.7-24.965c2.36-2.653,4.8-5.4,7.439-8.525l3.8,3.208c-2.681,3.175-5.142,5.944-7.524,8.621a205.246,205.246,0,0,0-19.3,24.438A52.147,52.147,0,0,0,1159.325,1337.988Z" transform="translate(-988.342 -1222.448)" fill="#434e54"/>
      <path id="Path_14410" data-name="Path 14410" d="M1168.636,1337.312l-4.592-1.9c5.626-13.573,17.487-27.831,27.95-40.414l2.234-2.688,3.825,3.175-2.235,2.691C1185.579,1310.485,1173.975,1324.438,1168.636,1337.312Z" transform="translate(-982.078 -1221.555)" fill="#434e54"/>
      <path id="Path_14411" data-name="Path 14411" d="M1177.551,1334.241l-4.161-2.719c9.7-14.854,18.87-25.312,29.491-37.424l1.4-1.594,3.739,3.276-1.4,1.6C1196.122,1309.343,1187.058,1319.681,1177.551,1334.241Z" transform="translate(-975.936 -1221.426)" fill="#434e54"/>
      <path id="Path_14412" data-name="Path 14412" d="M1188.854,1332.17l-4.9-.865c.441-2.494,2.474-5.479,4.7-8.576l.62-.868c4.438-6.317,8.626-11.249,12.676-16.02,3.162-3.722,6.145-7.237,8.9-11.032l4.022,2.922c-2.867,3.948-5.911,7.532-9.133,11.327-3.979,4.687-8.092,9.532-12.4,15.664l-.65.908C1191.537,1327.239,1189.132,1330.586,1188.854,1332.17Z" transform="translate(-968.992 -1219.911)" fill="#434e54"/>
    </g>
  </g>
</svg>
