<svg xmlns="http://www.w3.org/2000/svg" xmlns:xlink="http://www.w3.org/1999/xlink" width="189.151" height="66.116" viewBox="0 0 189.151 66.116">
  <defs>
    <clipPath id="clip-path">
      <path id="Path_14555" data-name="Path 14555" d="M991.773,1552.383c69.187-18.407,188.6,8.983,189.151,9.522-10.791,8.885-29.2,20.312-48.239,29.2-18.823,8.783-40.624,15.235-61.57,20.946-3.3.9-20.312-4.443-39.99-14.6-2.255-1.163,2.539-13.33-10.156-26.66C1006.718,1555.826,995.325,1566.385,991.773,1552.383Z" transform="translate(-991.773 -1546.029)" fill="#e0d6b6"/>
    </clipPath>
  </defs>
  <g id="Group_707" data-name="Group 707" transform="translate(-991.773 -1546.029)">
    <path id="Path_14549" data-name="Path 14549" d="M991.773,1552.383c69.187-18.407,188.6,8.983,189.151,9.522-10.791,8.885-29.2,20.312-48.239,29.2-18.823,8.783-40.624,15.235-61.57,20.946-3.3.9-20.312-4.443-39.99-14.6-2.255-1.163,2.539-13.33-10.156-26.66C1006.718,1555.826,995.325,1566.385,991.773,1552.383Z" transform="translate(0 0)" fill="#e2e2d3"/>
    <g id="Group_706" data-name="Group 706" transform="translate(991.773 1546.029)" clip-path="url(#clip-path)">
      <path id="Path_14550" data-name="Path 14550" d="M1072.2,1596.413a76.574,76.574,0,0,1-8.4-5.022,106.99,106.99,0,0,0-20.545-10.909,163.938,163.938,0,0,0-25.044-7.153l.672-3.7a168.806,168.806,0,0,1,25.82,7.381,110.218,110.218,0,0,1,21.172,11.242,72.511,72.511,0,0,0,8.01,4.8Z" transform="translate(-968.444 -1525.206)" fill="#606060"/>
      <path id="Path_14551" data-name="Path 14551" d="M1093.268,1592.109a238.543,238.543,0,0,0-44.014-18.04c-5.348-1.636-11.707-2.609-18.441-3.639-4.143-.632-8.426-1.288-12.622-2.127l.74-3.692c4.111.821,8.351,1.47,12.451,2.1,6.873,1.052,13.364,2.045,18.975,3.761,16.754,5.13,28.015,9.745,44.632,18.29Z" transform="translate(-968.46 -1529.631)" fill="#606060"/>
      <path id="Path_14552" data-name="Path 14552" d="M1113.454,1587.537c-34.724-15.608-65.429-23.175-96.631-23.813l.077-3.765c31.725.649,62.9,8.321,98.1,24.145Z" transform="translate(-969.667 -1533.736)" fill="#606060"/>
      <path id="Path_14553" data-name="Path 14553" d="M1133.576,1579.194c-14.024-7.012-55.156-17.249-85.2-19.448-13.126-.958-24.2-1.425-33.845-1.425v-3.765c9.74,0,20.9.469,34.12,1.436,30.967,2.265,71.986,12.522,86.611,19.834Z" transform="translate(-971.692 -1538.504)" fill="#606060"/>
      <path id="Path_14554" data-name="Path 14554" d="M1158.181,1568.717a518.888,518.888,0,0,0-101.436-14.631c-2.118-.094-4.32-.205-6.59-.322-12.537-.64-26.746-1.365-39.481.455l-.533-3.727c13.093-1.869,27.494-1.139,40.2-.488,2.261.117,4.456.228,6.564.32a522.673,522.673,0,0,1,102.177,14.736Z" transform="translate(-975.564 -1543.141)" fill="#606060"/>
    </g>
  </g>
</svg>
