<svg xmlns="http://www.w3.org/2000/svg" xmlns:xlink="http://www.w3.org/1999/xlink" width="80.061" height="143.756" viewBox="0 0 80.061 143.756">
  <defs>
    <clipPath id="clip-path">
      <path id="Path_14561" data-name="Path 14561" d="M1034.141,1635.866c1.387,45.667,4.612,101.944,36.51,135.642,13.864-16.516,43.552-79.495,43.552-79.495s-5.291-4.687-16.193-19.793c-8.5-11.778-13.35-23.654-24.428-33.534C1065.022,1631.052,1039.273,1619.953,1034.141,1635.866Z" transform="translate(-1034.141 -1627.752)" fill="none"/>
    </clipPath>
  </defs>
  <g id="Group_709" data-name="Group 709" transform="translate(-1034.141 -1627.752)">
    <g id="Group_708" data-name="Group 708" transform="translate(1034.141 1627.752)" clip-path="url(#clip-path)">
      <path id="Path_14556" data-name="Path 14556" d="M1034.141,1635.866c1.387,45.667,4.612,101.944,36.51,135.642,13.864-16.516,43.552-79.495,43.552-79.495s-5.291-4.687-16.193-19.793c-8.5-11.778-13.35-23.654-24.428-33.534C1065.022,1631.052,1039.273,1619.953,1034.141,1635.866Z" transform="translate(-1034.141 -1627.752)" fill="#e2e2d3"/>
      <path id="Path_14557" data-name="Path 14557" d="M1080.654,1778.407c-20.973-29.058-32.013-52.836-38.11-82.075-4.441-21.285-4.991-41.752-5.572-63.42l-.081-3.057,5.779-.156.081,3.057c.569,21.4,1.113,41.622,5.447,62.4,5.924,28.382,16.682,51.524,37.14,79.874Z" transform="translate(-1028.945 -1624.075)" fill="#434e54"/>
      <path id="Path_14558" data-name="Path 14558" d="M1088.6,1762.52c-13.85-12.636-22.371-28.4-32.071-47.692-9.475-18.834-12.648-33.112-15.815-49.819-1.552-8.186-1.139-15.436-.7-23.111.2-3.606.416-7.331.407-11.171l5.776-.147c.514,10.828,2.8,20.117,5.522,30.283,4.458,16.67,13.136,34.935,22.643,47.667,8.868,11.879,16.526,22.14,27.867,32.088l-3.809,4.343c-11.8-10.348-19.626-20.831-28.69-32.973-9.92-13.28-18.959-32.3-23.594-49.631l-.049-.177c.092.581.193,1.162.3,1.751,3.08,16.257,6.166,30.136,15.3,48.3,9.429,18.756,17.684,34.053,30.8,46.022Z" transform="translate(-1023.791 -1622.41)" fill="#434e54"/>
      <path id="Path_14559" data-name="Path 14559" d="M1104.465,1730.074c-22.53-16.537-38.449-34.591-50.1-56.824-6.045-11.538-11.977-29.832-11.619-42.474l5.779.162c-.327,11.53,5.4,29.02,10.957,39.631,11.226,21.42,26.6,38.854,48.4,54.85Z" transform="translate(-1017.905 -1622.036)" fill="#434e54"/>
      <path id="Path_14560" data-name="Path 14560" d="M1103.794,1709.441c-24.726-11.8-53.908-50.149-58.907-77.418l5.684-1.043c4.644,25.327,32.759,62.293,55.714,73.248Z" transform="translate(-1013.836 -1621.653)" fill="#434e54"/>
    </g>
  </g>
</svg>
