<svg id="Group_732" data-name="Group 732" xmlns="http://www.w3.org/2000/svg" xmlns:xlink="http://www.w3.org/1999/xlink" width="307.384" height="99.275" viewBox="0 0 307.384 99.275">
  <defs>
    <linearGradient id="linear-gradient" x1="0.479" y1="-0.427" x2="0.52" y2="1.529" gradientUnits="objectBoundingBox">
      <stop offset="0.054" stop-color="#a6ad9c"/>
      <stop offset="0.061" stop-color="#a0a998"/>
      <stop offset="0.104" stop-color="#869584"/>
      <stop offset="0.148" stop-color="#738776"/>
      <stop offset="0.193" stop-color="#687e6d"/>
      <stop offset="0.242" stop-color="#657c6b"/>
      <stop offset="0.435" stop-color="#779781"/>
      <stop offset="0.763" stop-color="#9bcead"/>
    </linearGradient>
    <clipPath id="clip-path">
      <path id="Path_13989" data-name="Path 13989" d="M761.514,663.345c2.187-.972,8.193-.557,10.835-1.111,4.1-.862,11.013-7.788,14.168-10.279,5.279-4.167,9.482-7.025,14.79-10.735a35.533,35.533,0,0,1,7.247-3.988c-.924,5.278-.522,10.045-.924,13.335-.681,5.576-4.591,17.636-4.445,23.336.278,10.834,2.337,11.358,4.723,21.114,1.115,4.562,1.944,11.112,4.445,15.28a51.268,51.268,0,0,1-19.725-6.945c-5.565-3.562-18.333-16.317-25-16.669-10.557-.556-10.279-3.334-10.834-10C756.344,671.315,756.513,665.568,761.514,663.345Z" transform="translate(-756.63 -637.231)" fill="none"/>
    </clipPath>
    <linearGradient id="linear-gradient-2" y1="0.5" x2="1" y2="0.5" gradientUnits="objectBoundingBox">
      <stop offset="0.095" stop-color="#a6b79c"/>
      <stop offset="0.396" stop-color="#bbcab7"/>
      <stop offset="0.763" stop-color="#dae5de"/>
    </linearGradient>
    <clipPath id="clip-path-2">
      <path id="Path_13995" data-name="Path 13995" d="M301.539,777.287c8,7.08,9.436,21.17,19.693,26.531,4.939,2.581,6.777-3.485,6.181-7.5-.716-4.821-3.822-7.889-7.829-10.726C317.933,784.428,303.743,770.487,301.539,777.287Z" transform="translate(-301.539 -775.426)" fill="none"/>
    </clipPath>
    <clipPath id="clip-path-3">
      <path id="Path_14002" data-name="Path 14002" d="M316.682,616.693c3.816-2.635,9.539-3.583,13.954-5.39,6.109-2.5,16.005-4.132,22.618-4.939,13.3-1.621,20.918-1.4,32.469,1.205,3.883.874,20.038,3.831,21.04,8.048-22.559,2.5-45.387.456-68.041.439C332.879,616.052,325.109,614.37,316.682,616.693Z" transform="translate(-316.682 -605.338)" fill="none"/>
    </clipPath>
    <clipPath id="clip-path-4">
      <path id="Path_14013" data-name="Path 14013" d="M568.5,622.831a104.392,104.392,0,0,1,21.937-8.9c9.04-2.406,15.542-3.455,21.226-2.209-.5,3.308-.855,7.564-.061,9.654,1.288,3.386,3.087,6.6,5.367,8.558,4.495,3.858,10.064,7.763,2.417,10.427-10.223,3.562-24.58-1.424-29.322-3.613-6.955-3.21-12.133-7.429-18.432-11.3C570.245,624.589,570.148,625.007,568.5,622.831Z" transform="translate(-568.496 -611.192)" fill="none"/>
    </clipPath>
    <linearGradient id="linear-gradient-3" x1="0.094" y1="0.837" x2="1.05" y2="0.313" xlink:href="#linear-gradient-2"/>
    <clipPath id="clip-path-5">
      <path id="Path_14023" data-name="Path 14023" d="M587.549,774.03a113.512,113.512,0,0,0,22.944,9.443c9.491,2.629,17.852,4.318,22.382,2.734s-.348-8.792.039-10.979c.536-3.033,2.134-7.131,5.489-8,7-1.817,9.614-3.585,2.964-6.181-10.558-4.122-25.547-2.462-30.623-.392-7.445,3.037-13.039,7.126-19.809,10.845C589.448,772.316,589.356,771.9,587.549,774.03Z" transform="translate(-587.549 -758.503)" fill="none"/>
    </clipPath>
    <linearGradient id="linear-gradient-4" x1="0.117" y1="-0.01" x2="1.023" y2="0.85" xlink:href="#linear-gradient-2"/>
    <linearGradient id="linear-gradient-5" x1="0.499" y1="-0.124" x2="0.501" y2="1.254" gradientUnits="objectBoundingBox">
      <stop offset="0.054" stop-color="#a6ad9c"/>
      <stop offset="0.071" stop-color="#a0a998"/>
      <stop offset="0.168" stop-color="#869584"/>
      <stop offset="0.269" stop-color="#738776"/>
      <stop offset="0.372" stop-color="#687e6d"/>
      <stop offset="0.484" stop-color="#657c6b"/>
      <stop offset="0.627" stop-color="#779781"/>
      <stop offset="0.87" stop-color="#9bcead"/>
    </linearGradient>
    <linearGradient id="linear-gradient-6" y1="0.5" x2="1.157" y2="0.5" gradientUnits="objectBoundingBox">
      <stop offset="0.095" stop-color="#8e9b86"/>
      <stop offset="0.327" stop-color="#a5b2a1"/>
      <stop offset="0.763" stop-color="#dae5de"/>
    </linearGradient>
    <clipPath id="clip-path-6">
      <path id="Path_14033" data-name="Path 14033" d="M279.2,706.579c4.634-2.811,9.938-4,15.211-5.113,2.806-.59,8.057-.985,8.181,1.15.194,3.372-2.661,8.14-4.6,10.226-2.909,3.127-4.985,2.812-9.2,1.534C279.772,711.644,275.5,708.823,279.2,706.579Z" transform="translate(-277.869 -700.998)" fill="none"/>
    </clipPath>
    <linearGradient id="linear-gradient-7" x1="0.002" y1="0.518" x2="0.993" y2="0.384" gradientUnits="objectBoundingBox">
      <stop offset="0" stop-color="#fff" stop-opacity="0"/>
      <stop offset="0.156" stop-color="#fefefe" stop-opacity="0.016"/>
      <stop offset="0.292" stop-color="#fbfdfc" stop-opacity="0.063"/>
      <stop offset="0.421" stop-color="#f6faf9" stop-opacity="0.141"/>
      <stop offset="0.545" stop-color="#eff7f5" stop-opacity="0.255"/>
      <stop offset="0.666" stop-color="#e6f2f0" stop-opacity="0.4"/>
      <stop offset="0.784" stop-color="#dbedea" stop-opacity="0.58"/>
      <stop offset="0.898" stop-color="#cee6e2" stop-opacity="0.784"/>
      <stop offset="1" stop-color="#c1e0db"/>
    </linearGradient>
    <linearGradient id="linear-gradient-12" x1="-5.186" y1="-34.095" x2="-4.104" y2="-34.227" xlink:href="#linear-gradient-7"/>
    <linearGradient id="linear-gradient-13" x1="-4.532" y1="-34.527" x2="-3.45" y2="-34.659" xlink:href="#linear-gradient-7"/>
    <linearGradient id="linear-gradient-14" x1="-4.855" y1="-34.929" x2="-3.773" y2="-35.061" xlink:href="#linear-gradient-7"/>
    <linearGradient id="linear-gradient-15" x1="-5.198" y1="-35.412" x2="-4.115" y2="-35.544" xlink:href="#linear-gradient-7"/>
    <linearGradient id="linear-gradient-16" x1="-4.839" y1="-36.338" x2="-3.756" y2="-36.47" xlink:href="#linear-gradient-7"/>
    <linearGradient id="linear-gradient-17" x1="-4.775" y1="-36.491" x2="-3.693" y2="-36.623" xlink:href="#linear-gradient-7"/>
  </defs>
  <path id="Path_13973" data-name="Path 13973" d="M188.973,745.469c-10.064-4.022-24.6-6.912-33.73-12.181-4.076-2.353-5.13-6.495.444-6.77,5.749-.283,14.141,3.972,19.307,6.432C180.5,735.573,185.647,741.747,188.973,745.469Z" transform="translate(-150.019 -676.451)" fill="url(#linear-gradient)"/>
  <g id="Group_630" data-name="Group 630" transform="translate(251.66 13.175)">
    <g id="Group_629" data-name="Group 629" clip-path="url(#clip-path)">
      <path id="Path_13974" data-name="Path 13974" d="M761.514,663.345c2.187-.972,8.193-.557,10.835-1.111,4.1-.862,11.013-7.788,14.168-10.279,5.279-4.167,9.482-7.025,14.79-10.735a35.533,35.533,0,0,1,7.247-3.988c-.924,5.278-.522,10.045-.924,13.335-.681,5.576-4.591,17.636-4.445,23.336.278,10.834,2.337,11.358,4.723,21.114,1.115,4.562,1.944,11.112,4.445,15.28a51.268,51.268,0,0,1-19.725-6.945c-5.565-3.562-18.333-16.317-25-16.669-10.557-.556-10.279-3.334-10.834-10C756.344,671.315,756.513,665.568,761.514,663.345Z" transform="translate(-756.63 -637.231)" fill="url(#linear-gradient-2)"/>
      <path id="Path_13975" data-name="Path 13975" d="M786.2,668.3a18.553,18.553,0,0,0,9.507-2.107c4.492-2.427,9.963-7.295,13.983-10.422,6.264-4.872,11.061-8.521,17.923-12.354" transform="translate(-773.985 -640.863)" fill="none" stroke="#373e35" stroke-width="2"/>
      <path id="Path_13976" data-name="Path 13976" d="M792.519,677.56c3.634.17,8.518-2.478,11.485-4.176,11.5-6.579,18.328-13.047,29.059-17.748" transform="translate(-777.693 -648.032)" fill="none" stroke="#373e35" stroke-width="2"/>
      <path id="Path_13977" data-name="Path 13977" d="M795.468,686.1a8.357,8.357,0,0,0,3.544-.956,99.167,99.167,0,0,0,10.212-5.064c10.191-5.667,19.5-11.868,30.964-14.339" transform="translate(-779.424 -653.965)" fill="none" stroke="#373e35" stroke-width="2"/>
      <path id="Path_13978" data-name="Path 13978" d="M797.995,699.288c2.545.056,6.764-2.165,9.049-2.958,4.678-1.623,9.381-3.415,13.921-5.394a77.871,77.871,0,0,1,17.748-5.394" transform="translate(-780.907 -665.584)" fill="none" stroke="#373e35" stroke-width="2"/>
      <path id="Path_13979" data-name="Path 13979" d="M802.207,711.83c4.176-.7,8.3-2.484,11.658-3.306,8.145-1.991,16.443-4.865,24.883-4.176" transform="translate(-783.379 -676.561)" fill="none" stroke="#373e35" stroke-width="2"/>
      <path id="Path_13980" data-name="Path 13980" d="M804.314,721.062a128.685,128.685,0,0,1,31.843-4.35" transform="translate(-784.616 -683.879)" fill="none" stroke="#373e35" stroke-width="2"/>
      <path id="Path_13981" data-name="Path 13981" d="M806.42,730.612c9.3,2.56,20.845.932,30.277,2.784" transform="translate(-785.852 -692.036)" fill="none" stroke="#373e35" stroke-width="2"/>
      <path id="Path_13982" data-name="Path 13982" d="M805.577,735.246a90.487,90.487,0,0,0,10.788,2.262c7.341,1.155,16.7,1.914,20.881,2.088" transform="translate(-785.357 -694.756)" fill="none" stroke="#373e35" stroke-width="2"/>
      <path id="Path_13983" data-name="Path 13983" d="M803.892,740.3c3.835.63,8.823,2.358,12.528,3.48,6.741,2.041,15.3,4.526,22.447,3.306" transform="translate(-784.368 -697.722)" fill="none" stroke="#373e35" stroke-width="2"/>
      <path id="Path_13984" data-name="Path 13984" d="M802.207,744.513c4.872,1.566,9.234,3.433,13.573,5.22,10.955,4.512,18.967,5.568,25.231,6.786" transform="translate(-783.379 -700.195)" fill="none" stroke="#373e35" stroke-width="2"/>
      <path id="Path_13985" data-name="Path 13985" d="M798.416,747.04c12.51,7.129,27.145,13.572,40.37,16.879" transform="translate(-781.154 -701.678)" fill="none" stroke="#373e35" stroke-width="2"/>
      <path id="Path_13986" data-name="Path 13986" d="M792.941,750.41c.185.451,1.062-.041,1.74.348,3.606,2.072,7.56,4.459,11.136,6.612A101.612,101.612,0,0,0,822.87,765.9c8.008,2.912,11.4,3.72,14.442,3.654" transform="translate(-777.941 -703.656)" fill="none" stroke="#373e35" stroke-width="2"/>
      <path id="Path_13987" data-name="Path 13987" d="M788.307,753.358c2.436,1.218,4.031,1.792,5.931,2.954,4.207,2.572,9.1,5.988,13.21,8.7,7.9,5.217,18.1,10.216,28.015,10.441" transform="translate(-775.221 -705.386)" fill="none" stroke="#373e35" stroke-width="2"/>
      <path id="Path_13988" data-name="Path 13988" d="M810.632,727.259c3.714-.052,8.477-.126,12.18-.348,8.7-.522,11.541-.551,19.489-.522" transform="translate(-788.324 -689.554)" fill="none" stroke="#373e35" stroke-width="2"/>
    </g>
  </g>
  <g id="Group_632" data-name="Group 632" transform="translate(63.663 70.263)">
    <g id="Group_631" data-name="Group 631" clip-path="url(#clip-path-2)">
      <path id="Path_13990" data-name="Path 13990" d="M301.539,777.287c8,7.08,9.436,21.17,19.693,26.531,4.939,2.581,6.777-3.485,6.181-7.5-.716-4.821-3.822-7.889-7.829-10.726C317.933,784.428,303.743,770.487,301.539,777.287Z" transform="translate(-301.539 -775.426)" fill="#e2e8d9"/>
      <path id="Path_13991" data-name="Path 13991" d="M310.219,780.738c.761,2.04,3.448,6.307,4.524,8.178,5.007,8.7,9.378,14.71,17.574,20.707" transform="translate(-306.633 -778.544)" fill="none" stroke="#343f34" stroke-width="2"/>
      <path id="Path_13992" data-name="Path 13992" d="M316.959,782.423a61.728,61.728,0,0,0,4.19,7.806c4.96,7.681,11.371,13.542,18.778,18.817" transform="translate(-310.589 -779.533)" fill="none" stroke="#343f34" stroke-width="2"/>
      <path id="Path_13993" data-name="Path 13993" d="M323.7,784.529a66.566,66.566,0,0,0,4.713,8c4.419,6.177,10.97,11.531,17.211,15.84" transform="translate(-314.544 -780.769)" fill="none" stroke="#343f34" stroke-width="2"/>
      <path id="Path_13994" data-name="Path 13994" d="M330.438,787.9a45.583,45.583,0,0,0,7.482,9.222,46.775,46.775,0,0,0,12.007,9.049" transform="translate(-318.5 -782.747)" fill="none" stroke="#343f34" stroke-width="2"/>
    </g>
  </g>
  <g id="Group_634" data-name="Group 634" transform="translate(69.919 0)">
    <g id="Group_633" data-name="Group 633" clip-path="url(#clip-path-3)">
      <path id="Path_13996" data-name="Path 13996" d="M316.682,616.693c3.816-2.635,9.539-3.583,13.954-5.39,6.109-2.5,16.005-4.132,22.618-4.939,13.3-1.621,20.918-1.4,32.469,1.205,3.883.874,20.038,3.831,21.04,8.048-22.559,2.5-45.387.456-68.041.439C332.879,616.052,325.109,614.37,316.682,616.693Z" transform="translate(-316.682 -605.338)" fill="#a6ad9c"/>
      <path id="Path_13997" data-name="Path 13997" d="M335.071,614.8a69.212,69.212,0,0,1,10.408-4.45c13.569-4.939,29.506-7.092,43.708-9.471" transform="translate(-327.475 -602.719)" fill="none" stroke="#343f34" stroke-width="2"/>
      <path id="Path_13998" data-name="Path 13998" d="M359.081,616.975c5.164-3.295,12.274-5.314,18.1-6.96,14.079-3.981,26.714-4.961,40.2-6.612" transform="translate(-341.566 -604.202)" fill="none" stroke="#343f34" stroke-width="2"/>
      <path id="Path_13999" data-name="Path 13999" d="M388.145,619.273a83.923,83.923,0,0,1,18.1-6.438c13.538-3.434,27.391-3.9,41.239-5.22" transform="translate(-358.624 -606.674)" fill="none" stroke="#343f34" stroke-width="2"/>
      <path id="Path_14000" data-name="Path 14000" d="M405.837,623.33c3.529-.716,8.037-2.79,11.759-3.734,15.126-3.836,30.828-4.83,46.359-5.663" transform="translate(-369.007 -610.383)" fill="none" stroke="#343f34" stroke-width="2"/>
      <path id="Path_14001" data-name="Path 14001" d="M435.744,628.2a91.977,91.977,0,0,1,17.923-4.35c10.867-1.685,21.564-1.761,32.539-1.914" transform="translate(-386.56 -615.08)" fill="none" stroke="#343f34" stroke-width="2"/>
    </g>
  </g>
  <g id="Group_636" data-name="Group 636" transform="translate(173.943 2.418)">
    <g id="Group_635" data-name="Group 635" clip-path="url(#clip-path-4)">
      <path id="Path_14003" data-name="Path 14003" d="M568.5,622.831a104.392,104.392,0,0,1,21.937-8.9c9.04-2.406,15.542-3.455,21.226-2.209-.5,3.308-.855,7.564-.061,9.654,1.288,3.386,3.087,6.6,5.367,8.558,4.495,3.858,10.064,7.763,2.417,10.427-10.223,3.562-24.58-1.424-29.322-3.613-6.955-3.21-12.133-7.429-18.432-11.3C570.245,624.589,570.148,625.007,568.5,622.831Z" transform="translate(-568.496 -611.192)" fill="url(#linear-gradient-3)"/>
      <path id="Path_14004" data-name="Path 14004" d="M570.535,629.9a89.767,89.767,0,0,1,56.2-14.268" transform="translate(-569.693 -613.629)" fill="none" stroke="#343f34" stroke-width="2"/>
      <path id="Path_14005" data-name="Path 14005" d="M573.905,638.541c4.012-4.118,10.875-7.521,16.008-9.745,9.786-4.239,21.4-6.09,32.017-6.438" transform="translate(-571.671 -617.745)" fill="none" stroke="#343f34" stroke-width="2"/>
      <path id="Path_14006" data-name="Path 14006" d="M587.384,642.7a52.891,52.891,0,0,1,14.965-8.178c9.966-3.957,20.735-5.335,31.5-6.264" transform="translate(-579.581 -621.206)" fill="none" stroke="#343f34" stroke-width="2"/>
      <path id="Path_14007" data-name="Path 14007" d="M597.914,650.673c12.528-10.092,28.189-12.18,36.89-13.572" transform="translate(-585.762 -626.398)" fill="none" stroke="#343f34" stroke-width="2"/>
      <path id="Path_14008" data-name="Path 14008" d="M605.5,659.053c1.037-2.044,6.446-5.477,8.179-6.439,9.2-5.108,18.793-6.96,28.015-8.352" transform="translate(-590.211 -630.601)" fill="none" stroke="#343f34" stroke-width="2"/>
      <path id="Path_14009" data-name="Path 14009" d="M618.133,667.229c3.113-3.43,7.79-5.351,11.9-7.221,8.925-4.059,21.162-6.178,28.47-7.744" transform="translate(-597.628 -635.298)" fill="none" stroke="#343f34" stroke-width="2"/>
      <path id="Path_14010" data-name="Path 14010" d="M633.3,671.532c1.869-2.37,8.548-5.131,10.962-6.09,8.725-3.466,16.618-5.143,25.927-6.439" transform="translate(-606.528 -639.253)" fill="none" stroke="#343f34" stroke-width="2"/>
      <path id="Path_14011" data-name="Path 14011" d="M647.619,677.32c2.5-1.987,8.893-4.263,11.832-5.22,7.48-2.436,12.519-3.046,20.359-3.828" transform="translate(-614.933 -644.692)" fill="none" stroke="#343f34" stroke-width="2"/>
      <path id="Path_14012" data-name="Path 14012" d="M611.815,663.731c1.508-.979,2.89-2.168,4.435-3.131,8.58-5.356,20.8-9.223,29.67-10.441" transform="translate(-593.92 -634.062)" fill="none" stroke="#343f34" stroke-width="2"/>
    </g>
  </g>
  <g id="Group_638" data-name="Group 638" transform="translate(181.813 63.272)">
    <g id="Group_637" data-name="Group 637" clip-path="url(#clip-path-5)">
      <path id="Path_14014" data-name="Path 14014" d="M587.549,774.03a113.512,113.512,0,0,0,22.944,9.443c9.491,2.629,17.852,4.318,22.382,2.734s-.348-8.792.039-10.979c.536-3.033,2.134-7.131,5.489-8,7-1.817,9.614-3.585,2.964-6.181-10.558-4.122-25.547-2.462-30.623-.392-7.445,3.037-13.039,7.126-19.809,10.845C589.448,772.316,589.356,771.9,587.549,774.03Z" transform="translate(-587.549 -758.503)" fill="url(#linear-gradient-4)"/>
      <path id="Path_14015" data-name="Path 14015" d="M600.863,792.111c2.074,1.918,10.083,5.332,12.7,6.264,10.266,3.654,19.466,5.258,30.1,6.438" transform="translate(-595.363 -778.228)" fill="none" stroke="#343f34" stroke-width="2"/>
      <path id="Path_14016" data-name="Path 14016" d="M610.13,787.056c12.317,7.813,27.345,10.266,41.588,12.181" transform="translate(-600.802 -775.261)" fill="none" stroke="#343f34" stroke-width="2"/>
      <path id="Path_14017" data-name="Path 14017" d="M618.975,781.159c2.768,1.406,5.7,3.229,8.526,4.524,9.4,4.308,19.239,5.83,29.407,7.308" transform="translate(-605.993 -771.8)" fill="none" stroke="#343f34" stroke-width="2"/>
      <path id="Path_14018" data-name="Path 14018" d="M631.191,774.841c1.74,1.914,6.648,4.282,8.874,5.22a74.28,74.28,0,0,0,23.665,5.569" transform="translate(-613.163 -768.092)" fill="none" stroke="#343f34" stroke-width="2"/>
      <path id="Path_14019" data-name="Path 14019" d="M643.828,770.628a39.574,39.574,0,0,0,9.918,5.22,66.86,66.86,0,0,0,18.1,3.828" transform="translate(-620.579 -765.619)" fill="none" stroke="#343f34" stroke-width="2"/>
      <path id="Path_14020" data-name="Path 14020" d="M661.1,769.365c6.2,5.065,15.236,5.756,22.795,6.786" transform="translate(-630.715 -764.878)" fill="none" stroke="#343f34" stroke-width="2"/>
      <path id="Path_14021" data-name="Path 14021" d="M675,764.731c1.746,1.688,5.237,3.169,7.308,3.828,4.955,1.578,11.311,2.088,15.313,2.436" transform="translate(-638.873 -762.158)" fill="none" stroke="#343f34" stroke-width="2"/>
      <path id="Path_14022" data-name="Path 14022" d="M689.32,763.046a25.159,25.159,0,0,0,5.394,2.61c4.846,1.4,9.625,1.455,14.616,1.914" transform="translate(-647.279 -761.169)" fill="none" stroke="#343f34" stroke-width="2"/>
    </g>
  </g>
  <path id="Path_14024" data-name="Path 14024" d="M156.991,725.941c-.763.33-2.224.459-2.456,1.226-.4,1.312,1.822,2.359,2.667,2.889,4.245,2.663,9.711,3.465,14.372,4.982,1.51.491,4.455.884,5.92,1.444.022-.933-3.015-2.107-3.629-2.765a23.753,23.753,0,0,0-8.1-5.25C162.71,727.188,160.241,726.15,156.991,725.941Z" transform="translate(-151.572 -676.12)" fill="#343f34"/>
  <path id="Path_14025" data-name="Path 14025" d="M147.826,656.292c6.848-9.517,29.469-21.624,40.073-25.794,15.541-6.112,35.457-10.051,51.033-12.231,27.453-3.842,51.409-1.647,78.446,4.639,30.547,7.1,55.83,24.352,87.3,26.992,12.86,1.079,17.478,5.961,17.478,12.912,0,3.175-.176,10.695-12.417,11.55-2.859.2-10.608,1.367-13.918,1.687-6.651.644-18.589,3.34-24.884,5.9-22.775,9.279-45.971,10.6-71.7,10.966-27.711.4-49.769,1.288-77.6-4.218-10.957-2.167-18.979-2.531-32.054-6.748-7.185-2.318-14.258-7.459-19.823-10.966C157.954,662.551,144.978,661.55,147.826,656.292Z" transform="translate(-147.428 -611.81)" fill="url(#linear-gradient-5)"/>
  <path id="Path_14026" data-name="Path 14026" d="M240.46,694.094c3.308,6.857,3.819,13.458,2.8,23.129" transform="translate(-202.029 -657.429)" fill="none" stroke="#343f34" stroke-width="2"/>
  <path id="Path_14027" data-name="Path 14027" d="M246.591,678.926c5.657,2.009,10.62,7.743,10.279,14.392-.368,7.182-4.516,17.954-10.279,22.557" transform="translate(-205.627 -648.527)" fill="none" stroke="#343f34" stroke-width="2"/>
  <circle id="Ellipse_52" data-name="Ellipse 52" cx="5.399" cy="5.399" r="5.399" transform="translate(18.684 33.932)" fill="#d8d898" stroke="#343f34" stroke-width="2"/>
  <ellipse id="Ellipse_53" data-name="Ellipse 53" cx="3.661" cy="3.677" rx="3.661" ry="3.677" transform="translate(20.517 35.636)" fill="#1c231c"/>
  <ellipse id="Ellipse_54" data-name="Ellipse 54" cx="1.821" cy="1.886" rx="1.821" ry="1.886" transform="translate(24.276 36.023)" fill="#fff"/>
  <path id="Path_14028" data-name="Path 14028" d="M279.2,706.579c4.634-2.811,9.938-4,15.211-5.113,2.806-.59,8.057-.985,8.181,1.15.194,3.372-2.661,8.14-4.6,10.226-2.909,3.127-4.985,2.812-9.2,1.534C279.772,711.644,275.5,708.823,279.2,706.579Z" transform="translate(-223.984 -661.481)" fill="url(#linear-gradient-6)"/>
  <g id="Group_640" data-name="Group 640" transform="translate(53.885 39.517)">
    <g id="Group_639" data-name="Group 639" clip-path="url(#clip-path-6)">
      <path id="Path_14029" data-name="Path 14029" d="M285.788,708.206c2.262-.87,3.673-1.576,5.5-2.1,8.419-2.4,16.06-2.641,24.779-3.3" transform="translate(-282.517 -702.063)" fill="none" stroke="#343f34" stroke-width="2"/>
      <path id="Path_14030" data-name="Path 14030" d="M315.488,710.409c-9.575-.8-19.1-.016-28.015,3.48,7.18-1.727,16.461-1.1,23.839,0" transform="translate(-283.506 -706.354)" fill="none" stroke="#343f34" stroke-width="2"/>
      <path id="Path_14031" data-name="Path 14031" d="M289.158,722.435a65.1,65.1,0,0,1,8,0c4.563.461,7.468.546,12.007,1.218" transform="translate(-284.494 -713.508)" fill="none" stroke="#343f34" stroke-width="2"/>
      <path id="Path_14032" data-name="Path 14032" d="M289.579,724.715a105.836,105.836,0,0,1,18.271,4" transform="translate(-284.742 -714.918)" fill="none" stroke="#343f34" stroke-width="2"/>
    </g>
  </g>
  <path id="Path_14034" data-name="Path 14034" d="M322.414,667.264c1.181-.143,3.981.266,4.316,1.59.5,1.976-1.655,2.495-3.336,2.767" transform="translate(-250.128 -641.666)" opacity="0.65" fill="url(#linear-gradient-7)"/>
  <path id="Path_14035" data-name="Path 14035" d="M369.527,651.225c1.181-.143,3.981.266,4.316,1.59.5,1.975-1.655,2.495-3.336,2.767" transform="translate(-277.778 -632.253)" opacity="0.65" fill="url(#linear-gradient-7)"/>
  <path id="Path_14036" data-name="Path 14036" d="M388.072,678.791c1.18-.143,3.981.266,4.316,1.59.5,1.975-1.654,2.495-3.335,2.766" transform="translate(-288.662 -648.432)" opacity="0.65" fill="url(#linear-gradient-7)"/>
  <path id="Path_14037" data-name="Path 14037" d="M418.645,686.309c1.18-.143,3.981.266,4.316,1.59.5,1.975-1.655,2.495-3.336,2.767" transform="translate(-306.606 -652.844)" opacity="0.65" fill="url(#linear-gradient-7)"/>
  <path id="Path_14038" data-name="Path 14038" d="M423.657,678.791c1.18-.143,3.981.266,4.316,1.59.5,1.975-1.655,2.495-3.336,2.766" transform="translate(-309.547 -648.432)" opacity="0.65" fill="url(#linear-gradient-7)"/>
  <path id="Path_14039" data-name="Path 14039" d="M485.866,658.189c1.188.046,3.889.894,4.01,2.255.18,2.03-2.03,2.2-3.733,2.2" transform="translate(-346.058 -636.356)" opacity="0.65" fill="url(#linear-gradient-12)"/>
  <path id="Path_14040" data-name="Path 14040" d="M511.863,700.391c1.188.046,3.888.895,4.009,2.255.18,2.03-2.029,2.2-3.732,2.2" transform="translate(-361.315 -661.125)" opacity="0.65" fill="url(#linear-gradient-13)"/>
  <path id="Path_14041" data-name="Path 14041" d="M540.56,682.835c1.189.046,3.889.894,4.01,2.255.18,2.03-2.03,2.2-3.732,2.2" transform="translate(-378.158 -650.821)" opacity="0.65" fill="url(#linear-gradient-14)"/>
  <path id="Path_14042" data-name="Path 14042" d="M574.66,664.6c1.188.046,3.888.894,4.009,2.255.18,2.03-2.029,2.2-3.732,2.2" transform="translate(-398.171 -640.121)" opacity="0.65" fill="url(#linear-gradient-15)"/>
  <path id="Path_14043" data-name="Path 14043" d="M635.676,691.492c1.188.046,3.888.894,4.009,2.255.18,2.03-2.029,2.2-3.732,2.2" transform="translate(-433.981 -655.902)" opacity="0.65" fill="url(#linear-gradient-16)"/>
  <path id="Path_14044" data-name="Path 14044" d="M645.5,696.146c1.188.046,3.888.894,4.009,2.255.18,2.03-2.03,2.2-3.732,2.2" transform="translate(-439.747 -658.633)" opacity="0.65" fill="url(#linear-gradient-17)"/>
</svg>
