<?xml version="1.0" encoding="utf-8"?>
<!-- Generator: Adobe Illustrator 25.4.1, SVG Export Plug-In . SVG Version: 6.00 Build 0)  -->
<svg version="1.1" id="Layer_1" xmlns="http://www.w3.org/2000/svg" xmlns:xlink="http://www.w3.org/1999/xlink" x="0px" y="0px"
	 viewBox="0 0 699.9 107.8" style="enable-background:new 0 0 699.9 107.8;" xml:space="preserve">
<style type="text/css">
	.st0{opacity:8.900000e-02;enable-background:new    ;}
	.st1{fill:#E8A720;}
	.st2{enable-background:new    ;}
	.st3{fill:#F6F6F4;}
</style>
<g id="Group_54" transform="translate(-1342.867 -958.109)">
	<g id="Group_37" transform="translate(1573 962)">
		<g id="Group_609" transform="translate(-230.133)">
			<path id="Path_13849" class="st0" d="M19.3,0.5l668.3,7.4c4.2,0,7.6,2.2,7.5,4.9l-2.3,81.9c-0.1,2.7-3.5,4.8-7.7,4.7L16.8,92.1
				c-4.2,0-7.6-2.2-7.5-4.9l2.3-82C11.7,2.6,15.1,0.5,19.3,0.5z"/>
			<path id="Rectangle_29" class="st1" d="M3,0h693.9c1.7,0,3,1.3,3,3v85.6c0,1.7-1.3,3-3,3H3c-1.7,0-3-1.3-3-3V3C0,1.3,1.3,0,3,0z"
				/>
		</g>
		<g class="st2">
			<path class="st3" d="M-171.8,57.5V30.7h-9.6v-5.4h25.6v5.4h-9.5v26.8H-171.8z"/>
			<path class="st3" d="M-148.1,57.5h-6.2V34.2h5.7v3.3c1-1.6,1.9-2.6,2.6-3.1s1.7-0.7,2.7-0.7c1.4,0,2.8,0.4,4.1,1.2l-1.9,5.4
				c-1-0.7-2-1-2.9-1c-0.9,0-1.6,0.2-2.2,0.7c-0.6,0.5-1.1,1.3-1.4,2.6c-0.3,1.2-0.5,3.9-0.5,7.8V57.5z"/>
			<path class="st3" d="M-139.5,34.2h6.6l5.6,16.6l5.4-16.6h6.4l-8.2,22.5l-1.5,4.1c-0.5,1.4-1.1,2.4-1.5,3.1
				c-0.5,0.7-1.1,1.3-1.7,1.7c-0.6,0.4-1.4,0.8-2.4,1c-0.9,0.2-2,0.4-3.2,0.4c-1.2,0-2.4-0.1-3.5-0.4l-0.5-4.8
				c1,0.2,1.8,0.3,2.6,0.3c1.4,0,2.5-0.4,3.2-1.3c0.7-0.8,1.2-1.9,1.6-3.2L-139.5,34.2z"/>
			<path class="st3" d="M-94.4,41.3l-5.6-1c0.6-2.3,1.7-3.9,3.3-5s3.8-1.6,6.9-1.6c2.8,0,4.8,0.3,6.2,1c1.3,0.7,2.3,1.5,2.8,2.5
				c0.5,1,0.8,2.8,0.8,5.5l-0.1,7.2c0,2.1,0.1,3.6,0.3,4.5c0.2,1,0.6,2,1.1,3.1h-6.1c-0.2-0.4-0.4-1-0.6-1.8
				c-0.1-0.4-0.2-0.6-0.2-0.7c-1.1,1-2.2,1.8-3.4,2.3c-1.2,0.5-2.5,0.8-3.8,0.8c-2.4,0-4.3-0.7-5.7-2c-1.4-1.3-2.1-3-2.1-4.9
				c0-1.3,0.3-2.5,0.9-3.5c0.6-1,1.5-1.8,2.6-2.4c1.1-0.5,2.8-1,4.9-1.4c2.9-0.5,4.9-1,6-1.5v-0.6c0-1.2-0.3-2-0.9-2.5
				c-0.6-0.5-1.7-0.8-3.3-0.8c-1.1,0-2,0.2-2.6,0.6C-93.5,39.4-94,40.2-94.4,41.3z M-86.1,46.3c-0.8,0.3-2,0.6-3.8,0.9
				c-1.7,0.4-2.8,0.7-3.4,1.1c-0.8,0.6-1.2,1.3-1.2,2.2c0,0.9,0.3,1.6,1,2.2s1.5,0.9,2.5,0.9c1.1,0,2.2-0.4,3.2-1.1
				c0.7-0.6,1.2-1.2,1.5-2c0.2-0.5,0.2-1.5,0.2-3V46.3z"/>
			<path class="st3" d="M-40.1,57.5h-5.7v-3.4c-1,1.3-2.1,2.3-3.4,3c-1.3,0.7-2.6,1-3.9,1c-2.7,0-5-1.1-6.9-3.2
				c-1.9-2.2-2.9-5.2-2.9-9c0-4,0.9-7,2.8-9c1.9-2.1,4.2-3.1,7.1-3.1c2.6,0,4.9,1.1,6.8,3.3V25.3h6.2V57.5z M-56.6,45.3
				c0,2.5,0.3,4.3,1,5.4c1,1.6,2.4,2.4,4.2,2.4c1.4,0,2.6-0.6,3.6-1.8c1-1.2,1.5-3,1.5-5.4c0-2.7-0.5-4.6-1.5-5.8
				c-1-1.2-2.2-1.8-3.7-1.8c-1.5,0-2.7,0.6-3.7,1.7C-56.1,41.3-56.6,43-56.6,45.3z"/>
			<path class="st3" d="M-34,31v-5.7h6.2V31H-34z M-34,57.5V34.2h6.2v23.3H-34z"/>
			<path class="st3" d="M-24.2,34.2h3.4v-1.8c0-2,0.2-3.4,0.6-4.4c0.4-1,1.2-1.8,2.3-2.4c1.1-0.6,2.5-0.9,4.3-0.9
				c1.8,0,3.5,0.3,5.2,0.8l-0.8,4.3c-1-0.2-1.9-0.4-2.8-0.4c-0.9,0-1.5,0.2-1.9,0.6c-0.4,0.4-0.6,1.2-0.6,2.4v1.6h4.6V39h-4.6v18.5
				h-6.2V39h-3.4V34.2z"/>
			<path class="st3" d="M-9.2,34.2h3.4v-1.8c0-2,0.2-3.4,0.6-4.4c0.4-1,1.2-1.8,2.3-2.4c1.1-0.6,2.5-0.9,4.3-0.9
				c1.8,0,3.5,0.3,5.2,0.8l-0.8,4.3c-1-0.2-1.9-0.4-2.8-0.4c-0.9,0-1.5,0.2-1.9,0.6c-0.4,0.4-0.6,1.2-0.6,2.4v1.6H5V39H0.4v18.5
				h-6.2V39h-3.4V34.2z"/>
			<path class="st3" d="M22,50.1l6.2,1c-0.8,2.3-2,4-3.7,5.2C22.7,57.4,20.6,58,18,58c-4.1,0-7.1-1.3-9-4c-1.5-2.1-2.3-4.8-2.3-8
				c0-3.9,1-6.9,3-9.1c2-2.2,4.6-3.3,7.7-3.3c3.5,0,6.2,1.1,8.2,3.4c2,2.3,3,5.8,2.9,10.5H13c0,1.8,0.5,3.3,1.5,4.3
				c1,1,2.1,1.5,3.6,1.5c1,0,1.8-0.3,2.4-0.8S21.7,51.2,22,50.1z M22.3,43.8c0-1.8-0.5-3.1-1.4-4.1c-0.9-0.9-1.9-1.4-3.2-1.4
				c-1.3,0-2.5,0.5-3.3,1.5s-1.3,2.3-1.3,4H22.3z"/>
			<path class="st3" d="M39.4,57.5h-6.2V34.2H39v3.3c1-1.6,1.9-2.6,2.6-3.1s1.7-0.7,2.7-0.7c1.4,0,2.8,0.4,4.1,1.2l-1.9,5.4
				c-1-0.7-2-1-2.9-1c-0.9,0-1.6,0.2-2.2,0.7c-0.6,0.5-1.1,1.3-1.4,2.6c-0.3,1.2-0.5,3.9-0.5,7.8V57.5z"/>
			<path class="st3" d="M64.5,50.1l6.2,1c-0.8,2.3-2,4-3.7,5.2c-1.7,1.2-3.8,1.8-6.4,1.8c-4.1,0-7.1-1.3-9-4c-1.5-2.1-2.3-4.8-2.3-8
				c0-3.9,1-6.9,3-9.1c2-2.2,4.6-3.3,7.7-3.3c3.5,0,6.2,1.1,8.2,3.4c2,2.3,3,5.8,2.9,10.5H55.5c0,1.8,0.5,3.3,1.5,4.3
				c1,1,2.1,1.5,3.6,1.5c1,0,1.8-0.3,2.4-0.8S64.2,51.2,64.5,50.1z M64.9,43.8c0-1.8-0.5-3.1-1.4-4.1c-0.9-0.9-1.9-1.4-3.2-1.4
				c-1.3,0-2.5,0.5-3.3,1.5s-1.3,2.3-1.3,4H64.9z"/>
			<path class="st3" d="M97.3,57.5h-6.2V45.6c0-2.5-0.1-4.1-0.4-4.9C90.4,40,90,39.4,89.4,39c-0.6-0.4-1.3-0.6-2.1-0.6
				c-1.1,0-2,0.3-2.9,0.9c-0.8,0.6-1.4,1.4-1.7,2.3c-0.3,1-0.5,2.8-0.5,5.4v10.6H76V34.2h5.7v3.4c2-2.6,4.6-4,7.7-4
				c1.4,0,2.6,0.2,3.7,0.7c1.1,0.5,2,1.1,2.6,1.9c0.6,0.8,1,1.6,1.2,2.6c0.2,1,0.3,2.4,0.3,4.2V57.5z"/>
			<path class="st3" d="M114.2,34.2v4.9H110v9.4c0,1.9,0,3,0.1,3.3c0.1,0.3,0.3,0.6,0.5,0.8c0.3,0.2,0.6,0.3,1,0.3
				c0.6,0,1.4-0.2,2.5-0.6l0.5,4.8c-1.4,0.6-3.1,0.9-4.9,0.9c-1.1,0-2.1-0.2-3-0.6c-0.9-0.4-1.5-0.9-2-1.5c-0.4-0.6-0.7-1.4-0.9-2.4
				c-0.1-0.7-0.2-2.2-0.2-4.4V39.1H101v-4.9h2.8v-4.6l6.2-3.6v8.2H114.2z"/>
			<path class="st3" d="M128.8,50.8l6.2-0.9c0.3,1.2,0.8,2.1,1.6,2.7c0.8,0.6,1.9,0.9,3.4,0.9c1.6,0,2.8-0.3,3.6-0.9
				c0.5-0.4,0.8-1,0.8-1.6c0-0.5-0.1-0.9-0.4-1.2c-0.3-0.3-1-0.6-2.1-0.8c-5-1.1-8.1-2.1-9.5-3c-1.8-1.3-2.8-3-2.8-5.3
				c0-2,0.8-3.7,2.4-5.1s4.1-2.1,7.4-2.1c3.2,0,5.6,0.5,7.1,1.6c1.6,1,2.6,2.6,3.2,4.6l-5.8,1.1c-0.2-0.9-0.7-1.6-1.4-2.1
				c-0.7-0.5-1.7-0.7-3-0.7c-1.6,0-2.8,0.2-3.5,0.7c-0.5,0.3-0.7,0.7-0.7,1.3c0,0.4,0.2,0.8,0.6,1.1c0.6,0.4,2.5,1,5.8,1.7
				c3.3,0.7,5.6,1.7,6.9,2.7c1.3,1.1,1.9,2.6,1.9,4.6c0,2.1-0.9,4-2.7,5.5c-1.8,1.5-4.4,2.3-7.9,2.3c-3.2,0-5.7-0.6-7.5-1.9
				C130.6,54.8,129.4,53,128.8,50.8z"/>
			<path class="st3" d="M160.4,57.5L153,34.2h6l4.4,15.3l4-15.3h6l3.9,15.3l4.5-15.3h6.1l-7.5,23.3h-5.9l-4-15l-4,15H160.4z"/>
			<path class="st3" d="M191,31v-5.7h6.2V31H191z M191,57.5V34.2h6.2v23.3H191z"/>
			<path class="st3" d="M203.1,34.2h5.7v3.2c2-2.5,4.5-3.7,7.3-3.7c1.5,0,2.8,0.3,3.9,0.9c1.1,0.6,2,1.5,2.7,2.8
				c1-1.2,2.1-2.2,3.3-2.8c1.2-0.6,2.5-0.9,3.8-0.9c1.7,0,3.2,0.3,4.4,1c1.2,0.7,2.1,1.7,2.7,3.1c0.4,1,0.6,2.6,0.6,4.8v14.9h-6.2
				V44.2c0-2.3-0.2-3.8-0.6-4.5c-0.6-0.9-1.5-1.3-2.6-1.3c-0.9,0-1.7,0.3-2.4,0.8c-0.8,0.5-1.3,1.3-1.6,2.3c-0.3,1-0.5,2.6-0.5,4.8
				v11.2h-6.2V44.7c0-2.3-0.1-3.7-0.3-4.4c-0.2-0.7-0.6-1.1-1-1.5c-0.5-0.3-1.1-0.5-1.9-0.5c-1,0-1.8,0.3-2.6,0.8s-1.3,1.3-1.6,2.2
				c-0.3,1-0.5,2.6-0.5,4.8v11.3h-6.2V34.2z"/>
			<path class="st3" d="M253.9,50.8l6.2-0.9c0.3,1.2,0.8,2.1,1.6,2.7c0.8,0.6,1.9,0.9,3.4,0.9c1.6,0,2.8-0.3,3.6-0.9
				c0.5-0.4,0.8-1,0.8-1.6c0-0.5-0.1-0.9-0.4-1.2c-0.3-0.3-1-0.6-2.1-0.8c-5-1.1-8.1-2.1-9.5-3c-1.8-1.3-2.8-3-2.8-5.3
				c0-2,0.8-3.7,2.4-5.1s4.1-2.1,7.4-2.1c3.2,0,5.6,0.5,7.1,1.6c1.6,1,2.6,2.6,3.2,4.6l-5.8,1.1c-0.2-0.9-0.7-1.6-1.4-2.1
				c-0.7-0.5-1.7-0.7-3-0.7c-1.6,0-2.8,0.2-3.5,0.7c-0.5,0.3-0.7,0.7-0.7,1.3c0,0.4,0.2,0.8,0.6,1.1c0.6,0.4,2.5,1,5.8,1.7
				c3.3,0.7,5.6,1.7,6.9,2.7c1.3,1.1,1.9,2.6,1.9,4.6c0,2.1-0.9,4-2.7,5.5c-1.8,1.5-4.4,2.3-7.9,2.3c-3.2,0-5.7-0.6-7.5-1.9
				C255.7,54.8,254.5,53,253.9,50.8z"/>
			<path class="st3" d="M294.6,50.1l6.2,1c-0.8,2.3-2,4-3.7,5.2c-1.7,1.2-3.8,1.8-6.4,1.8c-4.1,0-7.1-1.3-9-4
				c-1.5-2.1-2.3-4.8-2.3-8c0-3.9,1-6.9,3-9.1c2-2.2,4.6-3.3,7.7-3.3c3.5,0,6.2,1.1,8.2,3.4c2,2.3,3,5.8,2.9,10.5h-15.5
				c0,1.8,0.5,3.3,1.5,4.3c1,1,2.1,1.5,3.6,1.5c1,0,1.8-0.3,2.4-0.8S294.3,51.2,294.6,50.1z M295,43.8c0-1.8-0.5-3.1-1.4-4.1
				c-0.9-0.9-1.9-1.4-3.2-1.4c-1.3,0-2.5,0.5-3.3,1.5s-1.3,2.3-1.3,4H295z"/>
			<path class="st3" d="M306.1,57.5V25.3h6.2v32.2H306.1z"/>
			<path class="st3" d="M332.1,50.1l6.2,1c-0.8,2.3-2,4-3.7,5.2c-1.7,1.2-3.8,1.8-6.4,1.8c-4.1,0-7.1-1.3-9-4
				c-1.5-2.1-2.3-4.8-2.3-8c0-3.9,1-6.9,3-9.1c2-2.2,4.6-3.3,7.7-3.3c3.5,0,6.2,1.1,8.2,3.4c2,2.3,3,5.8,2.9,10.5h-15.5
				c0,1.8,0.5,3.3,1.5,4.3c1,1,2.1,1.5,3.6,1.5c1,0,1.8-0.3,2.4-0.8S331.8,51.2,332.1,50.1z M332.5,43.8c0-1.8-0.5-3.1-1.4-4.1
				c-0.9-0.9-1.9-1.4-3.2-1.4c-1.3,0-2.5,0.5-3.3,1.5s-1.3,2.3-1.3,4H332.5z"/>
			<path class="st3" d="M364,41.1l-6.1,1.1c-0.2-1.2-0.7-2.1-1.4-2.7c-0.7-0.6-1.7-0.9-2.8-0.9c-1.5,0-2.8,0.5-3.7,1.6
				c-0.9,1.1-1.4,2.8-1.4,5.3c0,2.8,0.5,4.7,1.4,5.9c0.9,1.1,2.2,1.7,3.7,1.7c1.2,0,2.1-0.3,2.9-1c0.7-0.7,1.3-1.8,1.6-3.4l6.1,1
				c-0.6,2.8-1.8,4.9-3.6,6.3s-4.2,2.1-7.2,2.1c-3.4,0-6.1-1.1-8.2-3.2c-2-2.2-3-5.1-3-8.9c0-3.9,1-6.9,3.1-9c2-2.1,4.8-3.2,8.3-3.2
				c2.8,0,5.1,0.6,6.8,1.8C362.1,36.7,363.3,38.6,364,41.1z"/>
			<path class="st3" d="M379.4,34.2v4.9h-4.2v9.4c0,1.9,0,3,0.1,3.3c0.1,0.3,0.3,0.6,0.5,0.8c0.3,0.2,0.6,0.3,1,0.3
				c0.6,0,1.4-0.2,2.5-0.6l0.5,4.8c-1.4,0.6-3.1,0.9-4.9,0.9c-1.1,0-2.1-0.2-3-0.6c-0.9-0.4-1.5-0.9-2-1.5c-0.4-0.6-0.7-1.4-0.9-2.4
				c-0.1-0.7-0.2-2.2-0.2-4.4V39.1h-2.8v-4.9h2.8v-4.6l6.2-3.6v8.2H379.4z"/>
			<path class="st3" d="M383.7,31v-5.7h6.2V31H383.7z M383.7,57.5V34.2h6.2v23.3H383.7z"/>
			<path class="st3" d="M394.7,45.5c0-2.1,0.5-4,1.5-6c1-1.9,2.4-3.4,4.3-4.4c1.9-1,3.9-1.5,6.2-1.5c3.5,0,6.4,1.1,8.7,3.4
				c2.3,2.3,3.4,5.2,3.4,8.7c0,3.5-1.1,6.5-3.4,8.8c-2.3,2.3-5.1,3.5-8.6,3.5c-2.1,0-4.2-0.5-6.1-1.5c-1.9-1-3.4-2.4-4.4-4.3
				C395.2,50.4,394.7,48.2,394.7,45.5z M401.1,45.8c0,2.3,0.5,4.1,1.6,5.3c1.1,1.2,2.5,1.8,4.1,1.8s3-0.6,4.1-1.8
				c1.1-1.2,1.6-3,1.6-5.4c0-2.3-0.5-4-1.6-5.3c-1.1-1.2-2.4-1.8-4.1-1.8s-3,0.6-4.1,1.8C401.6,41.7,401.1,43.5,401.1,45.8z"/>
			<path class="st3" d="M444.9,57.5h-6.2V45.6c0-2.5-0.1-4.1-0.4-4.9c-0.3-0.7-0.7-1.3-1.3-1.7c-0.6-0.4-1.3-0.6-2.1-0.6
				c-1.1,0-2,0.3-2.9,0.9c-0.9,0.6-1.4,1.4-1.7,2.3c-0.3,1-0.5,2.8-0.5,5.4v10.6h-6.2V34.2h5.7v3.4c2-2.6,4.6-4,7.7-4
				c1.4,0,2.6,0.2,3.7,0.7c1.1,0.5,2,1.1,2.6,1.9c0.6,0.8,1,1.6,1.2,2.6c0.2,1,0.3,2.4,0.3,4.2V57.5z"/>
		</g>
	</g>
</g>
</svg>
