<?xml version="1.0" encoding="utf-8"?>
<!-- Generator: Adobe Illustrator 25.4.1, SVG Export Plug-In . SVG Version: 6.00 Build 0)  -->
<svg version="1.1" id="Layer_1" xmlns="http://www.w3.org/2000/svg" xmlns:xlink="http://www.w3.org/1999/xlink" x="0px" y="0px"
	 viewBox="0 0 81.7 78" style="enable-background:new 0 0 81.7 78;" xml:space="preserve">
<style type="text/css">
	.st0{opacity:0.1;enable-background:new    ;}
	.st1{fill:#E8A720;}
	.st2{fill:#FFFFFF;}
</style>
<g id="Group_610" transform="translate(0.857)">
	<path id="Rectangle_137" class="st0" d="M22.9,2.1l37.9,2c11,0.6,19.5,10,18.9,21l-1.7,33c-0.6,11-10,19.5-21,18.9l-37.9-2
		c-11-0.6-19.5-10-18.9-21l1.7-33C2.5,10,11.9,1.5,22.9,2.1z"/>
	<path id="Rectangle_30" class="st1" d="M20,0h38c11,0,20,9,20,20v33c0,11-9,20-20,20H20C9,73,0,64,0,53V20C0,9,9,0,20,0z"/>
</g>
<polygon class="st2" points="63.3,18.5 57.8,13 39.9,31 21.9,13 16.4,18.5 34.3,36.5 16.4,54.5 21.9,60 39.9,42 57.8,60 63.3,54.5 
	45.4,36.5 "/>
</svg>
