<?xml version="1.0" encoding="utf-8"?>
<!-- Generator: Adobe Illustrator 25.4.1, SVG Export Plug-In . SVG Version: 6.00 Build 0)  -->
<svg version="1.1" id="Layer_1" xmlns="http://www.w3.org/2000/svg" xmlns:xlink="http://www.w3.org/1999/xlink" x="0px" y="0px"
	 viewBox="0 0 277.9 113.6" style="enable-background:new 0 0 277.9 113.6;" xml:space="preserve">
<style type="text/css">
	.st0{opacity:0.1;enable-background:new    ;}
	.st1{fill:#82BD55;}
	.st2{enable-background:new    ;}
	.st3{fill:#F6F6F4;}
</style>
<g id="Group_54" transform="translate(-1571.475 -961.812)">
	<g id="Group_37" transform="translate(1571.475 961.812)">
		<g id="Group_609" transform="translate(0 0)">
			<path id="Rectangle_136" class="st0" d="M28.6,0.9l224.2,7.9c13.8,0.5,24.6,12.1,24.1,25.8l-1.9,54
				c-0.5,13.8-12.1,24.6-25.8,24.1L25,104.8C11.2,104.4,0.4,92.8,0.9,79l1.9-54C3.2,11.2,14.8,0.4,28.6,0.9z"/>
			<path id="Rectangle_29" class="st1" d="M26.7,0.2h224.4c13.8,0,25,11.2,25,25v54.1c0,13.8-11.2,25-25,25H26.7
				c-13.8,0-25-11.2-25-25V25.2C1.7,11.4,12.9,0.2,26.7,0.2z"/>
		</g>
		<g class="st2">
			<path class="st3" d="M80.3,55.8l6.9-0.7c0.4,2.3,1.3,4,2.5,5.1c1.3,1.1,3,1.6,5.1,1.6c2.3,0,4-0.5,5.2-1.4c1.2-1,1.7-2.1,1.7-3.4
				c0-0.8-0.2-1.5-0.7-2.1c-0.5-0.6-1.3-1.1-2.5-1.5c-0.8-0.3-2.7-0.8-5.7-1.5c-3.8-0.9-6.5-2.1-8-3.5c-2.2-1.9-3.2-4.3-3.2-7.1
				c0-1.8,0.5-3.5,1.5-5c1-1.6,2.5-2.7,4.4-3.6c1.9-0.8,4.2-1.2,6.9-1.2c4.4,0,7.7,1,9.9,2.9c2.2,1.9,3.4,4.5,3.5,7.7l-7.1,0.3
				c-0.3-1.8-1-3.1-2-3.9c-1-0.8-2.5-1.2-4.5-1.2c-2.1,0-3.7,0.4-4.8,1.3c-0.8,0.5-1.1,1.3-1.1,2.2c0,0.8,0.4,1.5,1.1,2.1
				c0.9,0.7,3.1,1.5,6.5,2.3c3.4,0.8,6,1.7,7.6,2.5c1.7,0.9,2.9,2.1,3.9,3.6c0.9,1.5,1.4,3.4,1.4,5.6c0,2-0.6,3.9-1.7,5.6
				c-1.1,1.8-2.7,3.1-4.7,3.9c-2,0.9-4.6,1.3-7.6,1.3c-4.4,0-7.8-1-10.2-3.1C82.2,62.7,80.7,59.7,80.3,55.8z"/>
			<path class="st3" d="M126.4,41.8v5.4h-4.6v10.2c0,2.1,0,3.3,0.1,3.6c0.1,0.3,0.3,0.6,0.6,0.8c0.3,0.2,0.7,0.3,1.1,0.3
				c0.6,0,1.5-0.2,2.7-0.6l0.6,5.2c-1.6,0.7-3.3,1-5.3,1c-1.2,0-2.3-0.2-3.3-0.6c-1-0.4-1.7-0.9-2.1-1.6c-0.5-0.6-0.8-1.5-0.9-2.6
				c-0.1-0.8-0.2-2.4-0.2-4.7V47.1h-3.1v-5.4h3.1v-5l6.7-3.9v9H126.4z"/>
			<path class="st3" d="M136,49.5l-6.1-1.1c0.7-2.5,1.9-4.3,3.5-5.5s4.2-1.8,7.5-1.8c3,0,5.2,0.4,6.7,1.1c1.5,0.7,2.5,1.6,3.1,2.7
				c0.6,1.1,0.9,3.1,0.9,6l-0.1,7.8c0,2.2,0.1,3.9,0.3,4.9c0.2,1.1,0.6,2.2,1.2,3.4h-6.7c-0.2-0.4-0.4-1.1-0.6-2
				c-0.1-0.4-0.2-0.7-0.2-0.8c-1.1,1.1-2.4,2-3.7,2.5c-1.3,0.6-2.7,0.8-4.2,0.8c-2.6,0-4.7-0.7-6.2-2.1c-1.5-1.4-2.3-3.2-2.3-5.4
				c0-1.4,0.3-2.7,1-3.8c0.7-1.1,1.6-2,2.9-2.6c1.2-0.6,3-1.1,5.3-1.6c3.1-0.6,5.3-1.1,6.5-1.7v-0.7c0-1.3-0.3-2.2-1-2.8
				c-0.6-0.6-1.8-0.8-3.6-0.8c-1.2,0-2.1,0.2-2.8,0.7C137,47.5,136.5,48.3,136,49.5z M145,55c-0.9,0.3-2.2,0.6-4.1,1
				c-1.9,0.4-3.1,0.8-3.7,1.2c-0.9,0.6-1.3,1.4-1.3,2.4c0,0.9,0.4,1.8,1.1,2.4c0.7,0.7,1.6,1,2.7,1c1.2,0,2.4-0.4,3.5-1.2
				c0.8-0.6,1.3-1.3,1.6-2.2c0.2-0.6,0.3-1.7,0.3-3.3V55z"/>
			<path class="st3" d="M164.7,67.2H158V41.8h6.2v3.6c1.1-1.7,2-2.8,2.9-3.4s1.8-0.8,2.9-0.8c1.5,0,3,0.4,4.4,1.3l-2.1,5.9
				c-1.1-0.7-2.2-1.1-3.2-1.1c-0.9,0-1.7,0.3-2.4,0.8c-0.7,0.5-1.2,1.5-1.5,2.8c-0.4,1.4-0.6,4.2-0.6,8.5V67.2z"/>
			<path class="st3" d="M189,41.8v5.4h-4.6v10.2c0,2.1,0,3.3,0.1,3.6s0.3,0.6,0.6,0.8c0.3,0.2,0.7,0.3,1.1,0.3
				c0.6,0,1.5-0.2,2.7-0.6l0.6,5.2c-1.6,0.7-3.3,1-5.3,1c-1.2,0-2.3-0.2-3.3-0.6c-1-0.4-1.7-0.9-2.1-1.6c-0.5-0.6-0.8-1.5-0.9-2.6
				c-0.1-0.8-0.2-2.4-0.2-4.7V47.1h-3.1v-5.4h3.1v-5l6.7-3.9v9H189z"/>
		</g>
	</g>
</g>
</svg>
