<svg xmlns="http://www.w3.org/2000/svg" xmlns:xlink="http://www.w3.org/1999/xlink" width="329.268" height="136.491" viewBox="0 0 329.268 136.491">
  <defs>
    <clipPath id="clip-path">
      <path id="Path_14172" data-name="Path 14172" d="M1560.916,685.516c10.023-4.62,23.045-7.521,34.267-10.3a203.751,203.751,0,0,1,22.651-3.927c-3.052,12.331-18.3,17.635-7.442,35.586a92.2,92.2,0,0,1,4.8,9.494c-5.257-.111-14.267-2.355-21.2-4.6-9.188-2.974-17.7-7.31-26.105-11.628C1563.086,697.675,1552.6,692.188,1560.916,685.516Z" transform="translate(-1557.811 -671.284)" fill="none"/>
    </clipPath>
    <linearGradient id="linear-gradient" x1="-0.454" y1="0.5" x2="1.337" y2="0.5" gradientUnits="objectBoundingBox">
      <stop offset="0.157" stop-color="#e8bbba"/>
      <stop offset="0.169" stop-color="#dea4a0"/>
      <stop offset="0.187" stop-color="#d28880"/>
      <stop offset="0.207" stop-color="#c87266"/>
      <stop offset="0.228" stop-color="#c06052"/>
      <stop offset="0.252" stop-color="#bb5443"/>
      <stop offset="0.282" stop-color="#b74d3b"/>
      <stop offset="0.332" stop-color="#b74b39"/>
      <stop offset="0.406" stop-color="#ba5341"/>
      <stop offset="0.524" stop-color="#c36859"/>
      <stop offset="0.673" stop-color="#d18c7f"/>
      <stop offset="0.844" stop-color="#e5bdb4"/>
      <stop offset="0.861" stop-color="#e8c3ba"/>
    </linearGradient>
    <linearGradient id="linear-gradient-2" x1="0.511" y1="0.157" x2="0.489" y2="1.334" gradientUnits="objectBoundingBox">
      <stop offset="0.055" stop-color="#af3228"/>
      <stop offset="0.324" stop-color="#c66a3c"/>
      <stop offset="0.379" stop-color="#c87145"/>
      <stop offset="0.473" stop-color="#ce8360"/>
      <stop offset="0.593" stop-color="#d8a28c"/>
      <stop offset="0.692" stop-color="#e2bfb5"/>
    </linearGradient>
    <linearGradient id="linear-gradient-3" x1="-0.195" y1="0.5" x2="1.109" y2="0.5" gradientUnits="objectBoundingBox">
      <stop offset="0.015" stop-color="#e8bbba"/>
      <stop offset="0.03" stop-color="#dea4a0"/>
      <stop offset="0.051" stop-color="#d28880"/>
      <stop offset="0.074" stop-color="#c87266"/>
      <stop offset="0.099" stop-color="#c06052"/>
      <stop offset="0.128" stop-color="#bb5443"/>
      <stop offset="0.163" stop-color="#b74d3b"/>
      <stop offset="0.222" stop-color="#b74b39"/>
      <stop offset="0.305" stop-color="#ba5341"/>
      <stop offset="0.436" stop-color="#c36859"/>
      <stop offset="0.602" stop-color="#d18c7f"/>
      <stop offset="0.792" stop-color="#e5bdb4"/>
      <stop offset="0.811" stop-color="#e8c3ba"/>
    </linearGradient>
    <clipPath id="clip-path-2">
      <path id="Path_14232" data-name="Path 14232" d="M1126.688,693.123c3.318,3.535,12.172,5.923,17.208,7.53,10.6,3.384,19.281,6.347,30.694,6.737A45.921,45.921,0,0,0,1201,699.761c3.624-2.308,9.608-6.555,8.008-10.6-1.57-3.969-11.28-6.376-15.6-7.485-5.307-1.364-7.982-.533-13.237.352-7.529,1.268-12.092,2.378-24.635,2.377-6.18,0-15.653-3.418-21.406-1.592C1128.7,684.533,1125.434,689.31,1126.688,693.123Z" transform="translate(-1126.421 -680.953)" fill="none"/>
    </clipPath>
    <linearGradient id="linear-gradient-4" x1="0.407" y1="0.068" x2="0.702" y2="1.284" gradientUnits="objectBoundingBox">
      <stop offset="0.1" stop-color="#af3228"/>
      <stop offset="0.439" stop-color="#c66a3c"/>
      <stop offset="0.495" stop-color="#c87145"/>
      <stop offset="0.592" stop-color="#ce8360"/>
      <stop offset="0.715" stop-color="#d8a28c"/>
      <stop offset="0.817" stop-color="#e2bfb5"/>
    </linearGradient>
    <linearGradient id="linear-gradient-5" x1="0.002" y1="0.518" x2="0.993" y2="0.384" gradientUnits="objectBoundingBox">
      <stop offset="0" stop-color="#fff" stop-opacity="0"/>
      <stop offset="0.157" stop-color="#fefefe" stop-opacity="0.016"/>
      <stop offset="0.294" stop-color="#fcfbfa" stop-opacity="0.063"/>
      <stop offset="0.424" stop-color="#faf7f5" stop-opacity="0.145"/>
      <stop offset="0.548" stop-color="#f6f2ee" stop-opacity="0.259"/>
      <stop offset="0.67" stop-color="#f1ebe5" stop-opacity="0.408"/>
      <stop offset="0.789" stop-color="#ebe2da" stop-opacity="0.588"/>
      <stop offset="0.904" stop-color="#e3d7cc" stop-opacity="0.796"/>
      <stop offset="1" stop-color="#ddcec0"/>
    </linearGradient>
    <linearGradient id="linear-gradient-8" x1="-3.597" y1="-22.237" x2="-2.53" y2="-22.369" xlink:href="#linear-gradient-5"/>
    <linearGradient id="linear-gradient-9" x1="22.128" y1="-28.858" x2="23.333" y2="-29.003" xlink:href="#linear-gradient-5"/>
    <linearGradient id="linear-gradient-10" x1="22.323" y1="-29.109" x2="23.528" y2="-29.255" xlink:href="#linear-gradient-5"/>
    <linearGradient id="linear-gradient-11" x1="23.028" y1="-29.687" x2="24.232" y2="-29.832" xlink:href="#linear-gradient-5"/>
  </defs>
  <g id="Group_733" data-name="Group 733" transform="translate(0 2.12)">
    <path id="Path_14150" data-name="Path 14150" d="M1171.3,579.769c1.049-6.1,3.674-14.119,5.8-20.654.737-2.26,2.222-6,3.291-6.934.775-.68,1.955-.83,2.864-1.643a27.316,27.316,0,0,0,3.468-4.591c1.218-1.733,2.92-6.369,5.738-5.681a29.844,29.844,0,0,0,3.554,11.4c2.468,4.307,6.845,11,9.385,15.2,2.565,4.245,6.878,16.334-1.7,18.626-3.09.826-7.752.687-10.885.515a101.89,101.89,0,0,1-13.032-1.368C1177.652,584.242,1172.687,583.14,1171.3,579.769Z" transform="translate(-1092.104 -537.468)" fill="#e2c0bf"/>
    <path id="Path_14151" data-name="Path 14151" d="M1202.95,553.714c-.916,2.855.092,1.5,2.091,1.712,2.77.292,1.259,3.059,1.825,4.853.388,1.228.941,1.03,1.833,1.752a5.744,5.744,0,0,1,1.594,2.62c.891,1.931,2.938,1.542,3.875,3.711a29.828,29.828,0,0,0,2.371,3.827c.995,1.658,2.236,1.679,1.574-.5-.3-.988-1.152-1.52-1.573-2.34s-.238-1.774-.653-2.554c-.53-.995-1.534-1.085-2.163-1.986-.662-.948-.387-2.257-1.431-2.943-1.446-.951-1.323.3-2.043-1.625a15.43,15.43,0,0,0-1.53-2.463c-1.256-2.3.731-4.654-2.933-4.557C1205.921,549.767,1202.774,552.891,1202.95,553.714Z" transform="translate(-1108.021 -543.279)" fill="#bf311f"/>
    <path id="Path_14152" data-name="Path 14152" d="M1177.59,584.488c-.385.7-1.22,2.191-.763,2.967,1,1.7,2.554-1.216,3.719-.919,1.044.266.611,1.253.818,2.167.534,2.36,2,2.216,3.66.936.707-.544,3.013-3.075,4.26-2.322,1.121.677.08,2.517.644,3.549,1.36,2.484,4.667-1.232,6.724.677.85.789.712,1.732,2.064,2.135,1.279.382,2.3-.557,3.5-.026,1.844.813,1.553,2.326,3.848,1.812.982-.22,2.926-1.366,1.722-2.581-.3-.3-1.049-.06-1.429-.083-2.087-.126-1.007.394-1.75-1.66-1.115-3.087-4.678-.755-6.161-2.967-.834-1.245-.468-3.176-2.019-3.776-1.189-.46-2.717.363-3.972.234-.75-2.459-.206-6.987-3.93-7.189-2.747-.149-3.691,3.6-5.75,4.837C1182.079,578.831,1177.9,583.168,1177.59,584.488Z" transform="translate(-1094.848 -556.397)" fill="#bf311f"/>
    <g id="Group_655" data-name="Group 655" transform="translate(79.583 0)">
      <path id="Path_14153" data-name="Path 14153" d="M1172.091,587.956c.058-4.458,2.07-10.054,3.548-14.191a115,115,0,0,1,5.654-13.415" transform="translate(-1172.091 -547.711)" fill="none" stroke="#ce6245" stroke-linecap="round" stroke-linejoin="round" stroke-width="3"/>
      <path id="Path_14154" data-name="Path 14154" d="M1178.855,575.667c1.207-9.053,4.443-17.2,8.2-25.389a42.821,42.821,0,0,1,4.1-7.1,90.009,90.009,0,0,1,6.874-8.537" transform="translate(-1175.529 -534.646)" fill="none" stroke="#ce6245" stroke-linecap="round" stroke-linejoin="round" stroke-width="3"/>
      <path id="Path_14155" data-name="Path 14155" d="M1186.972,583.319a77.679,77.679,0,0,1,3.991-14.08c2.784-6.551,7.408-16.294,12.861-21.065" transform="translate(-1179.655 -541.522)" fill="none" stroke="#ce6245" stroke-linecap="round" stroke-linejoin="round" stroke-width="3"/>
      <path id="Path_14156" data-name="Path 14156" d="M1195.766,590.191c3.215-11.419,7.613-20.883,14.634-28.714" transform="translate(-1184.125 -548.284)" fill="none" stroke="#ce6245" stroke-linecap="round" stroke-linejoin="round" stroke-width="3"/>
      <path id="Path_14157" data-name="Path 14157" d="M1205.687,596.129c3.215-10.754,8.315-19.18,12.75-24.28" transform="translate(-1189.167 -553.556)" fill="none" stroke="#ce6245" stroke-linecap="round" stroke-linejoin="round" stroke-width="3"/>
      <path id="Path_14158" data-name="Path 14158" d="M1214.931,602.613a28.574,28.574,0,0,1,2.661-7.65,57.928,57.928,0,0,1,8.537-13.193" transform="translate(-1193.866 -558.599)" fill="none" stroke="#ce6245" stroke-linecap="round" stroke-linejoin="round" stroke-width="3"/>
      <path id="Path_14159" data-name="Path 14159" d="M1223.5,606.631c1.843-5.977,5.9-11.694,9.756-16.52" transform="translate(-1198.221 -562.839)" fill="none" stroke="#ce6245" stroke-linecap="round" stroke-linejoin="round" stroke-width="3"/>
      <path id="Path_14160" data-name="Path 14160" d="M1232.969,612.136a64.5,64.5,0,0,1,6.763-10.976" transform="translate(-1203.034 -568.454)" fill="none" stroke="#ce6245" stroke-linecap="round" stroke-linejoin="round" stroke-width="3"/>
      <path id="Path_14161" data-name="Path 14161" d="M1241.988,617.175a22.416,22.416,0,0,1,3.548-6.319" transform="translate(-1207.619 -573.383)" fill="none" stroke="#ce6245" stroke-linecap="round" stroke-linejoin="round" stroke-width="3"/>
    </g>
    <g id="Group_657" data-name="Group 657" transform="translate(269.246 67.186)">
      <g id="Group_656" data-name="Group 656" clip-path="url(#clip-path)">
        <path id="Path_14162" data-name="Path 14162" d="M1560.916,685.516c10.023-4.62,23.045-7.521,34.267-10.3a203.751,203.751,0,0,1,22.651-3.927c-3.052,12.331-18.3,17.635-7.442,35.586a92.2,92.2,0,0,1,4.8,9.494c-5.257-.111-14.267-2.355-21.2-4.6-9.188-2.974-17.7-7.31-26.105-11.628C1563.086,697.675,1552.6,692.188,1560.916,685.516Z" transform="translate(-1557.811 -671.284)" fill="url(#linear-gradient)"/>
        <path id="Path_14163" data-name="Path 14163" d="M1572.368,689.5a118.353,118.353,0,0,1,14.467-5.271c7.239-2.287,14.583-3.561,22-5.174a100.6,100.6,0,0,1,21.441-2.291" transform="translate(-1565.21 -674.067)" fill="none" stroke="#bf311f" stroke-linecap="round" stroke-linejoin="round" stroke-width="3"/>
        <path id="Path_14164" data-name="Path 14164" d="M1580.567,695.882c4.307-1.924,11.635-3.7,16.4-4.765,12.914-2.9,23.547-4.948,37.383-5.039" transform="translate(-1569.378 -678.804)" fill="none" stroke="#bf311f" stroke-linecap="round" stroke-linejoin="round" stroke-width="3"/>
        <path id="Path_14165" data-name="Path 14165" d="M1585.785,703.306c3.39-1.466,8.9-2.368,13.258-3.039a241.05,241.05,0,0,1,33.38-3.008" transform="translate(-1572.03 -684.486)" fill="none" stroke="#bf311f" stroke-linecap="round" stroke-linejoin="round" stroke-width="3"/>
        <path id="Path_14166" data-name="Path 14166" d="M1587.276,710.562a7.054,7.054,0,0,1,2.974-.917,79.749,79.749,0,0,1,10.76-1.464c9.806-.763,20.058-1.463,29.88-1.009" transform="translate(-1572.788 -689.452)" fill="none" stroke="#bf311f" stroke-linecap="round" stroke-linejoin="round" stroke-width="3"/>
        <path id="Path_14167" data-name="Path 14167" d="M1592.68,715.331a9.99,9.99,0,0,1,1.087.088c3.036.187,6.272.291,9.175.37,10.079.275,20.357.15,29.6.091" transform="translate(-1575.535 -693.671)" fill="none" stroke="#bf311f" stroke-linecap="round" stroke-linejoin="round" stroke-width="3"/>
        <path id="Path_14168" data-name="Path 14168" d="M1590.444,718.5c.084.142.588.275.93.382a64.283,64.283,0,0,0,10.248,2,211.151,211.151,0,0,0,29.321,1.374" transform="translate(-1574.398 -695.284)" fill="none" stroke="#bf311f" stroke-linecap="round" stroke-linejoin="round" stroke-width="3"/>
        <path id="Path_14169" data-name="Path 14169" d="M1583.735,719.992c5.053,2.167,10.734,3.5,16.054,4.769a103.748,103.748,0,0,0,28.659,2.653" transform="translate(-1570.988 -696.042)" fill="none" stroke="#bf311f" stroke-linecap="round" stroke-linejoin="round" stroke-width="3"/>
        <path id="Path_14170" data-name="Path 14170" d="M1577.213,720.737a13.493,13.493,0,0,0,3.09,1.66,94.694,94.694,0,0,0,11.28,4.525,154.964,154.964,0,0,0,18.157,4.81,131.346,131.346,0,0,0,16.767,2.108" transform="translate(-1567.673 -696.42)" fill="none" stroke="#bf311f" stroke-linecap="round" stroke-linejoin="round" stroke-width="3"/>
        <path id="Path_14171" data-name="Path 14171" d="M1571.25,722.973a15.7,15.7,0,0,1,3.109,1.507c4.637,2.165,9.628,5.2,14.483,6.831,5.653,1.905,10.878,3.834,16.584,5.589,5.223,1.606,12.577,2.342,17.959,3.3" transform="translate(-1564.642 -697.557)" fill="none" stroke="#bf311f" stroke-linecap="round" stroke-linejoin="round" stroke-width="3"/>
      </g>
    </g>
    <path id="Path_14173" data-name="Path 14173" d="M1263.675,618.567a47.3,47.3,0,0,1,9.691-7.4c2.968-1.74,8.273-4.691,8.273-4.691s10.931,1.247,15.938,2.455c8.709,2.1,18.818,4.546,27.458,6.969,15.236,4.272,19.964,6.2,33.485,11.039,7.481,2.68,10.143,3.261,12.513,4.214,0,0-4.188,3.548-5.544,4.585-4.848,3.709-5.67,4.043-9.684,6.952-3.468,2.514-8.221,3.051-12.811,1.887-16.271-4.125-31.766-11.286-48.378-14.41-5.551-1.044-12.284-.885-17.561-2.8-2.41-.874-4.7-2.463-7.037-3.537C1266.628,622.279,1265.441,622.6,1263.675,618.567Z" transform="translate(-1139.059 -571.158)" fill="#e2c0bf"/>
    <path id="Path_14174" data-name="Path 14174" d="M1292.973,610.5c-1.071.293-3.412.667-4.027,1.753-1.4,2.478,4.389.556,5.6.934,1.457.457.577.865,1.32,1.614,1.078,1.088,2.768.867,4.154.854,1.325-.012,2.969-.452,4.2.157,1.116.55,1.078,1.43,2.211,2.037,1.75.938,4.3.388,6.2.462,1.965.077,2.186.552,3.6,1.531,1.791,1.237,4.2.425,6.18.354,2.4-.086,3.37.565,5.26,1.746,2.236,1.4,4.919.823,7.415,1.362,2.558.552,2.883,2.025,4.9,3.3,1.793,1.135,4.227.83,6.256,1.075a10.366,10.366,0,0,1,3.23.618c.8.413,1.192,1.136,1.948,1.619,3.481,2.226,8.605.171,12.021,2.88,1.519,1.2,2.285,2.117,4.408,2.362,1.9.219,3.331-.1,4.995.958,1.913,1.212,3.415,2.217,5.747,1.062,3.067-1.518.648-2.664-1.536-2.972a16.76,16.76,0,0,1-4.39-.882c-1.574-.73-2.357-1.889-4.254-2.176-1.987-.3-3.7.1-5.292-1.118a7.152,7.152,0,0,0-4.525-1.839c-2.074-.247-3.516-.311-5.151-1.679-1.68-1.405-2.449-2.093-4.832-2.236-2.422-.145-4.069.076-5.944-1.277-2.077-1.5-3.473-1.4-6.052-1.6-1.972-.148-2.943-1.176-4.687-1.753-2.118-.7-5.084.557-7-.708-.6-.393-.557-1.107-1.044-1.428-.9-.6-2.171-.393-3.185-.454a8.9,8.9,0,0,1-3.646-.553c-.747-.394-1.2-1.184-1.966-1.606-2.76-1.517-6.274.675-8.926-.631-.731-.359-1.019-1.061-1.771-1.443-1.073-.544-2.374-.268-3.538-.3-2.441-.058-2.717-1.238-4.666-1.85-1.313-.413-3.391-.1-4.78.007C1291.462,610.9,1291.555,610.733,1292.973,610.5Z" transform="translate(-1151.793 -573.188)" fill="#bf311f"/>
    <g id="Group_658" data-name="Group 658" transform="translate(125.97 34.559)">
      <path id="Path_14175" data-name="Path 14175" d="M1266.429,616.453a9.723,9.723,0,0,0,2.231-1.619c1.506-1.138,3.04-2.177,4.574-3.274a125.348,125.348,0,0,1,10.725-6.63" transform="translate(-1266.429 -604.93)" fill="none" stroke="#ce6245" stroke-linecap="round" stroke-linejoin="round" stroke-width="3"/>
      <path id="Path_14176" data-name="Path 14176" d="M1277.655,617.691c-.109.133-.2.081-.236.229a44.9,44.9,0,0,0,4.894-3.662,93.429,93.429,0,0,1,12.871-8.581" transform="translate(-1272.015 -605.31)" fill="none" stroke="#ce6245" stroke-linecap="round" stroke-linejoin="round" stroke-width="3"/>
      <path id="Path_14177" data-name="Path 14177" d="M1289.615,619.542c4.859-4.964,12.5-9.562,18.266-13.117" transform="translate(-1278.214 -605.69)" fill="none" stroke="#ce6245" stroke-linecap="round" stroke-linejoin="round" stroke-width="3"/>
      <path id="Path_14178" data-name="Path 14178" d="M1300.834,622.289a98.477,98.477,0,0,1,18.634-12.872" transform="translate(-1283.917 -607.211)" fill="none" stroke="#ce6245" stroke-linecap="round" stroke-linejoin="round" stroke-width="3"/>
      <path id="Path_14179" data-name="Path 14179" d="M1311.3,625.535c6.077-4.32,12-9.14,18.634-12.627" transform="translate(-1289.239 -608.985)" fill="none" stroke="#ce6245" stroke-linecap="round" stroke-linejoin="round" stroke-width="3"/>
      <path id="Path_14180" data-name="Path 14180" d="M1325.766,627.275a47.772,47.772,0,0,1,6.2-5.093,93.9,93.9,0,0,1,11.948-7.779" transform="translate(-1296.589 -609.745)" fill="none" stroke="#ce6245" stroke-linecap="round" stroke-linejoin="round" stroke-width="3"/>
      <path id="Path_14181" data-name="Path 14181" d="M1337.234,629.773c2.058-1.411,4.2-3.436,6.252-4.9,4.289-3.068,6.9-4.992,11.4-7.723" transform="translate(-1302.418 -611.139)" fill="none" stroke="#ce6245" stroke-linecap="round" stroke-linejoin="round" stroke-width="3"/>
      <path id="Path_14182" data-name="Path 14182" d="M1349.949,632.388c.748-1.206,2.942-2.657,4.168-3.555,4.28-3.135,8.214-6.5,13.117-9.194" transform="translate(-1308.881 -612.406)" fill="none" stroke="#ce6245" stroke-linecap="round" stroke-linejoin="round" stroke-width="3"/>
      <path id="Path_14183" data-name="Path 14183" d="M1369.894,639.128c2.084-1.594,3.74-2.981,5.517-4.291a117.948,117.948,0,0,1,11.891-7.968" transform="translate(-1319.019 -616.081)" fill="none" stroke="#ce6245" stroke-linecap="round" stroke-linejoin="round" stroke-width="3"/>
      <path id="Path_14184" data-name="Path 14184" d="M1382.609,642.361a30.355,30.355,0,0,1,4.291-4.045,131.969,131.969,0,0,1,12.871-8.7" transform="translate(-1325.482 -617.475)" fill="none" stroke="#ce6245" stroke-linecap="round" stroke-linejoin="round" stroke-width="3"/>
      <path id="Path_14185" data-name="Path 14185" d="M1393.08,645.614c5.009-4.87,10.554-8.282,16.427-12.014" transform="translate(-1330.804 -619.503)" fill="none" stroke="#ce6245" stroke-linecap="round" stroke-linejoin="round" stroke-width="3"/>
      <path id="Path_14186" data-name="Path 14186" d="M1402.3,649.73c.01-.694,1.748-1.969,2.179-2.352,3.863-3.437,10.146-7.186,14.739-9.539" transform="translate(-1335.493 -621.657)" fill="none" stroke="#ce6245" stroke-linecap="round" stroke-linejoin="round" stroke-width="3"/>
      <path id="Path_14187" data-name="Path 14187" d="M1415.019,652.971c.3-1.216,2.352-2.4,3.231-3.127a72.941,72.941,0,0,1,13.441-8.764" transform="translate(-1341.956 -623.305)" fill="none" stroke="#ce6245" stroke-linecap="round" stroke-linejoin="round" stroke-width="3"/>
      <path id="Path_14188" data-name="Path 14188" d="M1425.241,655.6a20.039,20.039,0,0,1,4.891-4.161,102.847,102.847,0,0,1,12.149-7.362" transform="translate(-1347.151 -624.825)" fill="none" stroke="#ce6245" stroke-linecap="round" stroke-linejoin="round" stroke-width="3"/>
      <path id="Path_14189" data-name="Path 14189" d="M1435.712,658.481a19.059,19.059,0,0,1,3.244-2.567,113.812,113.812,0,0,1,13.183-7.853" transform="translate(-1352.474 -626.853)" fill="none" stroke="#ce6245" stroke-linecap="round" stroke-linejoin="round" stroke-width="3"/>
      <path id="Path_14190" data-name="Path 14190" d="M1447.679,661.983a60.646,60.646,0,0,0,5.394-3.432c3.526-2.244,6.007-3.923,9.93-6.252" transform="translate(-1358.556 -629.007)" fill="none" stroke="#ce6245" stroke-linecap="round" stroke-linejoin="round" stroke-width="3"/>
      <path id="Path_14191" data-name="Path 14191" d="M1459.147,665.478c1.145-.928,2.5-1.683,3.74-2.515,3.371-2.266,5.809-4.5,8.888-6.924" transform="translate(-1364.385 -630.908)" fill="none" stroke="#ce6245" stroke-linecap="round" stroke-linejoin="round" stroke-width="3"/>
      <path id="Path_14192" data-name="Path 14192" d="M1359.672,635.633c4.9-4.205,11.642-9.358,17.653-12.5" transform="translate(-1313.823 -614.18)" fill="none" stroke="#ce6245" stroke-linecap="round" stroke-linejoin="round" stroke-width="3"/>
    </g>
    <path id="Path_14193" data-name="Path 14193" d="M1288.113,722.185c3.137,4.863,7.529,12.766,7.529,12.766s9.038,2.226,12.549,2.736c6.275.912,10.232.786,15.059,1.216,7.3.651,14.452-.138,21.647-.608a127.985,127.985,0,0,0,18.51-2.432c8.093-1.9,16.139-2.473,22.275-7.6-2.2-3.039-6.244-8.488-9.419-12.163-3.544-4.1-8.725-3.644-14.1-3.648-18.869-.013-37.611,2.5-56.113,5.72-3.834.666-7.648.9-11.438,1.809C1292.908,720.39,1288.445,722.129,1288.113,722.185Z" transform="translate(-1151.481 -625.016)" fill="#e2c0bf"/>
    <g id="Group_659" data-name="Group 659" transform="translate(138.776 94.154)">
      <path id="Path_14194" data-name="Path 14194" d="M1292.474,739.2c2.225,3.435,4.23,7.187,6.175,10.839" transform="translate(-1292.474 -732.772)" fill="none" stroke="#ce6245" stroke-linecap="round" stroke-linejoin="round" stroke-width="3"/>
      <path id="Path_14195" data-name="Path 14195" d="M1301.189,736.893a59.031,59.031,0,0,0,6.3,12.856" transform="translate(-1296.904 -731.6)" fill="none" stroke="#ce6245" stroke-linecap="round" stroke-linejoin="round" stroke-width="3"/>
      <path id="Path_14196" data-name="Path 14196" d="M1308.366,735.356a51.334,51.334,0,0,0,7.31,14.62" transform="translate(-1300.552 -730.818)" fill="none" stroke="#ce6245" stroke-linecap="round" stroke-linejoin="round" stroke-width="3"/>
      <path id="Path_14197" data-name="Path 14197" d="M1317.337,734.587c1.556,5.454,5.293,11.721,7.814,15.88" transform="translate(-1305.112 -730.427)" fill="none" stroke="#ce6245" stroke-linecap="round" stroke-linejoin="round" stroke-width="3"/>
      <path id="Path_14198" data-name="Path 14198" d="M1326.308,734.074a68.327,68.327,0,0,0,8.823,16.889" transform="translate(-1309.671 -730.167)" fill="none" stroke="#ce6245" stroke-linecap="round" stroke-linejoin="round" stroke-width="3"/>
      <path id="Path_14199" data-name="Path 14199" d="M1336.561,733.3a36.27,36.27,0,0,0,2.217,5.3,78.485,78.485,0,0,0,6.858,12.216" transform="translate(-1314.883 -729.776)" fill="none" stroke="#ce6245" stroke-linecap="round" stroke-linejoin="round" stroke-width="3"/>
      <path id="Path_14200" data-name="Path 14200" d="M1346.3,732.792a40.557,40.557,0,0,0,2.143,5.42,74.373,74.373,0,0,0,7.184,11.974" transform="translate(-1319.834 -729.515)" fill="none" stroke="#ce6245" stroke-linecap="round" stroke-linejoin="round" stroke-width="3"/>
      <path id="Path_14201" data-name="Path 14201" d="M1356,733.249c-.267-.433.874,1.855,1.009,2.14a135.758,135.758,0,0,0,8.948,15.631" transform="translate(-1324.743 -729.72)" fill="none" stroke="#ce6245" stroke-linecap="round" stroke-linejoin="round" stroke-width="3"/>
      <path id="Path_14202" data-name="Path 14202" d="M1365.782,732.792c2.1,6.2,6.423,12.742,10.335,17.9" transform="translate(-1329.735 -729.515)" fill="none" stroke="#ce6245" stroke-linecap="round" stroke-linejoin="round" stroke-width="3"/>
      <path id="Path_14203" data-name="Path 14203" d="M1375.522,731.254a32.385,32.385,0,0,0,2.521,6.05,75.408,75.408,0,0,0,7.562,12.225" transform="translate(-1334.686 -728.733)" fill="none" stroke="#ce6245" stroke-linecap="round" stroke-linejoin="round" stroke-width="3"/>
      <path id="Path_14204" data-name="Path 14204" d="M1385.518,731.511a115.3,115.3,0,0,0,9.957,17.771" transform="translate(-1339.767 -728.864)" fill="none" stroke="#ce6245" stroke-linecap="round" stroke-linejoin="round" stroke-width="3"/>
      <path id="Path_14205" data-name="Path 14205" d="M1395.515,730.485c1.992,6.135,6.316,12.511,10.083,17.645" transform="translate(-1344.849 -728.343)" fill="none" stroke="#ce6245" stroke-linecap="round" stroke-linejoin="round" stroke-width="3"/>
      <path id="Path_14206" data-name="Path 14206" d="M1406.024,729.46a24.173,24.173,0,0,0,2.142,5.672,70.161,70.161,0,0,0,7.563,11.721" transform="translate(-1350.19 -727.822)" fill="none" stroke="#ce6245" stroke-linecap="round" stroke-linejoin="round" stroke-width="3"/>
      <path id="Path_14207" data-name="Path 14207" d="M1415.764,729.716a63.5,63.5,0,0,0,9.074,16.259" transform="translate(-1355.141 -727.952)" fill="none" stroke="#ce6245" stroke-linecap="round" stroke-linejoin="round" stroke-width="3"/>
      <path id="Path_14208" data-name="Path 14208" d="M1423.966,728.948c1.962,5.707,5.672,11.091,9.453,16.006" transform="translate(-1359.31 -727.561)" fill="none" stroke="#ce6245" stroke-linecap="round" stroke-linejoin="round" stroke-width="3"/>
      <path id="Path_14209" data-name="Path 14209" d="M1431.4,728.435a23.954,23.954,0,0,0,1.86,3.53,55.709,55.709,0,0,0,8.349,11.847" transform="translate(-1363.088 -727.301)" fill="none" stroke="#ce6245" stroke-linecap="round" stroke-linejoin="round" stroke-width="3"/>
      <path id="Path_14210" data-name="Path 14210" d="M1440.115,729.2a84.851,84.851,0,0,0,9.453,14.242" transform="translate(-1367.518 -727.691)" fill="none" stroke="#ce6245" stroke-linecap="round" stroke-linejoin="round" stroke-width="3"/>
      <path id="Path_14211" data-name="Path 14211" d="M1448.573,727.922a10.635,10.635,0,0,0,1.53,3.147,73.387,73.387,0,0,0,8.175,10.969" transform="translate(-1371.817 -727.04)" fill="none" stroke="#ce6245" stroke-linecap="round" stroke-linejoin="round" stroke-width="3"/>
      <path id="Path_14212" data-name="Path 14212" d="M1456.007,727.666a59.445,59.445,0,0,0,9.326,12.856" transform="translate(-1375.596 -726.91)" fill="none" stroke="#ce6245" stroke-linecap="round" stroke-linejoin="round" stroke-width="3"/>
      <path id="Path_14213" data-name="Path 14213" d="M1465.233,726.128a3.676,3.676,0,0,0,.636,1.581c1.976,3.542,5.155,8.244,8.187,10.9" transform="translate(-1380.285 -726.128)" fill="none" stroke="#ce6245" stroke-linecap="round" stroke-linejoin="round" stroke-width="3"/>
      <path id="Path_14214" data-name="Path 14214" d="M1472.411,726.384a14.781,14.781,0,0,0,2.252,3.284,87.443,87.443,0,0,0,5.814,6.925" transform="translate(-1383.934 -726.258)" fill="none" stroke="#ce6245" stroke-linecap="round" stroke-linejoin="round" stroke-width="3"/>
    </g>
    <path id="Path_14215" data-name="Path 14215" d="M1126.155,737.381c-.143,2.7,4.919,8.679,6.762,11.253a50.809,50.809,0,0,0,8.139,9.043c2.1,1.794,4.654,4.629,7.1,5.881,2.139,1.1,2.558-.108,4.37.024,1.737.126,4.16,1.373,6.04,1.792a20.6,20.6,0,0,0,11.977-.932c3.373-1.457,5.88-4.608,5.105-8.466a75.1,75.1,0,0,1-21.592-8.151c-4.663-2.74-8.31-9.017-13.243-11.278C1135.6,734.159,1130.721,735.128,1126.155,737.381Z" transform="translate(-1069.158 -636.565)" fill="#e2c0bf"/>
    <path id="Path_14216" data-name="Path 14216" d="M1146.01,763.4c.572.638,1.693,2.254,2.714,2.307.777.04.638-.985,1.235-1.067,1.124-.153,1.882.424,2.876.844,1.116.471,3.695,2.04,4.86,1.06.973-.818.02-2.81.857-3.773,1.251-1.439,5.522.92,5.2-1.849.89.05,2.278.882,2.692-.231.286-.769-1.011-2.182-1.472-2.593a5.792,5.792,0,0,0-2.662-1.42c-1.669.057-.59,1-1.87,1.783-1.048.645-2.439-.382-3.575-.271-1.875.184-1.146.9-2.2,1.877-1.879,1.736-3.259-1.052-5.168.36-.355.263-.384,1.087-.616,1.254-.414.3-.8.423-1.214.688C1147.167,762.7,1145.853,761.9,1146.01,763.4Z" transform="translate(-1079.245 -647.504)" fill="#bf311f"/>
    <path id="Path_14217" data-name="Path 14217" d="M1176.929,779.1a3.221,3.221,0,0,0,2.308.743c.926-.21.867-1.134,1.629-1.384,2.084-.683,4.2,1.347,6.055-.2.642-.535-.222-1.147.946-1.675.814-.368,1.417.393,2.3.243,1.629-.278,2.818-1.522,1.788-3.093,2.258-.956-1.1-3.032-2.369-2.969-2.066.1-1.424,1.2-1.438,2.89-1.821.166-4.685-.407-4.167,2.5-.848.2-1.622-.459-2.472-.177-.828.274-.74,1.062-1.345,1.469C1179.3,778.027,1176.639,777.994,1176.929,779.1Z" transform="translate(-1094.956 -654.663)" fill="#bf311f"/>
    <g id="Group_660" data-name="Group 660" transform="translate(58.363 104.262)">
      <path id="Path_14218" data-name="Path 14218" d="M1136.349,747.278c.2,1.327,1.643,2.739,2.472,3.79,1.646,2.088,3.988,4.649,5.838,6.56a84.228,84.228,0,0,0,8.893,7.872c4.168,3.3,7.835,5.116,12.246,7.872" transform="translate(-1132.704 -746.986)" fill="none" stroke="#ce6245" stroke-linecap="round" stroke-linejoin="round" stroke-width="3"/>
      <path id="Path_14219" data-name="Path 14219" d="M1144.947,747.574c2.041,3.207,4.569,5.378,6.985,7.71a79.608,79.608,0,0,0,10.363,8.326,58.3,58.3,0,0,0,9.768,5.394,30.672,30.672,0,0,0,7.726,2.77" transform="translate(-1137.074 -747.137)" fill="none" stroke="#ce6245" stroke-linecap="round" stroke-linejoin="round" stroke-width="3"/>
      <path id="Path_14220" data-name="Path 14220" d="M1152.952,747.574a16.676,16.676,0,0,0,2.935,3.229,54.307,54.307,0,0,0,5.229,4.789,77.948,77.948,0,0,0,8.018,5.54c6.473,3.687,12.648,5.44,19.973,7" transform="translate(-1141.143 -747.137)" fill="none" stroke="#ce6245" stroke-linecap="round" stroke-linejoin="round" stroke-width="3"/>
      <path id="Path_14221" data-name="Path 14221" d="M1163.032,749.056a44.661,44.661,0,0,0,14.578,11.08,76.744,76.744,0,0,0,9.33,3.5,34.984,34.984,0,0,0,9.622,1.458" transform="translate(-1146.267 -747.89)" fill="none" stroke="#ce6245" stroke-linecap="round" stroke-linejoin="round" stroke-width="3"/>
      <path id="Path_14222" data-name="Path 14222" d="M1128.936,746.685c.325,2.116,3.048,5.532,4.411,7.395a54.034,54.034,0,0,0,6.669,7.475c1.617,1.515,3.227,3.194,4.969,4.576,1.593,1.264,4.069,3,5.819,4.171" transform="translate(-1128.936 -746.685)" fill="none" stroke="#ce6245" stroke-linecap="round" stroke-linejoin="round" stroke-width="3"/>
      <path id="Path_14223" data-name="Path 14223" d="M1171.927,748.76a32.215,32.215,0,0,0,8.892,7.435,45.23,45.23,0,0,0,14,5.1,34.76,34.76,0,0,0,5.54.874" transform="translate(-1150.788 -747.74)" fill="none" stroke="#ce6245" stroke-linecap="round" stroke-linejoin="round" stroke-width="3"/>
    </g>
    <path id="Path_14224" data-name="Path 14224" d="M1017.323,671.223c-1.011-.339-3.152-3.725,2.579-5.158,2.826-.706-4.914-5.656-3.031-7.837,3.7-4.29,12.478-10.251,15.723-14.71,6.975-9.586,9.046-23.344,20.267-27.459,19.614-7.192,39.458-3.238,57.3-1.751,29.078,2.423,62.032,10.9,89.052,17.871,23.191,5.98,44.047,11.373,67.244,16.962,10.773,2.6,35.743,6.058,34.531,12.419-.606,5.755-10.3,6.058-20.9,6.664-40.153,2.294-110.558,2.423-134.184,8.481-22.918,5.876-34.833,6.664-53.916,3.938-13.825-1.975-19.385-2.12-36.651-3.332C1040.82,676.292,1020.365,673.066,1017.323,671.223Z" transform="translate(-1013.211 -573.903)" fill="url(#linear-gradient-2)"/>
    <path id="Path_14225" data-name="Path 14225" d="M1126.688,693.123c3.318,3.535,12.172,5.923,17.208,7.53,10.6,3.384,19.281,6.347,30.694,6.737A45.921,45.921,0,0,0,1201,699.761c3.624-2.308,9.608-6.555,8.008-10.6-1.57-3.969-11.28-6.376-15.6-7.485-5.307-1.364-7.982-.533-13.237.352-7.529,1.268-12.092,2.378-24.635,2.377-6.18,0-15.653-3.418-21.406-1.592C1128.7,684.533,1125.434,689.31,1126.688,693.123Z" transform="translate(-1069.295 -609.012)" fill="url(#linear-gradient-3)"/>
    <g id="Group_662" data-name="Group 662" transform="translate(57.126 71.941)">
      <g id="Group_661" data-name="Group 661" clip-path="url(#clip-path-2)">
        <path id="Path_14226" data-name="Path 14226" d="M1211.292,688.147c-2.616.359-4.846,1.947-1.559,3.689,2.759,1.462,2.479,1.392.54,3.787-1.241,1.531-1.04,2.049-1.388,3.62-.45,2.035-1.279,2.15-2.584,3.393a7.282,7.282,0,0,0-1.055,1.464c-.437.595-1.015,1.118-1.429,1.67-1.043,1.392-1.252,1.742.844,2.368a9.623,9.623,0,0,0,4.172.216c1.22-.448.785-.706,1.441-1.529.207-.259.025-.761.6-1.262.749-.656,2.793-.978,3.753-1.363,1.112-.446,3.078-.888,3.594-2.12.387-.924-.673-.727-.176-1.692.37-.718,2.375-1.063,2.154-2.145-.2-.979-2.229-1.192-3.029-1.453.438-2.6,5.62-3.973.79-5.919-.617-.249-2.174-.189-2.6-.533s.057-1.164-.214-1.389C1213.981,687.989,1213.05,688.354,1211.292,688.147Z" transform="translate(-1165.37 -684.609)" fill="#bf311f"/>
        <path id="Path_14227" data-name="Path 14227" d="M1139.7,706.833c3.517,1.655,6.981,2.925,10.469,4.262a132.7,132.7,0,0,0,12.915,3.888c4.387,1.188,8.934,1.967,13.37,2.948,2.155.477,5.023.819,7.21,1.11,1.917.254,4.485.507,6.414.621,2.051.12,4.5.506,6.517,0" transform="translate(-1133.17 -694.107)" fill="none" stroke="#bf311f" stroke-linecap="round" stroke-linejoin="round" stroke-width="3"/>
        <path id="Path_14228" data-name="Path 14228" d="M1142.434,700.733c4.889,1.544,9.586,3.643,14.586,4.866,5.19,1.27,10.365,2.609,15.568,3.814,10.685,2.474,24.786,4.233,35.739,2.8" transform="translate(-1134.56 -691.007)" fill="none" stroke="#bf311f" stroke-linecap="round" stroke-linejoin="round" stroke-width="3"/>
        <path id="Path_14229" data-name="Path 14229" d="M1147.062,696.518c1.277-.085,2.839.629,4.043.947,2.891.763,6.506,1.923,9.4,2.673,5.986,1.55,11.381,2.3,17.49,3.3a181.951,181.951,0,0,0,19.313,2.21c3.284.184,6.559.3,9.85.288,4.084-.015,7.961-.628,12-1.038" transform="translate(-1136.912 -688.861)" fill="none" stroke="#bf311f" stroke-linecap="round" stroke-linejoin="round" stroke-width="3"/>
        <path id="Path_14230" data-name="Path 14230" d="M1150.638,691.055a40.429,40.429,0,0,0,4.241,1.138,65.39,65.39,0,0,0,10.24,1.965c6.307.971,12.685,1.932,19.034,2.586a158.008,158.008,0,0,0,18.413.621,64.307,64.307,0,0,0,11.172-1.035c4.448-.828,7.841-2.882,11.586-3.724" transform="translate(-1138.73 -686.088)" fill="none" stroke="#bf311f" stroke-linecap="round" stroke-linejoin="round" stroke-width="3"/>
        <path id="Path_14231" data-name="Path 14231" d="M1153.373,686.42c7.226,1.2,17.271,3.246,24.619,3.413,13.119.3,24.1-.057,36.826-3.827" transform="translate(-1140.12 -683.521)" fill="none" stroke="#bf311f" stroke-linecap="round" stroke-linejoin="round" stroke-width="3"/>
      </g>
    </g>
    <path id="Path_14233" data-name="Path 14233" d="M1100.947,722.786c-.692,3.2-5.906,8.113-8.642,10.119-7.484,5.487-14.876,12.587-16.585,22.2" transform="translate(-1043.523 -630.275)" fill="none" stroke="#db8567" stroke-linecap="round" stroke-linejoin="round" stroke-width="3"/>
    <path id="Path_14234" data-name="Path 14234" d="M1092.609,761.969a40.064,40.064,0,0,1-.573-5.158,42.418,42.418,0,0,1,.573-6.878c1.121-4.844,4.56-9.583,7.737-13.468,3.41-4.17,8.145-6.647,8.644-10.888" transform="translate(-1051.816 -631.694)" fill="none" stroke="#db8567" stroke-linecap="round" stroke-linejoin="round" stroke-width="3"/>
    <path id="Path_14235" data-name="Path 14235" d="M1123.348,673.64c5.066-4.053,6.463-6.312,9.682-10.267a43.1,43.1,0,0,0,6.574-10.807c1.981-4.413,1.9-7.363,1.171-11.707-.725-4.323-2.926-8.276-6.844-10.177,5.224-.63,11.368-5.117,8.2-10.807" transform="translate(-1067.733 -577.966)" fill="none" stroke="#77421e" stroke-width="2"/>
    <path id="Path_14236" data-name="Path 14236" d="M1104.879,763.459c-4.4-6.251-1.509-16.826,1.887-22.936,3.028-5.446,8.116-10.473,7.866-15.961" transform="translate(-1057.209 -631.178)" fill="none" stroke="#db8567" stroke-linecap="round" stroke-linejoin="round" stroke-width="3"/>
    <path id="Path_14237" data-name="Path 14237" d="M1017.96,722.273c-2.977,1.894,3.409,2.821,4.443,3.04,5.533,1.169,9.047.47,13.483,1.637,2.962.779,4.245,1.513,6.055.908.166-1.347-2.3-2.65-3.246-3.2-4.326-2.535-8.939-3.021-13.785-3.571A10.564,10.564,0,0,0,1017.96,722.273Z" transform="translate(-1013.766 -629.345)" fill="#191713"/>
    <path id="Path_14238" data-name="Path 14238" d="M1066.631,670c-6.079,8.207-12.979,7.241-14.26,7.151-14.519-1.019-14.242-6.583-35.13-9.856-.391-.213-7.482.624-6.972-2.865.421-2.883,1.752-4.18,3.635-6.361,3.7-4.29,12.478-10.251,15.722-14.71,6.975-9.586,9.046-23.345,20.267-27.459,12.892-4.727,19.636-4.646,31.186-4.038a1.509,1.509,0,0,1,.97.539c6.473,3.617,4.642,11.7-6,14.134,6.922,1.7,8.783,14.578,6.687,20.061C1078.789,656.933,1073.868,660.233,1066.631,670Z" transform="translate(-1010.243 -573.746)" fill="url(#linear-gradient-4)"/>
    <ellipse id="Ellipse_58" data-name="Ellipse 58" cx="9.743" cy="9.313" rx="9.743" ry="9.313" transform="translate(33.254 50.679)" fill="#d39a29" stroke="#77421e" stroke-width="2"/>
    <ellipse id="Ellipse_59" data-name="Ellipse 59" cx="6.276" cy="6.111" rx="6.276" ry="6.111" transform="translate(36.564 54.09)" fill="#191713" stroke="#efcf4b" stroke-width="2"/>
    <ellipse id="Ellipse_60" data-name="Ellipse 60" cx="3.303" cy="3.799" rx="3.303" ry="3.799" transform="translate(42.84 53.76)" fill="#fff"/>
    <path id="Path_14239" data-name="Path 14239" d="M1190.14,635.105c1.624-.2,5.478.366,5.939,2.188.688,2.718-2.277,3.433-4.59,3.807" transform="translate(-1101.682 -585.689)" opacity="0.65" fill="url(#linear-gradient-5)"/>
    <path id="Path_14240" data-name="Path 14240" d="M1214.224,651.878c1.624-.2,5.478.366,5.939,2.188.688,2.718-2.277,3.433-4.59,3.807" transform="translate(-1113.924 -594.215)" opacity="0.65" fill="url(#linear-gradient-5)"/>
    <path id="Path_14241" data-name="Path 14241" d="M1260.672,648.008c1.624-.2,5.478.366,5.939,2.188.688,2.719-2.277,3.433-4.59,3.807" transform="translate(-1137.533 -592.247)" opacity="0.65" fill="url(#linear-gradient-5)"/>
    <path id="Path_14242" data-name="Path 14242" d="M1313.159,646.839c1.636.025,5.378,1.105,5.588,2.973.313,2.787-2.721,3.092-5.064,3.149" transform="translate(-1164.212 -591.672)" opacity="0.65" fill="url(#linear-gradient-8)"/>
    <path id="Path_14243" data-name="Path 14243" d="M1350.856,663.414c1.452.018,4.769.989,4.95,2.686.269,2.533-2.425,2.819-4.5,2.878" transform="translate(-1183.372 -600.097)" opacity="0.65" fill="url(#linear-gradient-9)"/>
    <path id="Path_14244" data-name="Path 14244" d="M1369.349,662.123c1.452.018,4.769.989,4.95,2.687.269,2.533-2.425,2.819-4.5,2.878" transform="translate(-1192.772 -599.441)" opacity="0.65" fill="url(#linear-gradient-10)"/>
    <path id="Path_14245" data-name="Path 14245" d="M1418.377,671.155c1.452.018,4.769.989,4.95,2.687.269,2.532-2.425,2.819-4.5,2.878" transform="translate(-1217.693 -604.032)" opacity="0.65" fill="url(#linear-gradient-11)"/>
  </g>
</svg>
