<?xml version="1.0" encoding="utf-8"?>
<!-- Generator: Adobe Illustrator 25.4.1, SVG Export Plug-In . SVG Version: 6.00 Build 0)  -->
<svg version="1.1" id="Layer_1" xmlns="http://www.w3.org/2000/svg" xmlns:xlink="http://www.w3.org/1999/xlink" x="0px" y="0px"
	 viewBox="0 0 444 444" style="enable-background:new 0 0 444 444;" xml:space="preserve">
<style type="text/css">
	.st0{fill:#82bd55;}
</style>
<path class="st0" d="M221.5,438.9c-59.3,0-115-23.1-157-65s-65-97.7-65-157s23.1-115,65-157c6.4-6.4,16.9-6.4,23.3,0
	c6.4,6.4,6.4,16.9,0,23.3C52.2,119,32.5,166.4,32.5,216.9s19.7,97.9,55.4,133.6c35.7,35.7,83.2,55.4,133.6,55.4
	c50.5,0,97.9-19.7,133.6-55.4s55.4-83.2,55.4-133.6S390.8,119,355.1,83.3c-6.4-6.4-6.4-16.9,0-23.3c6.4-6.4,16.9-6.4,23.3,0
	c41.9,41.9,65,97.7,65,157s-23.1,115-65,157C336.5,415.8,280.8,438.9,221.5,438.9z"/>
</svg>
