<svg xmlns="http://www.w3.org/2000/svg" xmlns:xlink="http://www.w3.org/1999/xlink" width="1184.008" height="361.113" viewBox="0 0 1184.008 361.113">
  <defs>
    <clipPath id="clip-path">
      <path id="Path_14050" data-name="Path 14050" d="M1048.207,393.384c.652,21.512,2.171,48.024,17.2,63.9,6.53-7.781,20.517-37.448,20.517-37.448s-2.494-2.208-7.63-9.325c-4-5.548-6.288-11.145-11.507-15.8C1062.753,391.115,1050.623,385.886,1048.207,393.384Z" transform="translate(-1048.207 -389.56)" fill="none"/>
    </clipPath>
    <clipPath id="clip-path-2">
      <path id="Path_14069" data-name="Path 14069" d="M1592.733,326.794c18.612-1.6,27.46-12.8,36.355-21.937,16.784-17.232,33.218-33.288,53.831-46.242,19.573-12.3,47.014-26.437,73.019-23.674-4.654,7.677-9.708,17.091-11.813,23.674-5.009,15.672-12.169,31.67-20.759,42.226-14.859,18.261-20.533,22.193-40.275,34.7-9.239,5.852-7.9,13.218.187,19.364,18.813,14.293,25.413,28.152,32.572,40.308,11.207,19.032,11.454,40.627,25.055,62.381-11.986-1.261-56.4-25.028-75.932-40.556-35.064-27.869-40.051-55.641-71.836-61.274C1582.111,353.811,1584.888,343.194,1592.733,326.794Z" transform="translate(-1585.83 -234.592)" fill="none"/>
    </clipPath>
    <clipPath id="clip-path-3">
      <path id="Path_14084" data-name="Path 14084" d="M1379.944,270.386c3.869-5.156,15.088-15.947,20.629-21.487,8.165-8.165,18.908-18.049,18.908-18.049s13.384,17.227,22.776,24.925c13.072,10.713,23.857,17.12,39.536,22.346,7.736,2.58,18.578,3.712,22.776,4.728-6.876,9.454-15.5,20.525-20.656,23.853-5.828,3.761-17.62.583-24.056.338-17.071-.653-31.626-4.5-47.625-10.054-9.248-3.21-23.638-4.92-29.739-13.493C1379.479,279.256,1380.747,274.38,1379.944,270.386Z" transform="translate(-1379.944 -230.85)" fill="none"/>
    </clipPath>
    <clipPath id="clip-path-4">
      <path id="Path_14100" data-name="Path 14100" d="M1068.746,256.711c4.335-15.9,8.78-23.246,17.94-43.68,5.069-11.309,15.989-26.909,15.989-26.909a12.417,12.417,0,0,0,8.971-1.951c5.683-3.617,7.8-7.02,10.529-10.14,24.96,17.551,34.169,29.912,57.331,46.8,34.69,25.3,53.306,25.144,84.383,32.371-2.408,2.02,6.505,13.01-13.01,13.732-44.489,1.647-67.2,10.678-110.6,4.466-17.488-2.5-35.194-4.764-52.754-6.635C1083.008,264.284,1065.307,263.64,1068.746,256.711Z" transform="translate(-1068.306 -174.031)" fill="none"/>
    </clipPath>
    <clipPath id="clip-path-5">
      <path id="Path_14114" data-name="Path 14114" d="M1384.184,380.568c.888,7.374,13.462,22.846,19.239,29.47,3.491,4,11.532,12.07,11.532,12.07a239.163,239.163,0,0,1,27.073-21.083c13.527-8.908,27.812-18.548,43.031-23.984,9.875-3.527,23.984-5.644,23.984-5.644s-7.235-6.3-10.581-9.169c-3.429-2.943-6.481-10.446-10.723-11.852-5.256-1.741-17.285,4.831-21.726,6.191-18.182,5.568-37.248,9.092-55.8,13.278C1402.313,371.625,1388.164,372.885,1384.184,380.568Z" transform="translate(-1384.184 -350.084)" fill="none"/>
    </clipPath>
    <linearGradient id="linear-gradient" x1="0.503" y1="-1.06" x2="0.497" y2="2.048" gradientUnits="objectBoundingBox">
      <stop offset="0.327" stop-color="#232a2d"/>
      <stop offset="0.37" stop-color="#4e5b63"/>
      <stop offset="0.416" stop-color="#768a95"/>
      <stop offset="0.45" stop-color="#8fa7b5"/>
      <stop offset="0.47" stop-color="#99b2c1"/>
      <stop offset="0.487" stop-color="#b6c9d3"/>
      <stop offset="0.507" stop-color="#d2dfe5"/>
      <stop offset="0.525" stop-color="#e3ecf0"/>
      <stop offset="0.538" stop-color="#eaf1f4"/>
    </linearGradient>
    <linearGradient id="linear-gradient-2" x1="0.503" y1="-1.06" x2="0.497" y2="2.048" gradientUnits="objectBoundingBox">
      <stop offset="0.4" stop-color="#fff" stop-opacity="0"/>
      <stop offset="0.431" stop-color="#fbfcfd" stop-opacity="0.173"/>
      <stop offset="0.478" stop-color="#f6f9fa" stop-opacity="0.424"/>
      <stop offset="0.524" stop-color="#f1f6f8" stop-opacity="0.627"/>
      <stop offset="0.567" stop-color="#eef3f6" stop-opacity="0.788"/>
      <stop offset="0.606" stop-color="#ebf2f5" stop-opacity="0.906"/>
      <stop offset="0.64" stop-color="#eaf1f4" stop-opacity="0.976"/>
      <stop offset="0.665" stop-color="#eaf1f4"/>
    </linearGradient>
    <clipPath id="clip-path-6">
      <path id="Path_14148" data-name="Path 14148" d="M1005.838,312.432c50.03-13.312,136.379,6.495,136.78,6.884-7.8,6.427-21.114,14.688-34.883,21.114-13.611,6.352-29.376,11.015-44.523,15.147-2.385.651-14.688-3.213-28.916-10.557-1.632-.843,1.835-9.639-7.344-19.278C1016.646,314.921,1008.408,322.556,1005.838,312.432Z" transform="translate(-1005.838 -307.837)" fill="none"/>
    </clipPath>
    <radialGradient id="radial-gradient" cx="0.497" cy="0.467" r="1.218" gradientUnits="objectBoundingBox">
      <stop offset="0.127" stop-color="#cbcc9a"/>
      <stop offset="0.37" stop-color="#d8dbc0"/>
      <stop offset="0.595" stop-color="#e2e7dc"/>
      <stop offset="0.79" stop-color="#e7eeed"/>
      <stop offset="0.936" stop-color="#eaf1f4"/>
    </radialGradient>
  </defs>
  <g id="Group_724" data-name="Group 724" transform="translate(-841.003 -174.031)">
    <g id="Group_643" data-name="Group 643" transform="translate(1123.061 467.421)">
      <g id="Group_642" data-name="Group 642" clip-path="url(#clip-path)">
        <path id="Path_14045" data-name="Path 14045" d="M1048.207,393.384c.652,21.512,2.171,48.024,17.2,63.9,6.53-7.781,20.517-37.448,20.517-37.448s-2.494-2.208-7.63-9.325c-4-5.548-6.288-11.145-11.507-15.8C1062.753,391.115,1050.623,385.886,1048.207,393.384Z" transform="translate(-1048.207 -389.56)" fill="#e2e2d3"/>
        <path id="Path_14046" data-name="Path 14046" d="M1051.956,391.533c.285,10.48.467,20.693,2.634,31.078,3.085,14.79,8.813,25.8,17.725,38.145" transform="translate(-1046.853 -388.848)" fill="none" stroke="#434e54" stroke-width="2"/>
        <path id="Path_14047" data-name="Path 14047" d="M1077.316,453.521c-6.54-5.968-10.63-13.761-14.809-22.074-4.3-8.551-5.8-15.066-7.329-23.113-1.047-5.518-.1-10.31-.114-15.9a66.731,66.731,0,0,0,2.646,14.55,71.656,71.656,0,0,0,10.891,22.919c4.377,5.862,7.977,10.637,13.321,15.325" transform="translate(-1045.867 -388.521)" fill="none" stroke="#434e54" stroke-width="2"/>
        <path id="Path_14048" data-name="Path 14048" d="M1057.806,392.614c-.165,5.857,2.7,14.337,5.318,19.339,5.531,10.555,13.054,18.856,23.2,26.3" transform="translate(-1044.742 -388.457)" fill="none" stroke="#434e54" stroke-width="2"/>
        <path id="Path_14049" data-name="Path 14049" d="M1059.935,392.969c2.322,12.664,15.955,30.219,27,35.488" transform="translate(-1043.97 -388.329)" fill="none" stroke="#434e54" stroke-width="2"/>
      </g>
    </g>
    <path id="Path_14051" data-name="Path 14051" d="M958.608,386.979c-19.186-5.423-47-13.779-65.027-20.439-8.913-3.293-58.9-18.342-47.35-30.077C869.883,341.6,984.8,341.675,958.608,386.979Z" transform="translate(1.267 58.679)" fill="#d8e8ef"/>
    <path id="Path_14052" data-name="Path 14052" d="M847.028,336.6c9.206,7.6,22.133,12.089,33.978,14.865,10.409,2.438,26.952,7.771,36.81,10.618-1.179-11.6-25.76-20.432-35.74-21.95C870.131,338.312,858.615,336.681,847.028,336.6Z" transform="translate(2.177 58.728)" fill="#434e54"/>
    <g id="Group_645" data-name="Group 645" transform="translate(1854.903 256.47)">
      <g id="Group_644" data-name="Group 644" clip-path="url(#clip-path-2)">
        <path id="Path_14053" data-name="Path 14053" d="M1592.733,326.794c18.612-1.6,27.46-12.8,36.355-21.937,16.784-17.232,33.218-33.288,53.831-46.242,19.573-12.3,47.014-26.437,73.019-23.674-4.654,7.677-9.708,17.091-11.813,23.674-5.009,15.672-12.169,31.67-20.759,42.226-14.859,18.261-20.533,22.193-40.275,34.7-9.239,5.852-7.9,13.218.187,19.364,18.813,14.293,25.413,28.152,32.572,40.308,11.207,19.032,11.454,40.627,25.055,62.381-11.986-1.261-56.4-25.028-75.932-40.556-35.064-27.869-40.051-55.641-71.836-61.274C1582.111,353.811,1584.888,343.194,1592.733,326.794Z" transform="translate(-1585.83 -234.592)" fill="#434e54"/>
        <path id="Path_14054" data-name="Path 14054" d="M1605.772,332.646c12.078-11.331,29.194-32.818,41.428-44.186,29.151-27.086,57.018-46.882,102.633-49.838" transform="translate(-1578.626 -233.136)" fill="none" stroke="#d2d3b6" stroke-width="2"/>
        <path id="Path_14055" data-name="Path 14055" d="M1613.548,331.423c2.957-3.379,10.483-11.177,11.837-12.77,7.694-9.059,25.063-25.936,34.211-33.367,28.145-22.864,51.091-35.8,87.428-41.39" transform="translate(-1575.817 -231.231)" fill="none" stroke="#d2d3b6" stroke-width="2"/>
        <path id="Path_14056" data-name="Path 14056" d="M1621.074,329.768c3.414-4.1,6.639-9.551,8.772-11.52,10.981-10.137,28.908-26.26,40.125-33.367,27.81-17.62,46.421-29.1,79.825-31.676" transform="translate(-1573.098 -227.868)" fill="none" stroke="#d2d3b6" stroke-width="2"/>
        <path id="Path_14057" data-name="Path 14057" d="M1626.342,324.963c8.868-10.559,26.086-23.552,36.234-29.6,22.75-13.557,49.6-28.761,76.87-27.876" transform="translate(-1571.195 -222.722)" fill="none" stroke="#d2d3b6" stroke-width="2"/>
        <path id="Path_14058" data-name="Path 14058" d="M1631.862,320.433c8.024-8.447,24.349-17.008,32.1-20.7,20.091-9.559,40.771-17.277,62.931-19.851" transform="translate(-1569.201 -218.229)" fill="none" stroke="#d2d3b6" stroke-width="2"/>
        <path id="Path_14059" data-name="Path 14059" d="M1638.067,317.14c5.26-6.52,23.349-12.413,30.41-14.783,18.612-6.247,35.109-11.474,54.906-10.981" transform="translate(-1566.96 -214.09)" fill="none" stroke="#d2d3b6" stroke-width="2"/>
        <path id="Path_14060" data-name="Path 14060" d="M1643.032,315.544c13.938-7.179,33-12.925,48.149-13.938" transform="translate(-1565.166 -210.383)" fill="none" stroke="#d2d3b6" stroke-width="2"/>
        <path id="Path_14061" data-name="Path 14061" d="M1671.257,310.607c-5.924-.208-20.94,2.3-26.854,5.257,4.911,2.92,16.632,10.593,22.208,11.215" transform="translate(-1564.671 -207.135)" fill="none" stroke="#d2d3b6" stroke-width="2"/>
        <path id="Path_14062" data-name="Path 14062" d="M1639.135,315.721c5.122,5.8,15.856,12.687,20.932,15.42,10.584,5.7,21.771,11.149,34.211,10.136" transform="translate(-1566.574 -205.284)" fill="none" stroke="#d2d3b6" stroke-width="2"/>
        <path id="Path_14063" data-name="Path 14063" d="M1633.616,317.226c5.464,6.829,18.806,17.108,24.643,20.551,16.991,10.022,31,16.771,50.261,21.119" transform="translate(-1568.568 -204.74)" fill="none" stroke="#d2d3b6" stroke-width="2"/>
        <path id="Path_14064" data-name="Path 14064" d="M1628.1,318.229c22.084,23.222,55.162,45.793,86.217,53.4" transform="translate(-1570.561 -204.378)" fill="none" stroke="#d2d3b6" stroke-width="2"/>
        <path id="Path_14065" data-name="Path 14065" d="M1623.081,318.48c6,8.332,19.695,22.01,25.611,26.636,23.23,18.161,50.616,33.509,80.106,42.47" transform="translate(-1572.373 -204.287)" fill="none" stroke="#d2d3b6" stroke-width="2"/>
        <path id="Path_14066" data-name="Path 14066" d="M1618.314,318.982c32.1,46.1,74.439,65.618,117.275,84.049" transform="translate(-1574.095 -204.106)" fill="none" stroke="#d2d3b6" stroke-width="2"/>
        <path id="Path_14067" data-name="Path 14067" d="M1612.8,318.731c30.409,43.925,74.045,74.349,117.184,90.726" transform="translate(-1576.089 -204.196)" fill="none" stroke="#d2d3b6" stroke-width="2"/>
        <path id="Path_14068" data-name="Path 14068" d="M1607.026,319.734c7.6,10.981,23.245,30.2,33.808,40.789,26.309,26.372,60.429,46.145,94.187,61.243" transform="translate(-1578.173 -203.834)" fill="none" stroke="#d2d3b6" stroke-width="2"/>
      </g>
    </g>
    <g id="Group_647" data-name="Group 647" transform="translate(1574.639 251.376)">
      <g id="Group_646" data-name="Group 646" clip-path="url(#clip-path-3)">
        <path id="Path_14070" data-name="Path 14070" d="M1379.944,270.386c3.869-5.156,15.088-15.947,20.629-21.487,8.165-8.165,18.908-18.049,18.908-18.049s13.384,17.227,22.776,24.925c13.072,10.713,23.857,17.12,39.536,22.346,7.736,2.58,18.578,3.712,22.776,4.728-6.876,9.454-15.5,20.525-20.656,23.853-5.828,3.761-17.62.583-24.056.338-17.071-.653-31.626-4.5-47.625-10.054-9.248-3.21-23.638-4.92-29.739-13.493C1379.479,279.256,1380.747,274.38,1379.944,270.386Z" transform="translate(-1379.944 -230.85)" fill="#bfbfa1"/>
        <path id="Path_14071" data-name="Path 14071" d="M1383.236,274.889c1.875-1.579,8.724-9.454,10.8-11.469,15.047-14.629,26.039-24.533,40.335-36.365" transform="translate(-1378.755 -232.221)" fill="none" stroke="#434e54" stroke-width="2"/>
        <path id="Path_14072" data-name="Path 14072" d="M1388.554,276.747c17.875-19.173,34.139-34.751,54.241-48.433" transform="translate(-1376.834 -231.766)" fill="none" stroke="#434e54" stroke-width="2"/>
        <path id="Path_14073" data-name="Path 14073" d="M1394.184,278.681c11.093-14.906,30.411-33.579,48.778-44.682" transform="translate(-1374.8 -229.712)" fill="none" stroke="#434e54" stroke-width="2"/>
        <path id="Path_14074" data-name="Path 14074" d="M1408.666,288.709a132.9,132.9,0,0,1,12.962-17.295c11.459-12.321,23.034-20.458,37.123-29.615" transform="translate(-1369.568 -226.895)" fill="none" stroke="#434e54" stroke-width="2"/>
        <path id="Path_14075" data-name="Path 14075" d="M1414.389,289.41a148.978,148.978,0,0,1,12.426-15.74c12.009-12.517,21.821-18.3,35.895-28.348" transform="translate(-1367.5 -225.622)" fill="none" stroke="#434e54" stroke-width="2"/>
        <path id="Path_14076" data-name="Path 14076" d="M1420.735,287.756c1-2.63,6.338-8.312,8.15-10.241,9.1-9.681,17.327-16.323,27.51-24.808" transform="translate(-1365.208 -222.954)" fill="none" stroke="#434e54" stroke-width="2"/>
        <path id="Path_14077" data-name="Path 14077" d="M1426.207,290.274c1.733-3.486,6.281-7.665,8.923-10.438,10.165-10.66,20.226-18.279,32.344-26.6" transform="translate(-1363.231 -222.762)" fill="none" stroke="#434e54" stroke-width="2"/>
        <path id="Path_14078" data-name="Path 14078" d="M1433.459,288.766a88.577,88.577,0,0,1,8.151-9.4c8.253-8.811,16.477-15.019,25.917-22.495" transform="translate(-1360.611 -221.451)" fill="none" stroke="#434e54" stroke-width="2"/>
        <path id="Path_14079" data-name="Path 14079" d="M1439.185,289.63c9.209-12.205,22.721-21.289,34.565-30.685" transform="translate(-1358.543 -220.701)" fill="none" stroke="#434e54" stroke-width="2"/>
        <path id="Path_14080" data-name="Path 14080" d="M1446.153,289.682c6.479-7.524,18.845-18.788,29.145-27.628" transform="translate(-1356.026 -219.577)" fill="none" stroke="#434e54" stroke-width="2"/>
        <path id="Path_14081" data-name="Path 14081" d="M1452.706,289.534a216.975,216.975,0,0,1,25.88-24.362" transform="translate(-1353.658 -218.451)" fill="none" stroke="#434e54" stroke-width="2"/>
        <path id="Path_14082" data-name="Path 14082" d="M1399.659,279.269c1.213-2.426,6-8.233,7.973-10.4,10.573-11.613,19.586-20.28,29.466-27.386" transform="translate(-1372.822 -227.008)" fill="none" stroke="#434e54" stroke-width="2"/>
        <path id="Path_14083" data-name="Path 14083" d="M1404.25,281.848c-.52.693,7.5-9.144,10.4-12.48C1424.2,258.4,1433.5,250.646,1445.5,242.5" transform="translate(-1371.172 -226.64)" fill="none" stroke="#434e54" stroke-width="2"/>
      </g>
    </g>
    <g id="Group_649" data-name="Group 649" transform="translate(1150.42 174.031)">
      <g id="Group_648" data-name="Group 648" clip-path="url(#clip-path-4)">
        <path id="Path_14085" data-name="Path 14085" d="M1068.746,256.711c4.335-15.9,8.78-23.246,17.94-43.68,5.069-11.309,15.989-26.909,15.989-26.909a12.417,12.417,0,0,0,8.971-1.951c5.683-3.617,7.8-7.02,10.529-10.14,24.96,17.551,34.169,29.912,57.331,46.8,34.69,25.3,53.306,25.144,84.383,32.371-2.408,2.02,6.505,13.01-13.01,13.732-44.489,1.647-67.2,10.678-110.6,4.466-17.488-2.5-35.194-4.764-52.754-6.635C1083.008,264.284,1065.307,263.64,1068.746,256.711Z" transform="translate(-1068.306 -174.031)" fill="#d2d3b6"/>
        <path id="Path_14086" data-name="Path 14086" d="M1073.172,263.157c.053.419.007-.559.048-.781,1.348-7.3,5.05-14.87,8.1-21.508,6.983-15.213,12.623-27.153,20.95-40.4,8.248-13.121,17.328-26.369,25.984-39.2" transform="translate(-1066.548 -178.644)" fill="none" stroke="#434e54" stroke-width="3"/>
        <path id="Path_14087" data-name="Path 14087" d="M1080.815,260.87c16.2-41.051,33.005-66.1,59.094-92.428" transform="translate(-1063.787 -176.05)" fill="none" stroke="#434e54" stroke-width="3"/>
        <path id="Path_14088" data-name="Path 14088" d="M1091.38,258.834c3.062-6.746,7.11-16.418,11.635-24.488,13.125-23.409,25.368-40.942,42.056-58.576" transform="translate(-1059.97 -173.403)" fill="none" stroke="#434e54" stroke-width="3"/>
        <path id="Path_14089" data-name="Path 14089" d="M1099.922,262.593a216.073,216.073,0,0,1,12.131-24.775c12.6-21.93,27.1-42.756,45.088-60.595" transform="translate(-1056.884 -172.878)" fill="none" stroke="#434e54" stroke-width="3"/>
        <path id="Path_14090" data-name="Path 14090" d="M1108.913,258.551c12.615-28.987,29.358-49.449,47.78-70.139" transform="translate(-1053.636 -168.836)" fill="none" stroke="#434e54" stroke-width="3"/>
        <path id="Path_14091" data-name="Path 14091" d="M1118.354,261.768a293.678,293.678,0,0,1,57.525-78.026" transform="translate(-1050.226 -170.523)" fill="none" stroke="#434e54" stroke-width="3"/>
        <path id="Path_14092" data-name="Path 14092" d="M1129.143,258.152a156.528,156.528,0,0,1,8.783-16.826,246.94,246.94,0,0,1,38.951-49.267" transform="translate(-1046.328 -167.518)" fill="none" stroke="#434e54" stroke-width="3"/>
        <path id="Path_14093" data-name="Path 14093" d="M1137.236,258.394c1.993-3.956,6.7-12.357,8.727-15.678,9.865-16.165,19.484-26.388,32.274-40.318" transform="translate(-1043.404 -163.783)" fill="none" stroke="#434e54" stroke-width="3"/>
        <path id="Path_14094" data-name="Path 14094" d="M1148.411,256.568c8.728-18.954,21.885-33.136,34.969-48.325" transform="translate(-1039.367 -161.672)" fill="none" stroke="#434e54" stroke-width="3"/>
        <path id="Path_14095" data-name="Path 14095" d="M1158.854,256.66c8.23-17.707,21.432-31.456,34.829-47.293" transform="translate(-1035.595 -161.266)" fill="none" stroke="#434e54" stroke-width="3"/>
        <path id="Path_14096" data-name="Path 14096" d="M1170.03,253.145a44.5,44.5,0,0,1,4.489-9.477c8.728-12.969,14.308-18.028,22.164-27.333" transform="translate(-1031.557 -158.748)" fill="none" stroke="#434e54" stroke-width="3"/>
        <path id="Path_14097" data-name="Path 14097" d="M1179.5,252.566c4.823-11.631,15.3-23.817,24.478-34.882" transform="translate(-1028.138 -158.261)" fill="none" stroke="#434e54" stroke-width="3"/>
        <path id="Path_14098" data-name="Path 14098" d="M1188.711,249.731c8.24-12.617,16.184-21.534,25.2-31.821" transform="translate(-1024.809 -158.179)" fill="none" stroke="#434e54" stroke-width="3"/>
        <path id="Path_14099" data-name="Path 14099" d="M1199.5,249.243c.357-2.027,2.865-5.283,4.028-6.938,6.484-9.228,12.529-15.066,17.707-22.2" transform="translate(-1020.911 -157.385)" fill="none" stroke="#434e54" stroke-width="3"/>
      </g>
    </g>
    <g id="Group_651" data-name="Group 651" transform="translate(1580.411 413.684)">
      <g id="Group_650" data-name="Group 650" clip-path="url(#clip-path-5)">
        <path id="Path_14101" data-name="Path 14101" d="M1384.184,380.568c.888,7.374,13.462,22.846,19.239,29.47,3.491,4,11.532,12.07,11.532,12.07a239.163,239.163,0,0,1,27.073-21.083c13.527-8.908,27.812-18.548,43.031-23.984,9.875-3.527,23.984-5.644,23.984-5.644s-7.235-6.3-10.581-9.169c-3.429-2.943-6.481-10.446-10.723-11.852-5.256-1.741-17.285,4.831-21.726,6.191-18.182,5.568-37.248,9.092-55.8,13.278C1402.313,371.625,1388.164,372.885,1384.184,380.568Z" transform="translate(-1384.184 -350.084)" fill="#e2e2d3"/>
        <path id="Path_14102" data-name="Path 14102" d="M1388.977,370.894a132.756,132.756,0,0,0,7.232,11.971c8.407,13.215,17.947,23.348,30.177,33.171" transform="translate(-1382.452 -342.566)" fill="none" stroke="#434e54" stroke-width="2"/>
        <path id="Path_14103" data-name="Path 14103" d="M1395.023,368.7c1.745,3.742,5.082,9.695,6.484,11.972,8.3,13.472,17.726,21.807,29.928,31.674" transform="translate(-1380.268 -343.361)" fill="none" stroke="#434e54" stroke-width="2"/>
        <path id="Path_14104" data-name="Path 14104" d="M1400.7,367.779c7.249,16.064,22.9,29.076,36.165,39.905" transform="translate(-1378.217 -343.691)" fill="none" stroke="#434e54" stroke-width="2"/>
        <path id="Path_14105" data-name="Path 14105" d="M1406.932,366.863c1,2.742,4.5,7.213,6.234,9.477,7.871,10.253,16.9,16.5,27.185,24.192" transform="translate(-1375.966 -344.022)" fill="none" stroke="#434e54" stroke-width="2"/>
        <path id="Path_14106" data-name="Path 14106" d="M1412.978,365.031a77.847,77.847,0,0,0,7.232,9.477c11.224,12.221,16.975,15.106,27.435,22.945" transform="translate(-1373.782 -344.684)" fill="none" stroke="#434e54" stroke-width="2"/>
        <path id="Path_14107" data-name="Path 14107" d="M1419.94,363.749c1.447,2.97,4.78,6.617,6.983,8.977a108.991,108.991,0,0,0,24.939,19.952" transform="translate(-1371.267 -345.147)" fill="none" stroke="#434e54" stroke-width="2"/>
        <path id="Path_14108" data-name="Path 14108" d="M1425.986,362.832c9.477,11.723,19.952,20.2,32.422,27.933" transform="translate(-1369.083 -345.479)" fill="none" stroke="#434e54" stroke-width="2"/>
        <path id="Path_14109" data-name="Path 14109" d="M1432.582,361.184c6.734,8.977,19.7,19.2,30.676,26.935" transform="translate(-1366.7 -346.074)" fill="none" stroke="#434e54" stroke-width="2"/>
        <path id="Path_14110" data-name="Path 14110" d="M1438.628,358.619a51.259,51.259,0,0,0,6.983,8.977c6.91,6.614,11.722,10.974,20.45,15.962" transform="translate(-1364.516 -347.001)" fill="none" stroke="#434e54" stroke-width="2"/>
        <path id="Path_14111" data-name="Path 14111" d="M1445.407,357.153c7.284,10.292,16.922,17.63,27.184,24.69" transform="translate(-1362.067 -347.53)" fill="none" stroke="#434e54" stroke-width="2"/>
        <path id="Path_14112" data-name="Path 14112" d="M1450.537,355.5c6.484,8.979,16.743,15.664,26.187,22.695" transform="translate(-1360.214 -348.126)" fill="none" stroke="#434e54" stroke-width="2"/>
        <path id="Path_14113" data-name="Path 14113" d="M1456.583,353.305c6.983,10.226,16.132,16.03,24.441,21.948" transform="translate(-1358.029 -348.92)" fill="none" stroke="#434e54" stroke-width="2"/>
      </g>
    </g>
    <path id="Path_14115" data-name="Path 14115" d="M1471.361,366.093c.573.885,26,6.327,31.78,7.515.406-.828-1.809-10.728-1.809-10.728l24.949,2.8-.087-10.314c16.352,2.441,32.259,3.166,32.259,3.166l5.915-12.084,31.9.93,3.211-10.333s23.179-3.724,30.885-3.972c-7.9-27.943-54.162-3.647-65.884-.81-24.07,5.823-48.59,13.928-72.083,21.817C1488.289,355.458,1471.153,359.837,1471.361,366.093Z" transform="translate(227.72 52.647)" fill="#e2e2d3"/>
    <path id="Path_14116" data-name="Path 14116" d="M1473.39,284.046c6.612-1.349,23.118-6.115,28.793-7.736.467.795,2.148,9.884,2.148,9.884l24.5-4.728s1,7.315,1.289,11.6c10.429-.594,31.372-5.587,31.372-5.587l5.587,12.892,33.949-3.867,1.289,10.743s22.964-1.048,30.668-1.384c-.66,23.714-53.731,7.733-65.634,5.791-24.441-3.986-49.5-10.215-73.527-16.3C1489.619,294.289,1473.657,290.3,1473.39,284.046Z" transform="translate(228.453 36.949)" fill="#bfbfa1"/>
    <path id="Path_14117" data-name="Path 14117" d="M857.2,329.64c64.514-37.633,112.742-57.412,180.1-75.267,111.555-29.569,227.312-29.312,334.666-21.505,147.845,10.753,312.8,68.874,473.1,94.083,15.144,2.382,26.879,4.589,41.665,6.721,42.688,6.156,93.031,11.354,4.032,20.16-26.82,2.654-39.282,8.863-69.889,16.13-63.639,15.106-130.632,35.575-193.542,53.761-81.076,23.437-149.189,32.256-232.52,37.633-66.392,4.284-134.4,5.376-200.262,1.344-64.5-3.949-129.028-14.785-197.574-25.537-21.92-3.439-31.915-6.431-58.8-21.215-9.992-5.494-25.157-19.572-40.663-31.2-26.882-20.162-55.106-22.85-56.45-33.6C840.009,342.644,851.381,334.581,857.2,329.64Z" transform="translate(0 19.641)" fill="url(#linear-gradient)"/>
    <path id="Path_14118" data-name="Path 14118" d="M1924.051,339.754c-2.39-1.81-33.006-5.22-37.313-6.082-14.648-2.932-26.521-4.338-41.665-6.721-160.3-25.209-325.259-83.331-473.1-94.083-107.354-7.807-223.111-8.064-334.666,21.505-67.36,17.854-115.588,37.633-180.1,75.267-5.819,4.941-17.191,13-16.128,21.505,67.659-3.6,20.8-18.05,85.148-45.757,61.457-26.46,76.821-35,145.961-50.36s169.992-22.812,306.564-14.277c86.909,6.078,207.284,35.616,328.491,62.929S1924.051,339.754,1924.051,339.754Z" transform="translate(0 19.641)" fill="#232a2d"/>
    <path id="Path_14119" data-name="Path 14119" d="M907.266,291.179c21.357-4,31.367,22.691,40.009,1.967,2.609-6.259,1.5-17.861,10.045-19.319,11.58-1.977,15.473,13,21.357,20.021,3.151,3.761,8.675,11.345,18.3,8.625,10.94-3.091,11-18.529,11.73-23.976,1.334-10.011,7.637-30.525,22.024-26.694,13.2,3.513,13.781,24.119,15.868,34.852,1.538,7.91,2.448,16.5,8.156,23.209,6.433,7.556,15.431,3.553,24.126,5.866" transform="translate(23.938 27.926)" fill="none" stroke="#232a2d" stroke-linecap="round" stroke-linejoin="round" stroke-width="10"/>
    <path id="Path_14120" data-name="Path 14120" d="M1024.44,244.541c4.009,4.589,7.341,2.671,10.011,12.013,2.578,9.022,2.669,18.02,2.487,29.379-.227,14.133,4.677-12.115,4.187-16.7-.922-8.622-.834-18.981,2-27.363" transform="translate(66.268 24.508)" fill="none" stroke="#232a2d" stroke-linecap="round" stroke-linejoin="round" stroke-width="10"/>
    <path id="Path_14121" data-name="Path 14121" d="M1054.375,319.54c-.633-4.835.466-16.2.674-21.417a189.546,189.546,0,0,1,2.7-25.887c1.749-9.65,4.835-19.553,10.435-27.058,9.352-12.53,34.933-9,39.255,4.322,5.806,17.9-1.364,53.274,6.369,70.728" transform="translate(77.011 22.901)" fill="none" stroke="#232a2d" stroke-linecap="round" stroke-linejoin="round" stroke-width="10"/>
    <path id="Path_14122" data-name="Path 14122" d="M1118.4,234.317c6.885,16.248,4.3,30.933.821,47.658-2.155,10.348-8.908,34.21-1.152,43.38" transform="translate(98.778 21.779)" fill="none" stroke="#232a2d" stroke-linecap="round" stroke-linejoin="round" stroke-width="10"/>
    <path id="Path_14123" data-name="Path 14123" d="M1137.333,233.776c2.1,3.739,8.775,7.163,11.03,11.032,2.574,4.412,5.148,7.721,4.781,14.707-.581,11.036-6.915,20.4-8.647,31.2-2.1,13.113,2.437,27.911,8.674,39.506" transform="translate(107.051 21.583)" fill="none" stroke="#232a2d" stroke-linecap="round" stroke-linejoin="round" stroke-width="10"/>
    <path id="Path_14124" data-name="Path 14124" d="M1163.965,234.047c8.14,11.934,4.055,26.513,2.144,41.069-1.707,13.009-6.707,35,3.4,46.028,10.965,11.959,17.249-12.823,20.456-23.721,4.538-15.42,14.952-23.993,18.855-40.579,1.47-6.251-1.839-16.546-2.942-21.327" transform="translate(116.453 21.681)" fill="none" stroke="#232a2d" stroke-linecap="round" stroke-linejoin="round" stroke-width="10"/>
    <path id="Path_14125" data-name="Path 14125" d="M1219.285,235.937c4.936,11.03.973,22.368-2.894,33.292-3.771,10.649-11.33,24.882-13.252,36.182-1.5,8.845.064,18.945,5.482,19.508,7.147.742,13.362-19.431,15.811-26.946,5.17-15.874,10-32.254,16.942-47.281,2.724-5.9,6.353-11.614,13.19-12.532,10.686-1.436,16.846,11.855,16.16,21.173-1.066,14.476-36.595,66-12.292,72.487,19.806,5.287,17.588-24.078,24.66-30.41" transform="translate(130.628 22.364)" fill="none" stroke="#232a2d" stroke-linecap="round" stroke-linejoin="round" stroke-width="10"/>
    <path id="Path_14126" data-name="Path 14126" d="M1271.039,241.34c25.394,22.028,6.545,58.384,25.672,83.22,16.614,21.572,28.136-19.6,30.729-31.384,2.7-12.266,3.512-31.765,14.2-40.071" transform="translate(155.353 24.316)" fill="none" stroke="#232a2d" stroke-linecap="round" stroke-linejoin="round" stroke-width="10"/>
    <path id="Path_14127" data-name="Path 14127" d="M1347.78,254.5c-.537,4.816,1.832,9.544.709,13.468-3.354,11.718-9.058,22.919-13.065,34.447-3.17,9.12-7.174,17.239-4.131,26.834" transform="translate(176.728 29.068)" fill="none" stroke="#232a2d" stroke-linecap="round" stroke-linejoin="round" stroke-width="9"/>
    <path id="Path_14128" data-name="Path 14128" d="M1355.063,330.723c0-12.684-.894-20.846,3.807-32.859,5.06-12.932,17.675-23.414,16.611-38.3" transform="translate(185.683 30.9)" fill="none" stroke="#232a2d" stroke-linecap="round" stroke-linejoin="round" stroke-width="9"/>
    <path id="Path_14129" data-name="Path 14129" d="M1383.993,262.1c-.735,5.883,4.532,14.378,3.251,23.739-1.333,9.738-7.005,19.045-6.865,28.811.188,13.064,11.477,14.056,19.567,9.277,8.583-5.072,12.618-9.224,23.675-10.791,13.235-1.874,27.833,13.378,40.006,3.029,5.928-5.041,7.212-14.994,6.515-22.233-.4-4.208-3.7-7.33-3.349-11.562" transform="translate(194.852 31.815)" fill="none" stroke="#232a2d" stroke-linecap="round" stroke-linejoin="round" stroke-width="8"/>
    <path id="Path_14130" data-name="Path 14130" d="M1461.2,280.474c.094,6.1-1.206,19.8-.787,24.734.724,8.551,11.053,9.364,18.068,8.3,8.969-1.353,18.032-5.892,27.305-5.531,6.6.257,10.909,5.11,16.89,6.037,8.408,1.3,16.055-4.507,24.328-5.346,8.884-.9,16.892,3.435,25.391,5.212,9.15,1.915,19.39,2.16,28.724,2.136,18.059-.049,46.995,3.353,64.417,4.939" transform="translate(223.734 38.453)" fill="none" stroke="#232a2d" stroke-linecap="round" stroke-linejoin="round" stroke-width="7"/>
    <path id="Path_14131" data-name="Path 14131" d="M1342.119,270.478c8.046-7.321,23.984,13.4,32.45,4.585" transform="translate(181.031 34.265)" fill="none" stroke="#232a2d" stroke-linecap="round" stroke-linejoin="round" stroke-width="9"/>
    <path id="Path_14132" data-name="Path 14132" d="M1409.1,311.545c9.134-6.168-2.124-18.988-4.824-25.3-1.663-3.886-1.914-14.993-.378-19.4" transform="translate(202.979 33.532)" fill="none" stroke="#232a2d" stroke-linecap="round" stroke-linejoin="round" stroke-width="8"/>
    <path id="Path_14133" data-name="Path 14133" d="M1448.88,307.826c-11.992-1.763-29.973-23.011-25.764-35.906" transform="translate(210.066 35.363)" fill="none" stroke="#232a2d" stroke-linecap="round" stroke-linejoin="round" stroke-width="8"/>
    <path id="Path_14134" data-name="Path 14134" d="M1468.306,311.256c13.755-1.412,14.666-16.526,16.93-25.4" transform="translate(226.617 40.399)" fill="none" stroke="#232a2d" stroke-linecap="round" stroke-linejoin="round" stroke-width="7"/>
    <path id="Path_14135" data-name="Path 14135" d="M1494.607,303.422c5.657-2.981,6.875-10.054,7.935-13.935" transform="translate(236.118 41.709)" fill="none" stroke="#232a2d" stroke-linecap="round" stroke-linejoin="round" stroke-width="7"/>
    <path id="Path_14136" data-name="Path 14136" d="M1519.615,303.185c-.233-3.191,2.115-5.747,2.669-9.344" transform="translate(245.147 43.282)" fill="none" stroke="#232a2d" stroke-linecap="round" stroke-linejoin="round" stroke-width="7"/>
    <path id="Path_14137" data-name="Path 14137" d="M1544.614,303.964c.654-2.031,1.94-2.773,1.94-4.89" transform="translate(254.183 45.172)" fill="none" stroke="#232a2d" stroke-linecap="round" stroke-linejoin="round" stroke-width="7"/>
    <path id="Path_14138" data-name="Path 14138" d="M857.2,329.64c64.514-37.633,112.742-57.412,180.1-75.267,111.555-29.569,227.312-29.312,334.666-21.505,147.845,10.753,312.8,68.874,473.1,94.083,15.144,2.382,26.879,4.589,41.665,6.721,42.688,6.156,93.031,11.354,4.032,20.16-26.82,2.654-39.282,8.863-69.889,16.13-63.639,15.106-130.632,35.575-193.542,53.761-81.076,23.437-149.189,32.256-232.52,37.633-66.392,4.284-134.4,5.376-200.262,1.344-64.5-3.949-129.028-14.785-197.574-25.537-21.92-3.439-31.915-6.431-58.8-21.215-9.992-5.494-25.157-19.572-40.663-31.2-26.882-20.162-55.106-22.85-56.45-33.6C840.009,342.644,851.381,334.581,857.2,329.64Z" transform="translate(0 19.641)" fill="url(#linear-gradient-2)"/>
    <path id="Path_14139" data-name="Path 14139" d="M900.19,363.931c20.529,7.786,24.776-4.247,19.113-17.7-3.072-7.295-9.911-14.158-29.731-23.361-5.3-2.458-16.282-7.079-29.023-7.079" transform="translate(7.061 51.213)" fill="none" stroke="#434e54" stroke-width="2"/>
    <path id="Path_14140" data-name="Path 14140" d="M932.327,295.538c15.2.46,17.089.922,33.163.922,15.2,0,27.9,1.086,37.769,10.593,12.436,11.975,15.2,45.6,16.581,73.236.475,9.5-3.225,33.163-17.963,34.545" transform="translate(32.991 43.895)" fill="none" stroke="#434e54" stroke-width="2"/>
    <path id="Path_14141" data-name="Path 14141" d="M942.478,304.674c6.844,3.527,15.31,15.682,20.266,22.455,5.337,7.3,9.61,15.39,13.7,23.258,6.164,11.846,11.542,24.149,10.708,38.217-.519,8.734-4.936,18.894-14.277,21.085" transform="translate(36.658 47.195)" fill="none" stroke="#434e54" stroke-width="1"/>
    <path id="Path_14142" data-name="Path 14142" d="M1005.838,312.432c50.03-13.312,136.379,6.495,136.78,6.884-7.8,6.427-21.114,14.688-34.883,21.114-13.611,6.352-29.376,11.015-44.523,15.147-2.385.651-14.688-3.213-28.916-10.557-1.632-.843,1.835-9.639-7.344-19.278C1016.646,314.921,1008.408,322.556,1005.838,312.432Z" transform="translate(59.548 48.338)" fill="#434e54"/>
    <g id="Group_653" data-name="Group 653" transform="translate(1065.386 356.176)">
      <g id="Group_652" data-name="Group 652" clip-path="url(#clip-path-6)">
        <path id="Path_14143" data-name="Path 14143" d="M1032.453,332.418a120.209,120.209,0,0,1,18.39,5.254c12.609,5.253,14.711,8.406,21.017,11.558" transform="translate(-996.223 -298.958)" fill="none" stroke="#d2d3b6" stroke-width="2"/>
        <path id="Path_14144" data-name="Path 14144" d="M1032.453,327.4c7.882,1.576,16.191,2.243,22.593,4.2a174.012,174.012,0,0,1,32.051,13.135" transform="translate(-996.223 -300.77)" fill="none" stroke="#d2d3b6" stroke-width="2"/>
        <path id="Path_14145" data-name="Path 14145" d="M1030.909,322.768c25.745.525,49.042,7.735,70.407,17.34" transform="translate(-996.781 -302.444)" fill="none" stroke="#d2d3b6" stroke-width="2"/>
        <path id="Path_14146" data-name="Path 14146" d="M1028.593,317.364c8.932,0,17.932.55,24.573,1.036,21.859,1.6,51.613,8.948,62.121,14.2" transform="translate(-997.618 -304.396)" fill="none" stroke="#d2d3b6" stroke-width="2"/>
        <path id="Path_14147" data-name="Path 14147" d="M1024.348,312.957c11.033-1.576,23.634-.546,33.567-.109a375.676,375.676,0,0,1,73.618,10.616" transform="translate(-999.151 -306.293)" fill="none" stroke="#d2d3b6" stroke-width="2"/>
      </g>
    </g>
    <path id="Path_14149" data-name="Path 14149" d="M918.867,294.67c-13.426,0-46.661,3.274-50.908,13.184-4.5,10.512,23.356,21.662,31.855,25.484,10.946,4.924,21.426,6.527,33.978,7.786,15.8,1.586,26.389-.61,28.316-17.7C965.66,291.9,937.98,295.378,918.867,294.67Z" transform="translate(9.561 43.581)" fill="url(#radial-gradient)"/>
    <ellipse id="Ellipse_55" data-name="Ellipse 55" cx="20.529" cy="18.759" rx="20.529" ry="18.759" transform="translate(907.251 341.525)" fill="#cec884" stroke="#232a2d" stroke-width="2"/>
    <ellipse id="Ellipse_56" data-name="Ellipse 56" cx="13.45" cy="12.388" rx="13.45" ry="12.388" transform="translate(914.33 347.896)" fill="#232a2d"/>
    <circle id="Ellipse_57" data-name="Ellipse 57" cx="7.308" cy="7.308" r="7.308" transform="translate(928.922 348.176)" fill="#fff"/>
  </g>
</svg>
