<svg xmlns="http://www.w3.org/2000/svg" xmlns:xlink="http://www.w3.org/1999/xlink" width="511.766" height="376.03" viewBox="0 0 511.766 376.03">
  <defs>
    <clipPath id="clip-path">
      <path id="Path_14703" data-name="Path 14703" d="M185.937,6619.349s113.646,13.9,258.334,0,214.865-27.6,214.865-27.6l-6.589-329.1-217.453-13.151L162.2,6277.932,147.37,6437.224l22.563,154.526Z" transform="translate(0 -6179)" fill="#fff"/>
    </clipPath>
  </defs>
  <g id="Mask_Group_1" data-name="Mask Group 1" transform="translate(-147.37 -70.495)" clip-path="url(#clip-path)">
    <g id="Group_797" data-name="Group 797" transform="translate(415.206 258.51)">
      <g id="Group_797-2" data-name="Group 797" transform="translate(31.744 31.054)">
        <path id="Path_14706" data-name="Path 14706" d="M1221.9,424.739a50.333,50.333,0,0,1,11.677,12.246,48.5,48.5,0,0,1,4.136,7.524c.584,1.315,1.094,2.666,1.555,4.038l.446,1.362a7.794,7.794,0,0,0,.637,1.377,5.9,5.9,0,0,0,.79,1.051,5.155,5.155,0,0,0,1.87,1.267,4.93,4.93,0,0,0,2.812.231,5.16,5.16,0,0,0,1.731-.715,6.1,6.1,0,0,0,1.389-1.246,9.913,9.913,0,0,0,1.1-1.664,23.338,23.338,0,0,0,1.171-2.62c.317-.826.595-1.63.857-2.427.521-1.595.975-3.164,1.406-4.731.858-3.131,1.615-6.245,2.336-9.361s1.4-6.229,2.051-9.343l.965-4.67.473-2.33.236-1.154.115-.547.02-.1c0,.006.011-.036-.031.072a1.953,1.953,0,0,1-.192.371c-4.9,2.286-4.034-3.226-3.97-1.294l.012-.12.005-.03a.938.938,0,0,1-.019.182l4.338.888c.029-.121.05-.181.093-.409l.011-.07c0-.041.008-.049.017-.166.069,2.051.989-3.854-4.239-1.4a2.289,2.289,0,0,0-.22.431l-.081.222-.065.191-.2.6-.37,1.14-.731,2.261-1.472,4.5q-1.487,4.493-3.047,8.941c-1.046,2.959-2.123,5.9-3.268,8.771-.573,1.432-1.164,2.849-1.783,4.2-.309.676-.626,1.338-.95,1.957a14.4,14.4,0,0,1-.95,1.613c-.134.19-.287.352-.25.269a1.664,1.664,0,0,1,.525-.468,3.513,3.513,0,0,1,1.21-.494,3.969,3.969,0,0,1,1.092-.075,4.045,4.045,0,0,1,1.176.263,3.906,3.906,0,0,1,1.416.941,3.523,3.523,0,0,1,.453.583c.151.25.163.3.179.3s.016-.02-.044-.292l-.133-.632c-.359-1.685-.785-3.363-1.3-5.015a58.8,58.8,0,0,0-3.949-9.633,62.223,62.223,0,0,0-12.644-16.682Z" transform="translate(-1221.901 -410.342)" fill="#204c43"/>
      </g>
      <path id="Path_14707" data-name="Path 14707" d="M1353.078,531.5a9.166,9.166,0,0,0-1.363,6.1c.637,4.045,4.366,6.879,5.312,6.293.444-.275.062-1.171.565-3.639.293-1.438.578-1.894.727-2.588.28-1.31.053-3.351-2.373-6.473Z" transform="translate(-1350.123 -442.751)" fill="#e1ceae"/>
      <g id="Group_798" data-name="Group 798" transform="translate(11.325 0)">
        <ellipse id="Ellipse_75" data-name="Ellipse 75" cx="4.911" cy="4.969" rx="4.911" ry="4.969" transform="translate(17.832 22.161)" fill="#e9a93b"/>
        <path id="Rectangle_146" data-name="Rectangle 146" d="M0,0H22.51a0,0,0,0,1,0,0V4.864A11.255,11.255,0,0,1,11.255,16.119h0A11.255,11.255,0,0,1,0,4.864V0A0,0,0,0,1,0,0Z" transform="translate(1.47 12.222)" fill="#e9a93b"/>
        <path id="Path_14708" data-name="Path 14708" d="M1308.511,400.2v-9.835h6.947v3.853a9.326,9.326,0,0,1-3.478,5.126h0A5.013,5.013,0,0,1,1308.511,400.2Z" transform="translate(-1298.024 -368.798)" opacity="0.25"/>
        <path id="Rectangle_147" data-name="Rectangle 147" d="M0,0H9A0,0,0,0,1,9,0V11.4a4.5,4.5,0,0,1-4.5,4.5h0A4.5,4.5,0,0,1,0,11.4V0A0,0,0,0,1,0,0Z" transform="translate(10.487 21.569)" fill="#e1ceae"/>
        <path id="Path_14709" data-name="Path 14709" d="M1322.028,362.048h0q0,1.917-.183,3.826l-.508,5.292a10.222,10.222,0,0,1-5.248,8.217h0a8,8,0,0,1-7.372,0h0a10.22,10.22,0,0,1-5.248-8.217l-.508-5.292q-.183-1.906-.183-3.826h0c0-4.551,3.242-8.24,7.241-8.24h4.767C1318.786,353.808,1322.028,357.5,1322.028,362.048Z" transform="translate(-1301.872 -349.598)" fill="#e1ceae"/>
        <ellipse id="Ellipse_76" data-name="Ellipse 76" cx="0.891" cy="0.891" rx="0.891" ry="0.891" transform="translate(11.164 16.107)"/>
        <ellipse id="Ellipse_77" data-name="Ellipse 77" cx="0.891" cy="0.891" rx="0.891" ry="0.891" transform="translate(3.187 15.561)"/>
        <path id="Path_14710" data-name="Path 14710" d="M1319.063,396.793h.014a2.834,2.834,0,0,0,1.871-1.106,2.735,2.735,0,0,0,.511-1.447.1.1,0,0,0-.092-.1.1.1,0,0,0-.1.092,2.537,2.537,0,0,1-.474,1.344,2.636,2.636,0,0,1-1.74,1.028.1.1,0,0,0,.014.195Z" transform="translate(-1308.99 -370.776)"/>
        <path id="Path_14711" data-name="Path 14711" d="M1329.491,387.441a1.458,1.458,0,0,0,.436-.065.1.1,0,1,0-.061-.186,1.173,1.173,0,0,1-1.534-.954,2.546,2.546,0,0,0,.973-1.441,2.407,2.407,0,0,0,.026-.979.1.1,0,0,0-.114-.08.1.1,0,0,0-.079.114,2.2,2.2,0,0,1-.024.9,2.361,2.361,0,0,1-.943,1.36l-.046.033.005.056a1.429,1.429,0,0,0,.592,1.008A1.346,1.346,0,0,0,1329.491,387.441Z" transform="translate(-1321.874 -365.314)"/>
        <path id="Rectangle_148" data-name="Rectangle 148" d="M0,0H1.283a2,2,0,0,1,2,2V2A2.674,2.674,0,0,1,.608,4.674H0a0,0,0,0,1,0,0V0A0,0,0,0,1,0,0Z" transform="translate(19.143 16.419)" fill="#e1ceae"/>
        <path id="Path_14712" data-name="Path 14712" d="M1315.107,357.17l-.88,11.694-.988,1.24.172-9.613a16.042,16.042,0,0,1-5.327-4.6,15.866,15.866,0,0,1-2.226-4.24c-.182-.066-4.426-1.514-7.709,1.267a7.857,7.857,0,0,0-2.641,5.387,9.961,9.961,0,0,1-.105-7.71c2.031-4.456,7.27-5.237,8.977-5.492,4.293-.64,10.29.516,12.674,4.541,1.323,2.236,1.476,5.259,1.584,7.393a24.31,24.31,0,0,1-.106,3.8Z" transform="translate(-1294.657 -344.942)" fill="#e9a93b"/>
      </g>
      <g id="Group_799" data-name="Group 799" transform="translate(0 34.087)">
        <path id="Path_14713" data-name="Path 14713" d="M1334.934,419.851a26.119,26.119,0,0,0-4.922-2.207,20.862,20.862,0,0,0-2.875-.7,17.686,17.686,0,0,0-3.164-.214,14.58,14.58,0,0,0-6.421,1.679,16.274,16.274,0,0,0-4.707,3.837,22.948,22.948,0,0,0-2.854,4.357,34.125,34.125,0,0,0-1.832,4.34,59.167,59.167,0,0,0-2.173,8.474c-.522,2.783-.894,5.539-1.231,8.225a80.573,80.573,0,0,0-.661,8.41,84.254,84.254,0,0,0,1.237,16.631l4.4-.473a78.756,78.756,0,0,1,.9-15.562,73.464,73.464,0,0,1,1.615-7.546c.682-2.594,1.372-5.111,2.173-7.541a49.867,49.867,0,0,1,2.76-6.865,17.047,17.047,0,0,1,3.58-5.045,4.683,4.683,0,0,1,1.692-.981,2.945,2.945,0,0,1,1.377-.037,10.149,10.149,0,0,1,4.076,2.116Z" transform="translate(-1304.064 -416.729)" fill="#204c43"/>
      </g>
      <g id="Group_800" data-name="Group 800" transform="translate(5.444 33.495)">
        <path id="Path_14714" data-name="Path 14714" d="M1311.237,474.8l-41.931-.658c2.4-19.116,3.964-32.818,4.2-39.458,0,0-.921-3.517,2.751-12.909,1.166-2.981,1.92-3.824,2.354-4.252,1.042-1.025,3.425,2.867,12.351-.459,9.751-3.632,12.761.026,13.418.733,1.111,1.194,1.539,2.561,2.35,5.247a39.78,39.78,0,0,1,1.6,8.629c.081,1.122.094,1.956.1,2.164C1308.483,436.926,1309.163,447.665,1311.237,474.8Z" transform="translate(-1269.306 -415.482)" fill="#204c43"/>
        <path id="Path_14715" data-name="Path 14715" d="M1339.937,512.533h1.382c3.21,0,5.821-3.758,5.821-8.378V502.1a.1.1,0,0,0-.2,0v2.057c0,4.508-2.52,8.175-5.618,8.175h-1.382a.1.1,0,1,0,0,.2Z" transform="translate(-1338.698 -460.917)" fill="#212021"/>
        <path id="Path_14716" data-name="Path 14716" d="M1281.874,513.1h3.332a.1.1,0,1,0,0-.2h-3.332a8.185,8.185,0,0,1-8.175-8.176v-2.056a.1.1,0,0,0-.2,0v2.056A8.388,8.388,0,0,0,1281.874,513.1Z" transform="translate(-1245.365 -461.216)" fill="#212021"/>
        <path id="Path_14717" data-name="Path 14717" d="M1306.3,418.517c4.012-.554,5.468-.825,8.214-2.8-1.353-.183-7.084.915-7.814.861-5.551-.408-.863-.717-6.186-.4-.255.015-3.564.35-3.661.4" transform="translate(-1285.663 -415.593)" fill="#b4b4b5"/>
        <path id="Path_14718" data-name="Path 14718" d="M1314.039,474.541a.1.1,0,0,0,.1-.1V421.528a.1.1,0,1,0-.2,0V474.44A.1.1,0,0,0,1314.039,474.541Z" transform="translate(-1293.401 -418.603)" fill="#212021"/>
      </g>
      <path id="Path_14719" data-name="Path 14719" d="M1277.969,539.63l34.446-.029-.3,1.759Z" transform="translate(-1269.154 -447.17)"/>
      <path id="Path_14720" data-name="Path 14720" d="M1220.813,403.639a8.651,8.651,0,0,1-1.472-6.1c.688-4.046,4.715-6.879,5.736-6.293.479.275.068,1.171.611,3.639.316,1.439.623,1.895.784,2.589.3,1.31.057,3.351-2.562,6.473Z" transform="translate(-1155.425 -369.221)" fill="#e1ceae"/>
      <g id="Group_809" data-name="Group 809" transform="translate(6.682 33.454)">
        <path id="Path_14721" data-name="Path 14721" d="M1275.544,415.814s4.513-1.319,8.068.724c0,0-3.5,20.7,5.7,25.011,0,0,1.8,15.465,1.684,23.53,0,0-6.818,1.493-20.161,1.4l.323-22.78S1269.917,433.46,1275.544,415.814Z" transform="translate(-1251.04 -415.395)" fill="#bf311f"/>
        <path id="Path_14722" data-name="Path 14722" d="M1324.862,416.857s-4.41-.044-7.2,2.271c0,0,5.99,18.629-3.329,22.679,0,0-2.22,16.181-2.334,24.246a200.577,200.577,0,0,0,20.1,1.2l.323-22.78S1329.988,434.655,1324.862,416.857Z" transform="translate(-1312 -416.163)" fill="#bf311f"/>
        <g id="Group_802" data-name="Group 802" transform="translate(1.327 30.137)">
          <g id="Group_801" data-name="Group 801">
            <path id="Path_14723" data-name="Path 14723" d="M1309.861,479.388a139.141,139.141,0,0,1-37-.524l-.428,3.581s15.4,3.635,37.882.819Z" transform="translate(-1272.43 -478.864)" fill="#f2f4f4"/>
          </g>
        </g>
        <g id="Group_804" data-name="Group 804" transform="translate(0.267 40.775)">
          <g id="Group_803" data-name="Group 803">
            <path id="Path_14724" data-name="Path 14724" d="M1310.236,501.821a158.561,158.561,0,0,1-39.08-.554l-.318,3.761a137.09,137.09,0,0,0,39.7.613Z" transform="translate(-1270.838 -501.267)" fill="#f2f4f4"/>
          </g>
        </g>
        <g id="Group_805" data-name="Group 805" transform="translate(30.698 30.809)">
          <rect id="Rectangle_149" data-name="Rectangle 149" width="5.209" height="1.842" transform="translate(0.516 5.366) rotate(-95.687)" fill="#c4cdd6"/>
        </g>
        <g id="Group_806" data-name="Group 806" transform="translate(8.164 30.473)">
          <rect id="Rectangle_150" data-name="Rectangle 150" width="1.843" height="5.21" transform="translate(1.828 5.401) rotate(-172.699)" fill="#c4cdd6"/>
        </g>
        <g id="Group_807" data-name="Group 807" transform="translate(31.3 41.237)">
          <rect id="Rectangle_151" data-name="Rectangle 151" width="5.209" height="1.842" transform="translate(0.514 5.365) rotate(-95.659)" fill="#c4cdd6"/>
        </g>
        <g id="Group_808" data-name="Group 808" transform="translate(7.255 40.945)">
          <rect id="Rectangle_152" data-name="Rectangle 152" width="1.842" height="5.209" transform="matrix(-0.992, -0.127, 0.127, -0.992, 1.827, 5.401)" fill="#c4cdd6"/>
        </g>
      </g>
    </g>
    <g id="Group_796" data-name="Group 796" transform="translate(177 127.163)">
      <g id="Group_790" data-name="Group 790" transform="translate(6.606 45.985)">
        <path id="Path_14673" data-name="Path 14673" d="M727.1,502.735h3.89L609.537,326.554h-274.8l-.341,1.143-52.4,174.491,3.347-.006,51.777-172.421H607.852l96.462,139.933L609.731,353.6l-2.486,2.026Z" transform="translate(-281.994 -326.554)" fill="#2a3a46"/>
      </g>
      <path id="Path_14674" data-name="Path 14674" d="M739.775,400.187,676.443,499.6H326.909l-46.5-99.408Z" transform="translate(-280.411 -179.034)" fill="#f6f6f4"/>
      <path id="Path_14675" data-name="Path 14675" d="M336.214,312.609H340.8l6.515,208.342H329.7Z" transform="translate(-5.199 -299.798)" fill="#f6f6f4"/>
      <path id="Path_14676" data-name="Path 14676" d="M329.951,315.431a8.206,8.206,0,1,0,8.207-8.207A8.207,8.207,0,0,0,329.951,315.431Z" transform="translate(-4.851 -307.224)" fill="#e8a720"/>
      <path id="Path_14677" data-name="Path 14677" d="M450.874,312.609h4.583l6.515,208.342H444.359Z" transform="translate(-392.629 -299.798)" fill="#f6f6f4"/>
      <path id="Path_14678" data-name="Path 14678" d="M444.611,315.431a8.206,8.206,0,1,0,8.2-8.207A8.206,8.206,0,0,0,444.611,315.431Z" transform="translate(-392.279 -307.224)" fill="#e8a720"/>
      <rect id="Rectangle_138" data-name="Rectangle 138" width="118.991" height="71.176" transform="translate(82.896 149.978)" fill="#f6f6f4"/>
      <path id="Path_14680" data-name="Path 14680" d="M508.723,360.31H366.007v15.209H499.963Z" transform="translate(-283.111 -225.541)" fill="#f6f6f4"/>
      <path id="Path_14682" data-name="Path 14682" d="M683.739,428.329H298.34l15.184,32.462H663.058Z" transform="translate(-267.026 -140.229)" fill="#e8a720"/>
      <path id="Path_14683" data-name="Path 14683" d="M739.775,400.187l-17.741,27.846h-428.6l-13.025-27.846Z" transform="translate(-280.411 -179.034)" fill="#e8a720"/>
      <g id="Group_791" data-name="Group 791" transform="translate(111.488 163.483)">
        <path id="Path_14684" data-name="Path 14684" d="M380.52,373.565h29.411v22.083H380.52a3.561,3.561,0,0,1-3.561-3.561v-14.96A3.561,3.561,0,0,1,380.52,373.565Z" transform="translate(-319.531 -373.565)" fill="#2a3a46"/>
        <rect id="Rectangle_139" data-name="Rectangle 139" width="20.197" height="22.083" rx="1.644" transform="translate(28.713 0)" fill="#2a3a46"/>
        <rect id="Rectangle_140" data-name="Rectangle 140" width="20.196" height="22.083" rx="1.644" transform="translate(0 0)" fill="#2a3a46"/>
      </g>
      <ellipse id="Ellipse_74" data-name="Ellipse 74" cx="10.496" cy="10.496" rx="10.496" ry="10.496" transform="translate(69.344 277.604)" fill="#2a3a46"/>
      <g id="Group_793" data-name="Group 793" transform="translate(240.38 221.153)">
        <g id="Group_792" data-name="Group 792" transform="translate(0 2.997)">
          <path id="Path_14685" data-name="Path 14685" d="M357.662,419.564a1.288,1.288,0,1,1,0-1.822A1.291,1.291,0,0,1,357.662,419.564ZM356.2,418.1a.785.785,0,1,0,1.109,0A.785.785,0,0,0,356.2,418.1Z" transform="translate(-317.6 -379.499)" fill="#e53935"/>
          <path id="Path_14686" data-name="Path 14686" d="M371.3,405.929a1.289,1.289,0,1,1,0-1.822A1.286,1.286,0,0,1,371.3,405.929Zm-1.468-1.465a.786.786,0,1,0,1.111,0A.79.79,0,0,0,369.831,404.463Z" transform="translate(-363.67 -398.3)" fill="#e53935"/>
          <path id="Path_14687" data-name="Path 14687" d="M357.662,404.106a1.289,1.289,0,1,1-1.822,0A1.291,1.291,0,0,1,357.662,404.106Zm-1.465,1.468a.785.785,0,1,0,0-1.111A.787.787,0,0,0,356.2,405.574Z" transform="translate(-317.6 -398.3)" fill="#e53935"/>
          <path id="Path_14688" data-name="Path 14688" d="M371.3,417.742a1.289,1.289,0,1,1-1.822,0A1.291,1.291,0,0,1,371.3,417.742Zm-1.468,1.465a.786.786,0,1,0,0-1.111A.785.785,0,0,0,369.831,419.208Z" transform="translate(-363.67 -379.499)" fill="#e53935"/>
          <path id="Path_14689" data-name="Path 14689" d="M392.333,408.165a22.935,22.935,0,1,1-32.434,0A22.937,22.937,0,0,1,392.333,408.165Zm-26.256,26.256a14.2,14.2,0,1,0,0-20.076A14.2,14.2,0,0,0,366.077,434.421Z" transform="translate(-353.181 -401.447)" fill="#fff"/>
          <path id="Path_14690" data-name="Path 14690" d="M361.336,403.3l-6.3,6.3a14.226,14.226,0,0,1,5,5l6.3-6.3a23.244,23.244,0,0,0-5-5Z" transform="translate(-324.877 -398.892)" fill="#ef5350"/>
          <path id="Path_14691" data-name="Path 14691" d="M372.161,414.125l-6.3,6.3a23.3,23.3,0,0,0,5,5l6.3-6.3a14.238,14.238,0,0,1-2.814-2.186A14.075,14.075,0,0,1,372.161,414.125Z" transform="translate(-361.451 -383.966)" fill="#ef5350"/>
          <path id="Path_14692" data-name="Path 14692" d="M357.851,416.942a14.183,14.183,0,0,1-2.817,2.186l6.3,6.3a23.244,23.244,0,0,0,5-5l-6.3-6.3A14.164,14.164,0,0,1,357.851,416.942Z" transform="translate(-324.877 -383.966)" fill="#ef5350"/>
          <path id="Path_14693" data-name="Path 14693" d="M368.169,405.61a23.12,23.12,0,0,0-2.31,2.693l6.3,6.3a14.247,14.247,0,0,1,5-5l-6.3-6.3A23.347,23.347,0,0,0,368.169,405.61Z" transform="translate(-361.451 -398.892)" fill="#ef5350"/>
        </g>
        <rect id="Rectangle_141" data-name="Rectangle 141" width="1.345" height="2.346" transform="translate(22.262)" fill="#616161"/>
        <rect id="Rectangle_142" data-name="Rectangle 142" width="4.323" height="11.304" rx="0.526" transform="translate(20.773 1.754)" fill="#424242"/>
      </g>
      <g id="Group_795" data-name="Group 795" transform="translate(303.381 221.153)">
        <g id="Group_794" data-name="Group 794" transform="translate(0 2.997)">
          <path id="Path_14694" data-name="Path 14694" d="M331.179,419.564a1.288,1.288,0,1,1,0-1.822A1.291,1.291,0,0,1,331.179,419.564Zm-1.465-1.468a.786.786,0,1,0,1.111,0A.785.785,0,0,0,329.713,418.1Z" transform="translate(-291.116 -379.499)" fill="#e53935"/>
          <path id="Path_14695" data-name="Path 14695" d="M344.814,405.929a1.289,1.289,0,1,1,0-1.822A1.286,1.286,0,0,1,344.814,405.929Zm-1.465-1.465a.785.785,0,1,0,1.109,0A.785.785,0,0,0,343.348,404.463Z" transform="translate(-337.185 -398.3)" fill="#e53935"/>
          <path id="Path_14696" data-name="Path 14696" d="M331.179,404.106a1.289,1.289,0,1,1-1.822,0A1.286,1.286,0,0,1,331.179,404.106Zm-1.465,1.468a.786.786,0,1,0,0-1.111A.79.79,0,0,0,329.713,405.574Z" transform="translate(-291.116 -398.3)" fill="#e53935"/>
          <path id="Path_14697" data-name="Path 14697" d="M344.814,417.742a1.289,1.289,0,1,1-1.822,0A1.291,1.291,0,0,1,344.814,417.742Zm-1.465,1.465a.785.785,0,1,0,0-1.111A.783.783,0,0,0,343.348,419.208Z" transform="translate(-337.185 -379.499)" fill="#e53935"/>
          <path id="Path_14698" data-name="Path 14698" d="M365.85,408.165a22.935,22.935,0,1,1-32.434,0A22.937,22.937,0,0,1,365.85,408.165Zm-26.256,26.256a14.2,14.2,0,1,0,0-20.076A14.2,14.2,0,0,0,339.594,434.421Z" transform="translate(-326.698 -401.447)" fill="#fff"/>
          <path id="Path_14699" data-name="Path 14699" d="M334.853,403.3l-6.3,6.3a14.246,14.246,0,0,1,5,5l6.3-6.3a23.3,23.3,0,0,0-5-5Z" transform="translate(-298.392 -398.892)" fill="#ef5350"/>
          <path id="Path_14700" data-name="Path 14700" d="M345.677,414.125l-6.3,6.3a23.239,23.239,0,0,0,5,5l6.3-6.3a14.26,14.26,0,0,1-5-5Z" transform="translate(-334.968 -383.966)" fill="#ef5350"/>
          <path id="Path_14701" data-name="Path 14701" d="M331.365,416.942a14.239,14.239,0,0,1-2.814,2.186l6.3,6.3a23.3,23.3,0,0,0,5-5l-6.3-6.3A14.077,14.077,0,0,1,331.365,416.942Z" transform="translate(-298.392 -383.966)" fill="#ef5350"/>
          <path id="Path_14702" data-name="Path 14702" d="M341.685,405.61a23.358,23.358,0,0,0-2.31,2.693l6.3,6.3a14.227,14.227,0,0,1,5-5l-6.3-6.3A23.159,23.159,0,0,0,341.685,405.61Z" transform="translate(-334.968 -398.892)" fill="#ef5350"/>
        </g>
        <rect id="Rectangle_143" data-name="Rectangle 143" width="1.345" height="2.346" transform="translate(22.263)" fill="#616161"/>
        <rect id="Rectangle_144" data-name="Rectangle 144" width="4.323" height="11.304" rx="0.526" transform="translate(20.774 1.754)" fill="#424242"/>
      </g>
      <rect id="Rectangle_145" data-name="Rectangle 145" width="118.991" height="10.655" transform="translate(82.896 149.978)" fill="#424242" opacity="0.1" style="mix-blend-mode: multiply;isolation: isolate"/>
    </g>
  </g>
</svg>
