<?xml version="1.0" encoding="utf-8"?>
<!-- Generator: Adobe Illustrator 25.4.1, SVG Export Plug-In . SVG Version: 6.00 Build 0)  -->
<svg version="1.1" id="Layer_1" xmlns="http://www.w3.org/2000/svg" xmlns:xlink="http://www.w3.org/1999/xlink" x="0px" y="0px"
	 viewBox="0 0 277.9 113.6" style="enable-background:new 0 0 277.9 113.6;" xml:space="preserve">
<style type="text/css">
	.st0{opacity:0.1;enable-background:new    ;}
	.st1{fill:#82BD55;}
	.st2{enable-background:new    ;}
	.st3{fill:#F6F6F4;}
</style>
<g id="Group_54" transform="translate(-1571.475 -961.812)">
	<g id="Group_37" transform="translate(1571.475 961.812)">
		<g id="Group_609" transform="translate(0 0)">
			<path id="Rectangle_136" class="st0" d="M28.6,0.9l224.2,7.9c13.8,0.5,24.6,12.1,24.1,25.8l-1.9,54
				c-0.5,13.8-12.1,24.6-25.8,24.1L25,104.8C11.2,104.4,0.4,92.8,0.9,79l1.9-54C3.2,11.2,14.8,0.4,28.6,0.9z"/>
			<path id="Rectangle_29" class="st1" d="M26.7,0.2h224.4c13.8,0,25,11.2,25,25v54.1c0,13.8-11.2,25-25,25H26.7
				c-13.8,0-25-11.2-25-25V25.2C1.7,11.4,12.9,0.2,26.7,0.2z"/>
		</g>
		<g class="st2">
			<path class="st3" d="M65.3,56.8l6.9-0.7c0.4,2.3,1.3,4,2.5,5.1c1.3,1.1,3,1.6,5.1,1.6c2.3,0,4-0.5,5.2-1.4c1.2-1,1.7-2.1,1.7-3.4
				c0-0.8-0.2-1.5-0.7-2.1c-0.5-0.6-1.3-1.1-2.5-1.5c-0.8-0.3-2.7-0.8-5.7-1.5c-3.8-0.9-6.5-2.1-8-3.5c-2.2-1.9-3.2-4.3-3.2-7.1
				c0-1.8,0.5-3.5,1.5-5c1-1.6,2.5-2.7,4.4-3.6c1.9-0.8,4.2-1.2,6.9-1.2c4.4,0,7.7,1,9.9,2.9c2.2,1.9,3.4,4.5,3.5,7.7l-7.1,0.3
				c-0.3-1.8-1-3.1-2-3.9c-1-0.8-2.5-1.2-4.5-1.2c-2.1,0-3.7,0.4-4.8,1.3c-0.8,0.5-1.1,1.3-1.1,2.2c0,0.8,0.4,1.5,1.1,2.1
				c0.9,0.7,3.1,1.5,6.5,2.3c3.4,0.8,6,1.7,7.6,2.5c1.7,0.9,2.9,2.1,3.9,3.6c0.9,1.5,1.4,3.4,1.4,5.6c0,2-0.6,3.9-1.7,5.6
				c-1.1,1.8-2.7,3.1-4.7,3.9c-2,0.9-4.6,1.3-7.6,1.3c-4.4,0-7.8-1-10.2-3.1C67.2,63.7,65.7,60.7,65.3,56.8z"/>
			<path class="st3" d="M104.4,68.2l-8-25.4h6.5l4.8,16.7l4.4-16.7h6.5l4.2,16.7l4.9-16.7h6.6l-8.2,25.4h-6.5l-4.4-16.3L111,68.2
				H104.4z"/>
			<path class="st3" d="M137.8,39.3v-6.2h6.7v6.2H137.8z M137.8,68.2V42.8h6.7v25.4H137.8z"/>
			<path class="st3" d="M150.9,42.8h6.2v3.5c2.2-2.7,4.9-4,7.9-4c1.6,0,3,0.3,4.2,1s2.2,1.7,2.9,3c1.1-1.4,2.3-2.4,3.6-3
				s2.7-1,4.1-1c1.9,0,3.4,0.4,4.7,1.1s2.3,1.9,2.9,3.3c0.5,1.1,0.7,2.8,0.7,5.3v16.2h-6.7V53.6c0-2.5-0.2-4.1-0.7-4.9
				c-0.6-1-1.6-1.4-2.9-1.4c-0.9,0-1.8,0.3-2.7,0.9c-0.8,0.6-1.4,1.4-1.8,2.5c-0.4,1.1-0.5,2.9-0.5,5.3v12.2h-6.7V54.2
				c0-2.5-0.1-4.1-0.4-4.8s-0.6-1.3-1.1-1.6c-0.5-0.4-1.2-0.5-2-0.5c-1,0-2,0.3-2.8,0.8s-1.4,1.4-1.8,2.4c-0.4,1.1-0.5,2.8-0.5,5.2
				v12.3h-6.7V42.8z"/>
			<path class="st3" d="M197.6,59.1l-1.7-17.8v-8.2h7.3v8.2l-1.7,17.8H197.6z M196.2,68.2v-6.7h6.7v6.7H196.2z"/>
		</g>
	</g>
</g>
</svg>
