<svg id="home" xmlns="http://www.w3.org/2000/svg" width="81.714" height="77.991" viewBox="0 0 81.714 77.991">
  <g id="Group_767" data-name="Group 767" transform="translate(0)">
    <rect id="Rectangle_133" data-name="Rectangle 133" width="78" height="73" rx="20" transform="translate(3.821 1.009) rotate(3)" opacity="0.1"/>
    <rect id="Rectangle_30" data-name="Rectangle 30" width="78" height="73" rx="20" transform="translate(0.857)" fill="#e8a720"/>
    <g id="Group_34" data-name="Group 34" transform="translate(17.659 10.969)">
      <g id="Icon_-_Home" data-name="Icon - Home" transform="translate(0 0)">
        <rect id="Square" width="46.396" height="46.396" fill="none"/>
        <path id="Icon_-_Home-2" data-name="Icon - Home" d="M2122.631-2468.808l-20.923-16.2a1.552,1.552,0,0,0-1.06-.332,1.558,1.558,0,0,0-1.062.332l-20.923,16.2c-1.525,1.181.613,3.29,2.121,2.122l1.985-1.536c-.06,6.363-.086,12.725-.154,19.089a1.425,1.425,0,0,0,.226.812,1.256,1.256,0,0,0,1.274.688c4.11-.255,8.231-.159,12.344-.351a1.554,1.554,0,0,0,.483-.1,1.225,1.225,0,0,0,1.018-1.4c-.384-4.218-.593-8.468-.581-12.708,2.169-.085,4.368-.131,6.534-.03.014,4.248-.2,8.51-.579,12.737a1.224,1.224,0,0,0,1.012,1.4,1.591,1.591,0,0,0,.488.1c4.113.191,8.234.1,12.344.351a1.256,1.256,0,0,0,1.268-.678,1.422,1.422,0,0,0,.232-.822c-.067-6.364-.094-12.727-.154-19.089l1.985,1.536C2122.018-2465.518,2124.157-2467.626,2122.631-2468.808Zm-6.966,18.1c-3.071-.133-6.145-.116-9.217-.211.346-4.223.531-8.473.465-12.707a1.38,1.38,0,0,0-.847-1.3,1.572,1.572,0,0,0-.653-.2,76.247,76.247,0,0,0-9.533,0,1.49,1.49,0,0,0-.784.255h0c-.036.025-.075.047-.108.076a1.382,1.382,0,0,0-.605,1.168c-.066,4.234.119,8.484.465,12.707-3.072.095-6.146.077-9.217.211.062-6.414.087-12.828.156-19.242a1.557,1.557,0,0,0-.09-.532l14.953-11.578,14.954,11.578a1.49,1.49,0,0,0-.09.532C2115.579-2463.54,2115.6-2457.126,2115.666-2450.712Z" transform="translate(-2078.138 2490.359)" fill="#f9f9f6"/>
      </g>
    </g>
  </g>
</svg>
