<svg xmlns="http://www.w3.org/2000/svg" xmlns:xlink="http://www.w3.org/1999/xlink" width="146.744" height="192.376" viewBox="0 0 146.744 192.376">
  <defs>
    <clipPath id="clip-path">
      <path id="Path_14397" data-name="Path 14397" d="M1577.72,1389.713c16.056-1.38,23.688-11.046,31.361-18.924,14.479-14.865,28.656-28.716,46.439-39.891,16.885-10.612,40.556-22.807,62.99-20.422-4.014,6.623-8.374,14.743-10.189,20.422-4.323,13.52-10.5,27.32-17.909,36.427-12.819,15.753-17.712,19.145-34.743,29.934-7.971,5.048-6.818,11.4.16,16.7,16.23,12.33,21.924,24.285,28.1,34.772,9.669,16.418,9.882,35.047,21.615,53.814-10.34-1.088-48.65-21.591-65.505-34.986-30.248-24.042-34.549-48-61.97-52.859C1568.557,1413.02,1570.952,1403.861,1577.72,1389.713Z" transform="translate(-1571.765 -1310.174)" fill="none"/>
    </clipPath>
  </defs>
  <g id="Group_683" data-name="Group 683" transform="translate(-1571.765 -1310.174)">
    <g id="Group_682" data-name="Group 682" transform="translate(1571.765 1310.174)" clip-path="url(#clip-path)">
      <path id="Path_14381" data-name="Path 14381" d="M1577.72,1389.713c16.056-1.38,23.688-11.046,31.361-18.924,14.479-14.865,28.656-28.716,46.439-39.891,16.885-10.612,40.556-22.807,62.99-20.422-4.014,6.623-8.374,14.743-10.189,20.422-4.323,13.52-10.5,27.32-17.909,36.427-12.819,15.753-17.712,19.145-34.743,29.934-7.971,5.048-6.818,11.4.16,16.7,16.23,12.33,21.924,24.285,28.1,34.772,9.669,16.418,9.882,35.047,21.615,53.814-10.34-1.088-48.65-21.591-65.505-34.986-30.248-24.042-34.549-48-61.97-52.859C1568.557,1413.02,1570.952,1403.861,1577.72,1389.713Z" transform="translate(-1571.765 -1310.174)" fill="#e2e2d3"/>
      <path id="Path_14382" data-name="Path 14382" d="M1592.63,1396.346l-1.608-1.713c5.092-4.777,11.378-11.829,17.457-18.648,6.335-7.108,12.887-14.458,18.286-19.474,26.8-24.9,51.078-40.831,89.261-43.306l.151,2.344c-37.487,2.431-61.394,18.134-87.814,42.682-5.317,4.94-11.832,12.249-18.131,19.316C1604.119,1384.405,1597.8,1391.5,1592.63,1396.346Z" transform="translate(-1568.409 -1309.645)" fill="#606060"/>
      <path id="Path_14383" data-name="Path 14383" d="M1600.5,1395.93l-1.767-1.547c1.42-1.623,4.006-4.367,6.287-6.79,1.752-1.861,3.408-3.618,3.912-4.212a302.077,302.077,0,0,1,29.669-28.936c23.334-18.956,43.249-30.917,75.982-35.956l.358,2.322c-32.208,4.959-51.837,16.756-74.86,35.457a299.083,299.083,0,0,0-29.36,28.633c-.541.64-2.141,2.337-3.991,4.3C1604.458,1391.61,1601.889,1394.34,1600.5,1395.93Z" transform="translate(-1567.065 -1308.724)" fill="#606060"/>
      <path id="Path_14384" data-name="Path 14384" d="M1608.045,1395.76l-1.8-1.5c1.313-1.576,2.632-3.445,3.8-5.094a35.515,35.515,0,0,1,3.878-4.957c15.757-14.546,27.46-24.274,34.783-28.914,23.116-14.647,39.819-25.229,69.4-27.5l.182,2.342c-29,2.231-45.5,12.682-68.326,27.148-7.2,4.563-18.792,14.2-34.445,28.654a35.472,35.472,0,0,0-3.553,4.586C1610.766,1392.2,1609.418,1394.113,1608.045,1395.76Z" transform="translate(-1565.756 -1307.103)" fill="#606060"/>
      <path id="Path_14385" data-name="Path 14385" d="M1613.309,1393.578l-1.8-1.511c8.1-9.646,23.331-20.887,31.557-25.79,21.244-12.662,43.934-25.019,66.95-24.21l-.076,2.346c-22.462-.727-44.729,11.4-65.673,23.883C1634.906,1373.875,1620.406,1385.127,1613.309,1393.578Z" transform="translate(-1564.837 -1304.621)" fill="#606060"/>
      <path id="Path_14386" data-name="Path 14386" d="M1618.775,1391.428l-1.7-1.616c7.663-8.069,23.4-15.9,28.036-18.105,20.933-9.958,37.789-15.272,54.658-17.231l.271,2.332c-16.6,1.928-33.23,7.176-53.919,17.019C1636.746,1378.286,1624.643,1385.252,1618.775,1391.428Z" transform="translate(-1563.868 -1302.452)" fill="#606060"/>
      <path id="Path_14387" data-name="Path 14387" d="M1625.051,1390.091l-1.827-1.475c4.6-5.706,19.145-10.575,26.136-12.914l.636-.215c17.415-5.846,31-9.947,47.77-9.534l-.06,2.349c-16.342-.412-29.778,3.645-46.961,9.413l-.64.215C1643.855,1380.021,1629.221,1384.919,1625.051,1390.091Z" transform="translate(-1562.796 -1300.456)" fill="#606060"/>
      <path id="Path_14388" data-name="Path 14388" d="M1629.585,1390.429l-1.076-2.088c12.66-6.522,29.144-11.291,42-12.15l.155,2.344C1658.1,1379.375,1641.981,1384.042,1629.585,1390.429Z" transform="translate(-1561.875 -1298.667)" fill="#606060"/>
      <path id="Path_14389" data-name="Path 14389" d="M1649.727,1401.738c-4.345-.485-12.181-5.284-17.367-8.46-.859-.526-1.626-.995-2.259-1.373l-1.847-1.1,1.922-.962c5.465-2.731,18.666-4.852,23.732-4.657l-.083,2.346c-4.258-.128-14.708,1.449-20.546,3.552l.309.189c4.7,2.879,12.574,7.7,16.4,8.127Z" transform="translate(-1561.919 -1297.1)" fill="#606060"/>
      <path id="Path_14390" data-name="Path 14390" d="M1670.2,1414.743c-9.916,0-19-4.414-27.5-8.989-4.727-2.546-13.9-8.479-18.38-13.56l1.761-1.552c4.44,5.031,13.864,10.961,17.733,13.043,9.315,5.018,18.54,9.45,28.86,8.609l.19,2.342Q1671.522,1414.745,1670.2,1414.743Z" transform="translate(-1562.605 -1296.148)" fill="#606060"/>
      <path id="Path_14391" data-name="Path 14391" d="M1684.045,1430.01c-16.972-3.832-29.3-9.864-43.695-18.352-4.789-2.824-16.617-11.8-21.58-18.007l1.834-1.468c4.795,5.994,16.282,14.706,20.938,17.451,14.2,8.374,26.348,14.32,43.021,18.083Z" transform="translate(-1563.572 -1295.879)" fill="#606060"/>
      <path id="Path_14392" data-name="Path 14392" d="M1688.256,1441.136c-29.628-7.255-58.142-28.724-74.948-46.4l1.7-1.619c16.577,17.431,44.671,38.6,73.805,45.733Z" transform="translate(-1564.524 -1295.716)" fill="#606060"/>
      <path id="Path_14393" data-name="Path 14393" d="M1700.013,1454.9c-23.938-7.274-47.967-20.011-69.487-36.834-5.064-3.958-17.077-15.934-22.322-23.217l1.906-1.371c5.136,7.133,16.905,18.862,21.863,22.738,21.295,16.647,45.058,29.247,68.724,36.438Z" transform="translate(-1565.414 -1295.653)" fill="#606060"/>
      <path id="Path_14394" data-name="Path 14394" d="M1705.1,1468.249c-32.375-13.932-72.671-31.27-101.667-72.915l1.926-1.342c26.509,38.069,59.844,54.532,100.67,72.1Z" transform="translate(-1566.246 -1295.564)" fill="#606060"/>
      <path id="Path_14395" data-name="Path 14395" d="M1699.548,1473.776c-41.253-15.66-77.349-43.609-101.64-78.7l1.932-1.337c24.023,34.7,59.729,62.344,100.54,77.838Z" transform="translate(-1567.208 -1295.607)" fill="#606060"/>
      <path id="Path_14396" data-name="Path 14396" d="M1703.04,1484.506c-34.331-15.354-61.786-33.21-81.6-53.075-9.291-9.311-22.9-26.1-29.3-35.347l1.931-1.338c6.345,9.163,19.827,25.8,29.031,35.026,19.612,19.659,46.83,37.352,80.9,52.589Z" transform="translate(-1568.214 -1295.432)" fill="#606060"/>
    </g>
  </g>
</svg>
